STARTFONT 2.1
FONT -FontForge-Bedstead-Medium-R-Normal--10-100-75-75-C-60-ISO10646-1
SIZE 10 75 75
FONTBOUNDINGBOX 6 10 0 -2
COMMENT "Generated by fontforge, http://fontforge.sourceforge.net"
COMMENT "Dedicated to the public domain"
STARTPROPERTIES 40
FOUNDRY "FontForge"
FAMILY_NAME "Bedstead"
WEIGHT_NAME "Medium"
SLANT "R"
SETWIDTH_NAME "Normal"
ADD_STYLE_NAME ""
PIXEL_SIZE 10
POINT_SIZE 100
RESOLUTION_X 75
RESOLUTION_Y 75
SPACING "C"
AVERAGE_WIDTH 60
CHARSET_REGISTRY "ISO10646"
CHARSET_ENCODING "1"
FONTNAME_REGISTRY ""
CHARSET_COLLECTIONS "ASCII ISOLatin1Encoding ISO8859-2 ISO8859-5 ISO8859-7 ISO8859-9 ISO8859-8 ISO10646-1"
FONT_NAME "Bedstead"
FACE_NAME "Bedstead"
COPYRIGHT "Dedicated to the public domain"
FONT_VERSION "002.003"
FONT_ASCENT 8
FONT_DESCENT 2
UNDERLINE_POSITION 0
UNDERLINE_THICKNESS 1
X_HEIGHT 4
CAP_HEIGHT 6
RAW_ASCENT 800
RAW_DESCENT 200
NORM_SPACE 6
RELATIVE_WEIGHT 50
RELATIVE_SETWIDTH 50
SUPERSCRIPT_X 0
SUPERSCRIPT_Y 2
SUPERSCRIPT_SIZE 7
SUBSCRIPT_X 0
SUBSCRIPT_Y 2
SUBSCRIPT_SIZE 7
FIGURE_WIDTH 6
AVG_LOWERCASE_WIDTH 60
AVG_UPPERCASE_WIDTH 60
ENDPROPERTIES
CHARS 2006
STARTCHAR space
ENCODING 32
SWIDTH 600 0
DWIDTH 6 0
BBX 1 1 0 0
BITMAP
00
ENDCHAR
STARTCHAR exclam
ENCODING 33
SWIDTH 600 0
DWIDTH 6 0
BBX 1 7 3 0
BITMAP
80
80
80
80
80
00
80
ENDCHAR
STARTCHAR quotedbl
ENCODING 34
SWIDTH 600 0
DWIDTH 6 0
BBX 3 3 2 4
BITMAP
A0
A0
A0
ENDCHAR
STARTCHAR numbersign
ENCODING 35
SWIDTH 600 0
DWIDTH 6 0
BBX 5 7 1 0
BITMAP
50
50
F8
50
F8
50
50
ENDCHAR
STARTCHAR dollar
ENCODING 36
SWIDTH 600 0
DWIDTH 6 0
BBX 5 7 1 0
BITMAP
70
A8
A0
70
28
A8
70
ENDCHAR
STARTCHAR percent
ENCODING 37
SWIDTH 600 0
DWIDTH 6 0
BBX 5 7 1 0
BITMAP
C0
C8
10
20
40
98
18
ENDCHAR
STARTCHAR ampersand
ENCODING 38
SWIDTH 600 0
DWIDTH 6 0
BBX 5 7 1 0
BITMAP
40
A0
A0
40
A8
90
68
ENDCHAR
STARTCHAR quotesingle
ENCODING 39
SWIDTH 600 0
DWIDTH 6 0
BBX 1 3 3 4
BITMAP
80
80
80
ENDCHAR
STARTCHAR parenleft
ENCODING 40
SWIDTH 600 0
DWIDTH 6 0
BBX 3 7 2 0
BITMAP
20
40
80
80
80
40
20
ENDCHAR
STARTCHAR parenright
ENCODING 41
SWIDTH 600 0
DWIDTH 6 0
BBX 3 7 2 0
BITMAP
80
40
20
20
20
40
80
ENDCHAR
STARTCHAR asterisk
ENCODING 42
SWIDTH 600 0
DWIDTH 6 0
BBX 5 7 1 0
BITMAP
20
A8
70
20
70
A8
20
ENDCHAR
STARTCHAR plus
ENCODING 43
SWIDTH 600 0
DWIDTH 6 0
BBX 5 5 1 1
BITMAP
20
20
F8
20
20
ENDCHAR
STARTCHAR comma
ENCODING 44
SWIDTH 600 0
DWIDTH 6 0
BBX 2 3 2 -1
BITMAP
40
40
80
ENDCHAR
STARTCHAR hyphen
ENCODING 45
SWIDTH 600 0
DWIDTH 6 0
BBX 3 1 2 3
BITMAP
E0
ENDCHAR
STARTCHAR period
ENCODING 46
SWIDTH 600 0
DWIDTH 6 0
BBX 1 1 3 0
BITMAP
80
ENDCHAR
STARTCHAR slash
ENCODING 47
SWIDTH 600 0
DWIDTH 6 0
BBX 5 5 1 1
BITMAP
08
10
20
40
80
ENDCHAR
STARTCHAR zero
ENCODING 48
SWIDTH 600 0
DWIDTH 6 0
BBX 5 7 1 0
BITMAP
20
50
88
88
88
50
20
ENDCHAR
STARTCHAR one
ENCODING 49
SWIDTH 600 0
DWIDTH 6 0
BBX 3 7 2 0
BITMAP
40
C0
40
40
40
40
E0
ENDCHAR
STARTCHAR two
ENCODING 50
SWIDTH 600 0
DWIDTH 6 0
BBX 5 7 1 0
BITMAP
70
88
08
30
40
80
F8
ENDCHAR
STARTCHAR three
ENCODING 51
SWIDTH 600 0
DWIDTH 6 0
BBX 5 7 1 0
BITMAP
F8
08
10
30
08
88
70
ENDCHAR
STARTCHAR four
ENCODING 52
SWIDTH 600 0
DWIDTH 6 0
BBX 5 7 1 0
BITMAP
10
30
50
90
F8
10
10
ENDCHAR
STARTCHAR five
ENCODING 53
SWIDTH 600 0
DWIDTH 6 0
BBX 5 7 1 0
BITMAP
F8
80
F0
08
08
88
70
ENDCHAR
STARTCHAR six
ENCODING 54
SWIDTH 600 0
DWIDTH 6 0
BBX 5 7 1 0
BITMAP
30
40
80
F0
88
88
70
ENDCHAR
STARTCHAR seven
ENCODING 55
SWIDTH 600 0
DWIDTH 6 0
BBX 5 7 1 0
BITMAP
F8
08
10
20
40
40
40
ENDCHAR
STARTCHAR eight
ENCODING 56
SWIDTH 600 0
DWIDTH 6 0
BBX 5 7 1 0
BITMAP
70
88
88
70
88
88
70
ENDCHAR
STARTCHAR nine
ENCODING 57
SWIDTH 600 0
DWIDTH 6 0
BBX 5 7 1 0
BITMAP
70
88
88
78
08
10
60
ENDCHAR
STARTCHAR colon
ENCODING 58
SWIDTH 600 0
DWIDTH 6 0
BBX 1 5 3 0
BITMAP
80
00
00
00
80
ENDCHAR
STARTCHAR semicolon
ENCODING 59
SWIDTH 600 0
DWIDTH 6 0
BBX 2 6 2 -1
BITMAP
40
00
00
40
40
80
ENDCHAR
STARTCHAR less
ENCODING 60
SWIDTH 600 0
DWIDTH 6 0
BBX 4 7 1 0
BITMAP
10
20
40
80
40
20
10
ENDCHAR
STARTCHAR equal
ENCODING 61
SWIDTH 600 0
DWIDTH 6 0
BBX 5 3 1 2
BITMAP
F8
00
F8
ENDCHAR
STARTCHAR greater
ENCODING 62
SWIDTH 600 0
DWIDTH 6 0
BBX 4 7 2 0
BITMAP
80
40
20
10
20
40
80
ENDCHAR
STARTCHAR question
ENCODING 63
SWIDTH 600 0
DWIDTH 6 0
BBX 5 7 1 0
BITMAP
70
88
10
20
20
00
20
ENDCHAR
STARTCHAR at
ENCODING 64
SWIDTH 600 0
DWIDTH 6 0
BBX 5 7 1 0
BITMAP
70
88
B8
A8
B8
80
70
ENDCHAR
STARTCHAR A
ENCODING 65
SWIDTH 600 0
DWIDTH 6 0
BBX 5 7 1 0
BITMAP
20
50
88
88
F8
88
88
ENDCHAR
STARTCHAR B
ENCODING 66
SWIDTH 600 0
DWIDTH 6 0
BBX 5 7 1 0
BITMAP
F0
88
88
F0
88
88
F0
ENDCHAR
STARTCHAR C
ENCODING 67
SWIDTH 600 0
DWIDTH 6 0
BBX 5 7 1 0
BITMAP
70
88
80
80
80
88
70
ENDCHAR
STARTCHAR D
ENCODING 68
SWIDTH 600 0
DWIDTH 6 0
BBX 5 7 1 0
BITMAP
F0
88
88
88
88
88
F0
ENDCHAR
STARTCHAR E
ENCODING 69
SWIDTH 600 0
DWIDTH 6 0
BBX 5 7 1 0
BITMAP
F8
80
80
F0
80
80
F8
ENDCHAR
STARTCHAR F
ENCODING 70
SWIDTH 600 0
DWIDTH 6 0
BBX 5 7 1 0
BITMAP
F8
80
80
F0
80
80
80
ENDCHAR
STARTCHAR G
ENCODING 71
SWIDTH 600 0
DWIDTH 6 0
BBX 5 7 1 0
BITMAP
70
88
80
80
98
88
78
ENDCHAR
STARTCHAR H
ENCODING 72
SWIDTH 600 0
DWIDTH 6 0
BBX 5 7 1 0
BITMAP
88
88
88
F8
88
88
88
ENDCHAR
STARTCHAR I
ENCODING 73
SWIDTH 600 0
DWIDTH 6 0
BBX 3 7 2 0
BITMAP
E0
40
40
40
40
40
E0
ENDCHAR
STARTCHAR J
ENCODING 74
SWIDTH 600 0
DWIDTH 6 0
BBX 5 7 1 0
BITMAP
08
08
08
08
08
88
70
ENDCHAR
STARTCHAR K
ENCODING 75
SWIDTH 600 0
DWIDTH 6 0
BBX 5 7 1 0
BITMAP
88
90
A0
C0
A0
90
88
ENDCHAR
STARTCHAR L
ENCODING 76
SWIDTH 600 0
DWIDTH 6 0
BBX 5 7 1 0
BITMAP
80
80
80
80
80
80
F8
ENDCHAR
STARTCHAR M
ENCODING 77
SWIDTH 600 0
DWIDTH 6 0
BBX 5 7 1 0
BITMAP
88
D8
A8
A8
88
88
88
ENDCHAR
STARTCHAR N
ENCODING 78
SWIDTH 600 0
DWIDTH 6 0
BBX 5 7 1 0
BITMAP
88
88
C8
A8
98
88
88
ENDCHAR
STARTCHAR O
ENCODING 79
SWIDTH 600 0
DWIDTH 6 0
BBX 5 7 1 0
BITMAP
70
88
88
88
88
88
70
ENDCHAR
STARTCHAR P
ENCODING 80
SWIDTH 600 0
DWIDTH 6 0
BBX 5 7 1 0
BITMAP
F0
88
88
F0
80
80
80
ENDCHAR
STARTCHAR Q
ENCODING 81
SWIDTH 600 0
DWIDTH 6 0
BBX 5 7 1 0
BITMAP
70
88
88
88
A8
90
68
ENDCHAR
STARTCHAR R
ENCODING 82
SWIDTH 600 0
DWIDTH 6 0
BBX 5 7 1 0
BITMAP
F0
88
88
F0
A0
90
88
ENDCHAR
STARTCHAR S
ENCODING 83
SWIDTH 600 0
DWIDTH 6 0
BBX 5 7 1 0
BITMAP
70
88
80
70
08
88
70
ENDCHAR
STARTCHAR T
ENCODING 84
SWIDTH 600 0
DWIDTH 6 0
BBX 5 7 1 0
BITMAP
F8
20
20
20
20
20
20
ENDCHAR
STARTCHAR U
ENCODING 85
SWIDTH 600 0
DWIDTH 6 0
BBX 5 7 1 0
BITMAP
88
88
88
88
88
88
70
ENDCHAR
STARTCHAR V
ENCODING 86
SWIDTH 600 0
DWIDTH 6 0
BBX 5 7 1 0
BITMAP
88
88
88
50
50
20
20
ENDCHAR
STARTCHAR W
ENCODING 87
SWIDTH 600 0
DWIDTH 6 0
BBX 5 7 1 0
BITMAP
88
88
88
A8
A8
A8
50
ENDCHAR
STARTCHAR X
ENCODING 88
SWIDTH 600 0
DWIDTH 6 0
BBX 5 7 1 0
BITMAP
88
88
50
20
50
88
88
ENDCHAR
STARTCHAR Y
ENCODING 89
SWIDTH 600 0
DWIDTH 6 0
BBX 5 7 1 0
BITMAP
88
88
50
20
20
20
20
ENDCHAR
STARTCHAR Z
ENCODING 90
SWIDTH 600 0
DWIDTH 6 0
BBX 5 7 1 0
BITMAP
F8
08
10
20
40
80
F8
ENDCHAR
STARTCHAR bracketleft
ENCODING 91
SWIDTH 600 0
DWIDTH 6 0
BBX 4 7 2 0
BITMAP
F0
80
80
80
80
80
F0
ENDCHAR
STARTCHAR backslash
ENCODING 92
SWIDTH 600 0
DWIDTH 6 0
BBX 5 5 1 1
BITMAP
80
40
20
10
08
ENDCHAR
STARTCHAR bracketright
ENCODING 93
SWIDTH 600 0
DWIDTH 6 0
BBX 4 7 1 0
BITMAP
F0
10
10
10
10
10
F0
ENDCHAR
STARTCHAR asciicircum
ENCODING 94
SWIDTH 600 0
DWIDTH 6 0
BBX 5 3 1 4
BITMAP
20
50
88
ENDCHAR
STARTCHAR underscore
ENCODING 95
SWIDTH 600 0
DWIDTH 6 0
BBX 5 1 1 0
BITMAP
F8
ENDCHAR
STARTCHAR grave
ENCODING 96
SWIDTH 600 0
DWIDTH 6 0
BBX 3 3 2 4
BITMAP
80
40
20
ENDCHAR
STARTCHAR a
ENCODING 97
SWIDTH 600 0
DWIDTH 6 0
BBX 5 5 1 0
BITMAP
70
08
78
88
78
ENDCHAR
STARTCHAR b
ENCODING 98
SWIDTH 600 0
DWIDTH 6 0
BBX 5 7 1 0
BITMAP
80
80
F0
88
88
88
F0
ENDCHAR
STARTCHAR c
ENCODING 99
SWIDTH 600 0
DWIDTH 6 0
BBX 5 5 1 0
BITMAP
78
80
80
80
78
ENDCHAR
STARTCHAR d
ENCODING 100
SWIDTH 600 0
DWIDTH 6 0
BBX 5 7 1 0
BITMAP
08
08
78
88
88
88
78
ENDCHAR
STARTCHAR e
ENCODING 101
SWIDTH 600 0
DWIDTH 6 0
BBX 5 5 1 0
BITMAP
70
88
F8
80
70
ENDCHAR
STARTCHAR f
ENCODING 102
SWIDTH 600 0
DWIDTH 6 0
BBX 3 7 2 0
BITMAP
20
40
40
E0
40
40
40
ENDCHAR
STARTCHAR g
ENCODING 103
SWIDTH 600 0
DWIDTH 6 0
BBX 5 7 1 -2
BITMAP
78
88
88
88
78
08
70
ENDCHAR
STARTCHAR h
ENCODING 104
SWIDTH 600 0
DWIDTH 6 0
BBX 5 7 1 0
BITMAP
80
80
F0
88
88
88
88
ENDCHAR
STARTCHAR i
ENCODING 105
SWIDTH 600 0
DWIDTH 6 0
BBX 3 7 2 0
BITMAP
40
00
C0
40
40
40
E0
ENDCHAR
STARTCHAR j
ENCODING 106
SWIDTH 600 0
DWIDTH 6 0
BBX 2 9 2 -2
BITMAP
40
00
40
40
40
40
40
40
80
ENDCHAR
STARTCHAR k
ENCODING 107
SWIDTH 600 0
DWIDTH 6 0
BBX 4 7 2 0
BITMAP
80
80
90
A0
C0
A0
90
ENDCHAR
STARTCHAR l
ENCODING 108
SWIDTH 600 0
DWIDTH 6 0
BBX 3 7 2 0
BITMAP
C0
40
40
40
40
40
E0
ENDCHAR
STARTCHAR m
ENCODING 109
SWIDTH 600 0
DWIDTH 6 0
BBX 5 5 1 0
BITMAP
D0
A8
A8
A8
A8
ENDCHAR
STARTCHAR n
ENCODING 110
SWIDTH 600 0
DWIDTH 6 0
BBX 5 5 1 0
BITMAP
F0
88
88
88
88
ENDCHAR
STARTCHAR o
ENCODING 111
SWIDTH 600 0
DWIDTH 6 0
BBX 5 5 1 0
BITMAP
70
88
88
88
70
ENDCHAR
STARTCHAR p
ENCODING 112
SWIDTH 600 0
DWIDTH 6 0
BBX 5 7 1 -2
BITMAP
F0
88
88
88
F0
80
80
ENDCHAR
STARTCHAR q
ENCODING 113
SWIDTH 600 0
DWIDTH 6 0
BBX 5 7 1 -2
BITMAP
78
88
88
88
78
08
08
ENDCHAR
STARTCHAR r
ENCODING 114
SWIDTH 600 0
DWIDTH 6 0
BBX 4 5 2 0
BITMAP
B0
C0
80
80
80
ENDCHAR
STARTCHAR s
ENCODING 115
SWIDTH 600 0
DWIDTH 6 0
BBX 5 5 1 0
BITMAP
78
80
70
08
F0
ENDCHAR
STARTCHAR t
ENCODING 116
SWIDTH 600 0
DWIDTH 6 0
BBX 3 7 2 0
BITMAP
40
40
E0
40
40
40
20
ENDCHAR
STARTCHAR u
ENCODING 117
SWIDTH 600 0
DWIDTH 6 0
BBX 5 5 1 0
BITMAP
88
88
88
88
78
ENDCHAR
STARTCHAR v
ENCODING 118
SWIDTH 600 0
DWIDTH 6 0
BBX 5 5 1 0
BITMAP
88
88
50
50
20
ENDCHAR
STARTCHAR w
ENCODING 119
SWIDTH 600 0
DWIDTH 6 0
BBX 5 5 1 0
BITMAP
88
88
A8
A8
50
ENDCHAR
STARTCHAR x
ENCODING 120
SWIDTH 600 0
DWIDTH 6 0
BBX 5 5 1 0
BITMAP
88
50
20
50
88
ENDCHAR
STARTCHAR y
ENCODING 121
SWIDTH 600 0
DWIDTH 6 0
BBX 5 7 1 -2
BITMAP
88
88
88
88
78
08
70
ENDCHAR
STARTCHAR z
ENCODING 122
SWIDTH 600 0
DWIDTH 6 0
BBX 5 5 1 0
BITMAP
F8
10
20
40
F8
ENDCHAR
STARTCHAR braceleft
ENCODING 123
SWIDTH 600 0
DWIDTH 6 0
BBX 4 7 2 0
BITMAP
30
40
40
80
40
40
30
ENDCHAR
STARTCHAR bar
ENCODING 124
SWIDTH 600 0
DWIDTH 6 0
BBX 1 7 3 0
BITMAP
80
80
80
80
80
80
80
ENDCHAR
STARTCHAR braceright
ENCODING 125
SWIDTH 600 0
DWIDTH 6 0
BBX 4 7 1 0
BITMAP
C0
20
20
10
20
20
C0
ENDCHAR
STARTCHAR asciitilde
ENCODING 126
SWIDTH 600 0
DWIDTH 6 0
BBX 5 3 1 4
BITMAP
40
A8
10
ENDCHAR
STARTCHAR uni00A0
ENCODING 160
SWIDTH 600 0
DWIDTH 6 0
BBX 1 1 0 0
BITMAP
00
ENDCHAR
STARTCHAR exclamdown
ENCODING 161
SWIDTH 600 0
DWIDTH 6 0
BBX 1 7 3 -2
BITMAP
80
00
80
80
80
80
80
ENDCHAR
STARTCHAR cent
ENCODING 162
SWIDTH 600 0
DWIDTH 6 0
BBX 5 7 1 -1
BITMAP
20
78
A0
A0
A0
78
20
ENDCHAR
STARTCHAR sterling
ENCODING 163
SWIDTH 600 0
DWIDTH 6 0
BBX 5 7 1 0
BITMAP
30
48
40
E0
40
40
F8
ENDCHAR
STARTCHAR currency
ENCODING 164
SWIDTH 600 0
DWIDTH 6 0
BBX 5 5 1 0
BITMAP
88
70
50
70
88
ENDCHAR
STARTCHAR yen
ENCODING 165
SWIDTH 600 0
DWIDTH 6 0
BBX 5 7 1 0
BITMAP
88
50
F8
20
F8
20
20
ENDCHAR
STARTCHAR brokenbar
ENCODING 166
SWIDTH 600 0
DWIDTH 6 0
BBX 1 7 3 0
BITMAP
80
80
80
00
80
80
80
ENDCHAR
STARTCHAR section
ENCODING 167
SWIDTH 600 0
DWIDTH 6 0
BBX 5 9 1 -2
BITMAP
70
88
80
70
88
70
08
88
70
ENDCHAR
STARTCHAR dieresis
ENCODING 168
SWIDTH 600 0
DWIDTH 6 0
BBX 3 1 2 6
BITMAP
A0
ENDCHAR
STARTCHAR copyright
ENCODING 169
SWIDTH 600 0
DWIDTH 6 0
BBX 5 9 1 -2
BITMAP
70
88
A8
D8
C8
D8
A8
88
70
ENDCHAR
STARTCHAR ordfeminine
ENCODING 170
SWIDTH 600 0
DWIDTH 6 0
BBX 5 7 1 0
BITMAP
70
08
78
88
78
00
F8
ENDCHAR
STARTCHAR guillemotleft
ENCODING 171
SWIDTH 600 0
DWIDTH 6 0
BBX 5 3 1 1
BITMAP
48
90
48
ENDCHAR
STARTCHAR logicalnot
ENCODING 172
SWIDTH 600 0
DWIDTH 6 0
BBX 5 3 1 2
BITMAP
F8
08
08
ENDCHAR
STARTCHAR registered
ENCODING 174
SWIDTH 600 0
DWIDTH 6 0
BBX 5 9 1 -2
BITMAP
70
88
E8
D8
D8
E8
D8
88
70
ENDCHAR
STARTCHAR macron
ENCODING 175
SWIDTH 600 0
DWIDTH 6 0
BBX 3 1 2 6
BITMAP
E0
ENDCHAR
STARTCHAR degree
ENCODING 176
SWIDTH 600 0
DWIDTH 6 0
BBX 4 3 2 4
BITMAP
60
90
60
ENDCHAR
STARTCHAR plusminus
ENCODING 177
SWIDTH 600 0
DWIDTH 6 0
BBX 5 7 1 0
BITMAP
20
20
F8
20
20
00
F8
ENDCHAR
STARTCHAR twosuperior
ENCODING 178
SWIDTH 600 0
DWIDTH 6 0
BBX 3 5 2 2
BITMAP
C0
20
40
80
E0
ENDCHAR
STARTCHAR threesuperior
ENCODING 179
SWIDTH 600 0
DWIDTH 6 0
BBX 3 5 2 2
BITMAP
C0
20
C0
20
C0
ENDCHAR
STARTCHAR acute
ENCODING 180
SWIDTH 600 0
DWIDTH 6 0
BBX 3 3 2 4
BITMAP
20
40
80
ENDCHAR
STARTCHAR mu
ENCODING 181
SWIDTH 600 0
DWIDTH 6 0
BBX 5 7 1 -2
BITMAP
90
90
90
90
E8
80
80
ENDCHAR
STARTCHAR paragraph
ENCODING 182
SWIDTH 600 0
DWIDTH 6 0
BBX 5 7 1 0
BITMAP
68
A8
A8
68
28
28
28
ENDCHAR
STARTCHAR periodcentered
ENCODING 183
SWIDTH 600 0
DWIDTH 6 0
BBX 1 1 3 3
BITMAP
80
ENDCHAR
STARTCHAR cedilla
ENCODING 184
SWIDTH 600 0
DWIDTH 6 0
BBX 2 3 3 -2
BITMAP
80
40
80
ENDCHAR
STARTCHAR onesuperior
ENCODING 185
SWIDTH 600 0
DWIDTH 6 0
BBX 3 5 2 2
BITMAP
40
C0
40
40
E0
ENDCHAR
STARTCHAR ordmasculine
ENCODING 186
SWIDTH 600 0
DWIDTH 6 0
BBX 5 7 1 0
BITMAP
70
88
88
88
70
00
F8
ENDCHAR
STARTCHAR guillemotright
ENCODING 187
SWIDTH 600 0
DWIDTH 6 0
BBX 5 3 1 1
BITMAP
90
48
90
ENDCHAR
STARTCHAR onequarter
ENCODING 188
SWIDTH 600 0
DWIDTH 6 0
BBX 4 9 2 -2
BITMAP
80
80
80
80
90
30
50
70
10
ENDCHAR
STARTCHAR onehalf
ENCODING 189
SWIDTH 600 0
DWIDTH 6 0
BBX 5 9 1 -2
BITMAP
80
80
80
80
B0
08
10
20
38
ENDCHAR
STARTCHAR threequarters
ENCODING 190
SWIDTH 600 0
DWIDTH 6 0
BBX 5 9 1 -2
BITMAP
C0
20
C0
20
C8
18
28
38
08
ENDCHAR
STARTCHAR questiondown
ENCODING 191
SWIDTH 600 0
DWIDTH 6 0
BBX 5 7 1 -2
BITMAP
20
00
20
20
40
88
70
ENDCHAR
STARTCHAR Agrave
ENCODING 192
SWIDTH 600 0
DWIDTH 6 0
BBX 5 7 1 0
BITMAP
40
20
70
88
F8
88
88
ENDCHAR
STARTCHAR Aacute
ENCODING 193
SWIDTH 600 0
DWIDTH 6 0
BBX 5 7 1 0
BITMAP
10
20
70
88
F8
88
88
ENDCHAR
STARTCHAR Acircumflex
ENCODING 194
SWIDTH 600 0
DWIDTH 6 0
BBX 5 7 1 0
BITMAP
20
50
70
88
F8
88
88
ENDCHAR
STARTCHAR Atilde
ENCODING 195
SWIDTH 600 0
DWIDTH 6 0
BBX 5 7 1 0
BITMAP
28
50
70
88
F8
88
88
ENDCHAR
STARTCHAR Adieresis
ENCODING 196
SWIDTH 600 0
DWIDTH 6 0
BBX 5 7 1 0
BITMAP
50
00
70
88
F8
88
88
ENDCHAR
STARTCHAR Aring
ENCODING 197
SWIDTH 600 0
DWIDTH 6 0
BBX 5 7 1 0
BITMAP
20
00
70
88
F8
88
88
ENDCHAR
STARTCHAR AE
ENCODING 198
SWIDTH 600 0
DWIDTH 6 0
BBX 5 7 1 0
BITMAP
78
A0
A0
B0
E0
A0
B8
ENDCHAR
STARTCHAR Ccedilla
ENCODING 199
SWIDTH 600 0
DWIDTH 6 0
BBX 5 9 1 -2
BITMAP
70
88
80
80
80
88
70
20
40
ENDCHAR
STARTCHAR Egrave
ENCODING 200
SWIDTH 600 0
DWIDTH 6 0
BBX 5 7 1 0
BITMAP
40
20
F8
80
F0
80
F8
ENDCHAR
STARTCHAR Eacute
ENCODING 201
SWIDTH 600 0
DWIDTH 6 0
BBX 5 7 1 0
BITMAP
10
20
F8
80
F0
80
F8
ENDCHAR
STARTCHAR Ecircumflex
ENCODING 202
SWIDTH 600 0
DWIDTH 6 0
BBX 5 7 1 0
BITMAP
20
50
F8
80
F0
80
F8
ENDCHAR
STARTCHAR Edieresis
ENCODING 203
SWIDTH 600 0
DWIDTH 6 0
BBX 5 7 1 0
BITMAP
50
00
F8
80
F0
80
F8
ENDCHAR
STARTCHAR Igrave
ENCODING 204
SWIDTH 600 0
DWIDTH 6 0
BBX 3 7 2 0
BITMAP
80
40
00
E0
40
40
E0
ENDCHAR
STARTCHAR Iacute
ENCODING 205
SWIDTH 600 0
DWIDTH 6 0
BBX 3 7 2 0
BITMAP
20
40
00
E0
40
40
E0
ENDCHAR
STARTCHAR Icircumflex
ENCODING 206
SWIDTH 600 0
DWIDTH 6 0
BBX 3 7 2 0
BITMAP
40
A0
00
E0
40
40
E0
ENDCHAR
STARTCHAR Idieresis
ENCODING 207
SWIDTH 600 0
DWIDTH 6 0
BBX 3 7 2 0
BITMAP
A0
00
E0
40
40
40
E0
ENDCHAR
STARTCHAR Eth
ENCODING 208
SWIDTH 600 0
DWIDTH 6 0
BBX 5 7 1 0
BITMAP
70
48
48
E8
48
48
70
ENDCHAR
STARTCHAR Ntilde
ENCODING 209
SWIDTH 600 0
DWIDTH 6 0
BBX 5 7 1 0
BITMAP
28
50
00
C8
A8
98
88
ENDCHAR
STARTCHAR Ograve
ENCODING 210
SWIDTH 600 0
DWIDTH 6 0
BBX 5 7 1 0
BITMAP
40
20
70
88
88
88
70
ENDCHAR
STARTCHAR Oacute
ENCODING 211
SWIDTH 600 0
DWIDTH 6 0
BBX 5 7 1 0
BITMAP
10
20
70
88
88
88
70
ENDCHAR
STARTCHAR Ocircumflex
ENCODING 212
SWIDTH 600 0
DWIDTH 6 0
BBX 5 7 1 0
BITMAP
20
50
70
88
88
88
70
ENDCHAR
STARTCHAR Otilde
ENCODING 213
SWIDTH 600 0
DWIDTH 6 0
BBX 5 7 1 0
BITMAP
28
50
70
88
88
88
70
ENDCHAR
STARTCHAR Odieresis
ENCODING 214
SWIDTH 600 0
DWIDTH 6 0
BBX 5 7 1 0
BITMAP
50
00
70
88
88
88
70
ENDCHAR
STARTCHAR multiply
ENCODING 215
SWIDTH 600 0
DWIDTH 6 0
BBX 5 5 1 1
BITMAP
88
50
20
50
88
ENDCHAR
STARTCHAR Oslash
ENCODING 216
SWIDTH 600 0
DWIDTH 6 0
BBX 5 7 1 0
BITMAP
70
88
98
A8
C8
88
70
ENDCHAR
STARTCHAR Ugrave
ENCODING 217
SWIDTH 600 0
DWIDTH 6 0
BBX 5 7 1 0
BITMAP
40
20
88
88
88
88
70
ENDCHAR
STARTCHAR Uacute
ENCODING 218
SWIDTH 600 0
DWIDTH 6 0
BBX 5 7 1 0
BITMAP
10
20
88
88
88
88
70
ENDCHAR
STARTCHAR Ucircumflex
ENCODING 219
SWIDTH 600 0
DWIDTH 6 0
BBX 5 7 1 0
BITMAP
20
50
00
88
88
88
70
ENDCHAR
STARTCHAR Udieresis
ENCODING 220
SWIDTH 600 0
DWIDTH 6 0
BBX 5 7 1 0
BITMAP
50
00
88
88
88
88
70
ENDCHAR
STARTCHAR Yacute
ENCODING 221
SWIDTH 600 0
DWIDTH 6 0
BBX 5 7 1 0
BITMAP
10
20
88
50
20
20
20
ENDCHAR
STARTCHAR Thorn
ENCODING 222
SWIDTH 600 0
DWIDTH 6 0
BBX 5 7 1 0
BITMAP
80
F0
88
88
F0
80
80
ENDCHAR
STARTCHAR germandbls
ENCODING 223
SWIDTH 600 0
DWIDTH 6 0
BBX 5 9 1 -2
BITMAP
60
90
90
B0
88
88
B0
80
80
ENDCHAR
STARTCHAR agrave
ENCODING 224
SWIDTH 600 0
DWIDTH 6 0
BBX 5 7 1 0
BITMAP
40
20
70
08
78
88
78
ENDCHAR
STARTCHAR aacute
ENCODING 225
SWIDTH 600 0
DWIDTH 6 0
BBX 5 7 1 0
BITMAP
10
20
70
08
78
88
78
ENDCHAR
STARTCHAR acircumflex
ENCODING 226
SWIDTH 600 0
DWIDTH 6 0
BBX 5 7 1 0
BITMAP
20
50
70
08
78
88
78
ENDCHAR
STARTCHAR atilde
ENCODING 227
SWIDTH 600 0
DWIDTH 6 0
BBX 5 7 1 0
BITMAP
28
50
70
08
78
88
78
ENDCHAR
STARTCHAR adieresis
ENCODING 228
SWIDTH 600 0
DWIDTH 6 0
BBX 5 7 1 0
BITMAP
50
00
70
08
78
88
78
ENDCHAR
STARTCHAR aring
ENCODING 229
SWIDTH 600 0
DWIDTH 6 0
BBX 5 7 1 0
BITMAP
20
00
70
08
78
88
78
ENDCHAR
STARTCHAR ae
ENCODING 230
SWIDTH 600 0
DWIDTH 6 0
BBX 5 5 1 0
BITMAP
50
28
78
A0
70
ENDCHAR
STARTCHAR ccedilla
ENCODING 231
SWIDTH 600 0
DWIDTH 6 0
BBX 5 7 1 -2
BITMAP
78
80
80
80
78
10
20
ENDCHAR
STARTCHAR egrave
ENCODING 232
SWIDTH 600 0
DWIDTH 6 0
BBX 5 7 1 0
BITMAP
40
20
70
88
F8
80
70
ENDCHAR
STARTCHAR eacute
ENCODING 233
SWIDTH 600 0
DWIDTH 6 0
BBX 5 7 1 0
BITMAP
10
20
70
88
F8
80
70
ENDCHAR
STARTCHAR ecircumflex
ENCODING 234
SWIDTH 600 0
DWIDTH 6 0
BBX 5 7 1 0
BITMAP
20
50
70
88
F8
80
70
ENDCHAR
STARTCHAR edieresis
ENCODING 235
SWIDTH 600 0
DWIDTH 6 0
BBX 5 7 1 0
BITMAP
50
00
70
88
F8
80
70
ENDCHAR
STARTCHAR igrave
ENCODING 236
SWIDTH 600 0
DWIDTH 6 0
BBX 3 7 2 0
BITMAP
80
40
00
C0
40
40
E0
ENDCHAR
STARTCHAR iacute
ENCODING 237
SWIDTH 600 0
DWIDTH 6 0
BBX 3 7 2 0
BITMAP
20
40
00
C0
40
40
E0
ENDCHAR
STARTCHAR icircumflex
ENCODING 238
SWIDTH 600 0
DWIDTH 6 0
BBX 3 7 2 0
BITMAP
40
A0
00
C0
40
40
E0
ENDCHAR
STARTCHAR idieresis
ENCODING 239
SWIDTH 600 0
DWIDTH 6 0
BBX 3 7 2 0
BITMAP
A0
00
C0
40
40
40
E0
ENDCHAR
STARTCHAR eth
ENCODING 240
SWIDTH 600 0
DWIDTH 6 0
BBX 5 7 1 0
BITMAP
D0
20
50
08
78
88
70
ENDCHAR
STARTCHAR ntilde
ENCODING 241
SWIDTH 600 0
DWIDTH 6 0
BBX 5 7 1 0
BITMAP
28
50
F0
88
88
88
88
ENDCHAR
STARTCHAR ograve
ENCODING 242
SWIDTH 600 0
DWIDTH 6 0
BBX 5 7 1 0
BITMAP
40
20
00
70
88
88
70
ENDCHAR
STARTCHAR oacute
ENCODING 243
SWIDTH 600 0
DWIDTH 6 0
BBX 5 7 1 0
BITMAP
10
20
00
70
88
88
70
ENDCHAR
STARTCHAR ocircumflex
ENCODING 244
SWIDTH 600 0
DWIDTH 6 0
BBX 5 7 1 0
BITMAP
20
50
00
70
88
88
70
ENDCHAR
STARTCHAR otilde
ENCODING 245
SWIDTH 600 0
DWIDTH 6 0
BBX 5 7 1 0
BITMAP
28
50
00
70
88
88
70
ENDCHAR
STARTCHAR odieresis
ENCODING 246
SWIDTH 600 0
DWIDTH 6 0
BBX 5 6 1 0
BITMAP
50
00
70
88
88
70
ENDCHAR
STARTCHAR divide
ENCODING 247
SWIDTH 600 0
DWIDTH 6 0
BBX 5 5 1 1
BITMAP
20
00
F8
00
20
ENDCHAR
STARTCHAR oslash
ENCODING 248
SWIDTH 600 0
DWIDTH 6 0
BBX 5 5 1 0
BITMAP
68
90
A8
48
B0
ENDCHAR
STARTCHAR ugrave
ENCODING 249
SWIDTH 600 0
DWIDTH 6 0
BBX 5 7 1 0
BITMAP
40
20
88
88
88
88
78
ENDCHAR
STARTCHAR uacute
ENCODING 250
SWIDTH 600 0
DWIDTH 6 0
BBX 5 7 1 0
BITMAP
10
20
88
88
88
88
78
ENDCHAR
STARTCHAR ucircumflex
ENCODING 251
SWIDTH 600 0
DWIDTH 6 0
BBX 5 7 1 0
BITMAP
20
50
00
88
88
88
78
ENDCHAR
STARTCHAR udieresis
ENCODING 252
SWIDTH 600 0
DWIDTH 6 0
BBX 5 6 1 0
BITMAP
50
00
88
88
88
78
ENDCHAR
STARTCHAR yacute
ENCODING 253
SWIDTH 600 0
DWIDTH 6 0
BBX 5 9 1 -2
BITMAP
10
20
88
88
88
88
78
08
70
ENDCHAR
STARTCHAR thorn
ENCODING 254
SWIDTH 600 0
DWIDTH 6 0
BBX 5 9 1 -2
BITMAP
80
80
F0
88
88
88
F0
80
80
ENDCHAR
STARTCHAR ydieresis
ENCODING 255
SWIDTH 600 0
DWIDTH 6 0
BBX 5 9 1 -2
BITMAP
50
00
88
88
88
88
78
08
70
ENDCHAR
STARTCHAR Amacron
ENCODING 256
SWIDTH 600 0
DWIDTH 6 0
BBX 5 7 1 0
BITMAP
70
00
70
88
F8
88
88
ENDCHAR
STARTCHAR amacron
ENCODING 257
SWIDTH 600 0
DWIDTH 6 0
BBX 5 7 1 0
BITMAP
70
00
70
08
78
88
78
ENDCHAR
STARTCHAR Aogonek
ENCODING 260
SWIDTH 600 0
DWIDTH 6 0
BBX 5 9 1 -2
BITMAP
20
50
88
88
F8
88
88
10
08
ENDCHAR
STARTCHAR aogonek
ENCODING 261
SWIDTH 600 0
DWIDTH 6 0
BBX 5 7 1 -2
BITMAP
70
08
78
88
78
10
08
ENDCHAR
STARTCHAR Cacute
ENCODING 262
SWIDTH 600 0
DWIDTH 6 0
BBX 5 7 1 0
BITMAP
10
20
70
88
80
88
70
ENDCHAR
STARTCHAR cacute
ENCODING 263
SWIDTH 600 0
DWIDTH 6 0
BBX 5 7 1 0
BITMAP
10
20
78
80
80
80
78
ENDCHAR
STARTCHAR Ccircumflex
ENCODING 264
SWIDTH 600 0
DWIDTH 6 0
BBX 5 7 1 0
BITMAP
20
50
70
88
80
88
70
ENDCHAR
STARTCHAR ccircumflex
ENCODING 265
SWIDTH 600 0
DWIDTH 6 0
BBX 5 7 1 0
BITMAP
20
50
78
80
80
80
78
ENDCHAR
STARTCHAR Cdotaccent
ENCODING 266
SWIDTH 600 0
DWIDTH 6 0
BBX 5 7 1 0
BITMAP
20
00
70
88
80
88
70
ENDCHAR
STARTCHAR cdotaccent
ENCODING 267
SWIDTH 600 0
DWIDTH 6 0
BBX 5 7 1 0
BITMAP
20
00
78
80
80
80
78
ENDCHAR
STARTCHAR Ccaron
ENCODING 268
SWIDTH 600 0
DWIDTH 6 0
BBX 5 7 1 0
BITMAP
50
20
70
88
80
88
70
ENDCHAR
STARTCHAR ccaron
ENCODING 269
SWIDTH 600 0
DWIDTH 6 0
BBX 5 7 1 0
BITMAP
50
20
78
80
80
80
78
ENDCHAR
STARTCHAR Dcaron
ENCODING 270
SWIDTH 600 0
DWIDTH 6 0
BBX 5 7 1 0
BITMAP
50
20
F0
88
88
88
F0
ENDCHAR
STARTCHAR dcaron
ENCODING 271
SWIDTH 600 0
DWIDTH 6 0
BBX 5 7 1 0
BITMAP
28
28
60
A0
A0
A0
60
ENDCHAR
STARTCHAR Dcroat
ENCODING 272
SWIDTH 600 0
DWIDTH 6 0
BBX 5 7 1 0
BITMAP
70
48
48
E8
48
48
70
ENDCHAR
STARTCHAR dcroat
ENCODING 273
SWIDTH 600 0
DWIDTH 6 0
BBX 5 7 1 0
BITMAP
10
38
10
70
90
90
70
ENDCHAR
STARTCHAR Emacron
ENCODING 274
SWIDTH 600 0
DWIDTH 6 0
BBX 5 7 1 0
BITMAP
70
00
F8
80
F0
80
F8
ENDCHAR
STARTCHAR emacron
ENCODING 275
SWIDTH 600 0
DWIDTH 6 0
BBX 5 7 1 0
BITMAP
70
00
70
88
F8
80
70
ENDCHAR
STARTCHAR Edotaccent
ENCODING 278
SWIDTH 600 0
DWIDTH 6 0
BBX 5 7 1 0
BITMAP
20
00
F8
80
F0
80
F8
ENDCHAR
STARTCHAR edotaccent
ENCODING 279
SWIDTH 600 0
DWIDTH 6 0
BBX 5 7 1 0
BITMAP
20
00
70
88
F8
80
70
ENDCHAR
STARTCHAR Eogonek
ENCODING 280
SWIDTH 600 0
DWIDTH 6 0
BBX 5 9 1 -2
BITMAP
F8
80
80
F0
80
80
F8
10
08
ENDCHAR
STARTCHAR eogonek
ENCODING 281
SWIDTH 600 0
DWIDTH 6 0
BBX 5 7 1 -2
BITMAP
70
88
F8
80
70
10
08
ENDCHAR
STARTCHAR Ecaron
ENCODING 282
SWIDTH 600 0
DWIDTH 6 0
BBX 5 7 1 0
BITMAP
50
20
F8
80
F0
80
F8
ENDCHAR
STARTCHAR ecaron
ENCODING 283
SWIDTH 600 0
DWIDTH 6 0
BBX 5 7 1 0
BITMAP
50
20
70
88
F8
80
70
ENDCHAR
STARTCHAR Gcircumflex
ENCODING 284
SWIDTH 600 0
DWIDTH 6 0
BBX 5 7 1 0
BITMAP
20
50
78
80
98
88
78
ENDCHAR
STARTCHAR gcircumflex
ENCODING 285
SWIDTH 600 0
DWIDTH 6 0
BBX 5 9 1 -2
BITMAP
20
50
78
88
88
88
78
08
70
ENDCHAR
STARTCHAR Gdotaccent
ENCODING 288
SWIDTH 600 0
DWIDTH 6 0
BBX 5 7 1 0
BITMAP
20
00
78
80
98
88
78
ENDCHAR
STARTCHAR gdotaccent
ENCODING 289
SWIDTH 600 0
DWIDTH 6 0
BBX 5 9 1 -2
BITMAP
20
00
78
88
88
88
78
08
70
ENDCHAR
STARTCHAR Hbar
ENCODING 294
SWIDTH 600 0
DWIDTH 6 0
BBX 5 7 1 0
BITMAP
88
F8
88
F8
88
88
88
ENDCHAR
STARTCHAR hbar
ENCODING 295
SWIDTH 600 0
DWIDTH 6 0
BBX 5 7 1 0
BITMAP
40
E0
40
70
48
48
48
ENDCHAR
STARTCHAR Itilde
ENCODING 296
SWIDTH 600 0
DWIDTH 6 0
BBX 4 7 2 0
BITMAP
50
A0
00
E0
40
40
E0
ENDCHAR
STARTCHAR itilde
ENCODING 297
SWIDTH 600 0
DWIDTH 6 0
BBX 4 7 2 0
BITMAP
50
A0
00
C0
40
40
E0
ENDCHAR
STARTCHAR Imacron
ENCODING 298
SWIDTH 600 0
DWIDTH 6 0
BBX 3 7 2 0
BITMAP
E0
00
E0
40
40
40
E0
ENDCHAR
STARTCHAR imacron
ENCODING 299
SWIDTH 600 0
DWIDTH 6 0
BBX 3 7 2 0
BITMAP
E0
00
C0
40
40
40
E0
ENDCHAR
STARTCHAR Iogonek
ENCODING 302
SWIDTH 600 0
DWIDTH 6 0
BBX 3 9 2 -2
BITMAP
E0
40
40
40
40
40
E0
40
20
ENDCHAR
STARTCHAR iogonek
ENCODING 303
SWIDTH 600 0
DWIDTH 6 0
BBX 3 9 2 -2
BITMAP
40
00
C0
40
40
40
E0
40
20
ENDCHAR
STARTCHAR Idotaccent
ENCODING 304
SWIDTH 600 0
DWIDTH 6 0
BBX 3 7 2 0
BITMAP
40
00
E0
40
40
40
E0
ENDCHAR
STARTCHAR dotlessi
ENCODING 305
SWIDTH 600 0
DWIDTH 6 0
BBX 3 5 2 0
BITMAP
C0
40
40
40
E0
ENDCHAR
STARTCHAR IJ
ENCODING 306
SWIDTH 600 0
DWIDTH 6 0
BBX 5 7 1 0
BITMAP
88
88
88
88
88
A8
90
ENDCHAR
STARTCHAR ij
ENCODING 307
SWIDTH 600 0
DWIDTH 6 0
BBX 5 9 1 -2
BITMAP
48
00
C8
48
48
48
E8
08
10
ENDCHAR
STARTCHAR Jcircumflex
ENCODING 308
SWIDTH 600 0
DWIDTH 6 0
BBX 5 7 1 0
BITMAP
10
28
00
10
10
90
60
ENDCHAR
STARTCHAR jcircumflex
ENCODING 309
SWIDTH 600 0
DWIDTH 6 0
BBX 3 9 2 -2
BITMAP
40
A0
00
40
40
40
40
40
80
ENDCHAR
STARTCHAR kgreenlandic
ENCODING 312
SWIDTH 600 0
DWIDTH 6 0
BBX 5 5 1 0
BITMAP
88
90
E0
90
88
ENDCHAR
STARTCHAR Lcaron
ENCODING 317
SWIDTH 600 0
DWIDTH 6 0
BBX 5 7 1 0
BITMAP
90
90
A0
80
80
80
F8
ENDCHAR
STARTCHAR lcaron
ENCODING 318
SWIDTH 600 0
DWIDTH 6 0
BBX 5 7 1 0
BITMAP
C8
48
50
40
40
40
E0
ENDCHAR
STARTCHAR Ldot
ENCODING 319
SWIDTH 600 0
DWIDTH 6 0
BBX 5 7 1 0
BITMAP
80
80
80
88
80
80
F8
ENDCHAR
STARTCHAR ldot
ENCODING 320
SWIDTH 600 0
DWIDTH 6 0
BBX 5 7 1 0
BITMAP
C0
40
40
48
40
40
E0
ENDCHAR
STARTCHAR Lslash
ENCODING 321
SWIDTH 600 0
DWIDTH 6 0
BBX 5 7 1 0
BITMAP
40
40
60
C0
40
40
78
ENDCHAR
STARTCHAR lslash
ENCODING 322
SWIDTH 600 0
DWIDTH 6 0
BBX 3 7 2 0
BITMAP
C0
40
60
C0
40
40
E0
ENDCHAR
STARTCHAR Nacute
ENCODING 323
SWIDTH 600 0
DWIDTH 6 0
BBX 5 7 1 0
BITMAP
10
20
88
C8
A8
98
88
ENDCHAR
STARTCHAR nacute
ENCODING 324
SWIDTH 600 0
DWIDTH 6 0
BBX 5 7 1 0
BITMAP
10
20
F0
88
88
88
88
ENDCHAR
STARTCHAR Ncaron
ENCODING 327
SWIDTH 600 0
DWIDTH 6 0
BBX 5 7 1 0
BITMAP
50
20
88
C8
A8
98
88
ENDCHAR
STARTCHAR ncaron
ENCODING 328
SWIDTH 600 0
DWIDTH 6 0
BBX 5 7 1 0
BITMAP
50
20
F0
88
88
88
88
ENDCHAR
STARTCHAR napostrophe
ENCODING 329
SWIDTH 600 0
DWIDTH 6 0
BBX 5 7 1 0
BITMAP
80
80
B0
28
28
28
28
ENDCHAR
STARTCHAR Eng
ENCODING 330
SWIDTH 600 0
DWIDTH 6 0
BBX 5 9 1 -2
BITMAP
88
88
C8
A8
98
88
88
08
70
ENDCHAR
STARTCHAR eng
ENCODING 331
SWIDTH 600 0
DWIDTH 6 0
BBX 5 7 1 -2
BITMAP
F0
88
88
88
88
08
70
ENDCHAR
STARTCHAR Omacron
ENCODING 332
SWIDTH 600 0
DWIDTH 6 0
BBX 5 7 1 0
BITMAP
70
00
70
88
88
88
70
ENDCHAR
STARTCHAR omacron
ENCODING 333
SWIDTH 600 0
DWIDTH 6 0
BBX 5 6 1 0
BITMAP
70
00
70
88
88
70
ENDCHAR
STARTCHAR OE
ENCODING 338
SWIDTH 600 0
DWIDTH 6 0
BBX 5 7 1 0
BITMAP
78
A0
A0
B0
A0
A0
78
ENDCHAR
STARTCHAR oe
ENCODING 339
SWIDTH 600 0
DWIDTH 6 0
BBX 5 5 1 0
BITMAP
50
A8
B8
A0
58
ENDCHAR
STARTCHAR Racute
ENCODING 340
SWIDTH 600 0
DWIDTH 6 0
BBX 5 7 1 0
BITMAP
10
20
F0
88
F0
90
88
ENDCHAR
STARTCHAR racute
ENCODING 341
SWIDTH 600 0
DWIDTH 6 0
BBX 4 7 2 0
BITMAP
10
20
B0
C0
80
80
80
ENDCHAR
STARTCHAR Rcaron
ENCODING 344
SWIDTH 600 0
DWIDTH 6 0
BBX 5 7 1 0
BITMAP
50
20
F0
88
F0
90
88
ENDCHAR
STARTCHAR rcaron
ENCODING 345
SWIDTH 600 0
DWIDTH 6 0
BBX 4 7 2 0
BITMAP
50
20
B0
C0
80
80
80
ENDCHAR
STARTCHAR sacute
ENCODING 347
SWIDTH 600 0
DWIDTH 6 0
BBX 5 7 1 0
BITMAP
10
20
78
80
70
08
F0
ENDCHAR
STARTCHAR Scedilla
ENCODING 350
SWIDTH 600 0
DWIDTH 6 0
BBX 5 9 1 -2
BITMAP
70
88
80
70
08
88
70
20
40
ENDCHAR
STARTCHAR scedilla
ENCODING 351
SWIDTH 600 0
DWIDTH 6 0
BBX 5 7 1 -2
BITMAP
78
80
70
08
F0
20
40
ENDCHAR
STARTCHAR scaron
ENCODING 353
SWIDTH 600 0
DWIDTH 6 0
BBX 5 7 1 0
BITMAP
50
20
78
80
70
08
F0
ENDCHAR
STARTCHAR uni0162
ENCODING 354
SWIDTH 600 0
DWIDTH 6 0
BBX 5 9 1 -2
BITMAP
F8
20
20
20
20
20
20
10
20
ENDCHAR
STARTCHAR uni0163
ENCODING 355
SWIDTH 600 0
DWIDTH 6 0
BBX 4 9 2 -2
BITMAP
40
40
E0
40
40
50
20
20
40
ENDCHAR
STARTCHAR Tcaron
ENCODING 356
SWIDTH 600 0
DWIDTH 6 0
BBX 5 7 1 0
BITMAP
50
20
F8
20
20
20
20
ENDCHAR
STARTCHAR tcaron
ENCODING 357
SWIDTH 600 0
DWIDTH 6 0
BBX 5 7 1 0
BITMAP
48
48
E0
40
40
40
20
ENDCHAR
STARTCHAR Umacron
ENCODING 362
SWIDTH 600 0
DWIDTH 6 0
BBX 5 7 1 0
BITMAP
70
00
88
88
88
88
70
ENDCHAR
STARTCHAR umacron
ENCODING 363
SWIDTH 600 0
DWIDTH 6 0
BBX 5 6 1 0
BITMAP
70
00
88
88
88
78
ENDCHAR
STARTCHAR Uring
ENCODING 366
SWIDTH 600 0
DWIDTH 6 0
BBX 5 7 1 0
BITMAP
20
00
88
88
88
88
70
ENDCHAR
STARTCHAR uring
ENCODING 367
SWIDTH 600 0
DWIDTH 6 0
BBX 5 7 1 0
BITMAP
20
00
88
88
88
88
78
ENDCHAR
STARTCHAR Uogonek
ENCODING 370
SWIDTH 600 0
DWIDTH 6 0
BBX 5 9 1 -2
BITMAP
88
88
88
88
88
88
70
20
10
ENDCHAR
STARTCHAR uogonek
ENCODING 371
SWIDTH 600 0
DWIDTH 6 0
BBX 5 7 1 -2
BITMAP
88
88
88
88
78
10
08
ENDCHAR
STARTCHAR Wcircumflex
ENCODING 372
SWIDTH 600 0
DWIDTH 6 0
BBX 5 7 1 0
BITMAP
20
50
00
88
A8
A8
50
ENDCHAR
STARTCHAR wcircumflex
ENCODING 373
SWIDTH 600 0
DWIDTH 6 0
BBX 5 7 1 0
BITMAP
20
50
00
88
88
A8
50
ENDCHAR
STARTCHAR Ycircumflex
ENCODING 374
SWIDTH 600 0
DWIDTH 6 0
BBX 5 7 1 0
BITMAP
20
50
00
88
50
20
20
ENDCHAR
STARTCHAR ycircumflex
ENCODING 375
SWIDTH 600 0
DWIDTH 6 0
BBX 5 9 1 -2
BITMAP
20
50
00
88
88
88
78
08
70
ENDCHAR
STARTCHAR Ydieresis
ENCODING 376
SWIDTH 600 0
DWIDTH 6 0
BBX 5 7 1 0
BITMAP
50
00
88
50
20
20
20
ENDCHAR
STARTCHAR Zacute
ENCODING 377
SWIDTH 600 0
DWIDTH 6 0
BBX 5 7 1 0
BITMAP
10
20
F8
08
70
80
F8
ENDCHAR
STARTCHAR zacute
ENCODING 378
SWIDTH 600 0
DWIDTH 6 0
BBX 5 7 1 0
BITMAP
10
20
F8
10
20
40
F8
ENDCHAR
STARTCHAR Zdotaccent
ENCODING 379
SWIDTH 600 0
DWIDTH 6 0
BBX 5 7 1 0
BITMAP
20
00
F8
08
70
80
F8
ENDCHAR
STARTCHAR zdotaccent
ENCODING 380
SWIDTH 600 0
DWIDTH 6 0
BBX 5 7 1 0
BITMAP
20
00
F8
10
20
40
F8
ENDCHAR
STARTCHAR Zcaron
ENCODING 381
SWIDTH 600 0
DWIDTH 6 0
BBX 5 7 1 0
BITMAP
50
20
F8
08
70
80
F8
ENDCHAR
STARTCHAR zcaron
ENCODING 382
SWIDTH 600 0
DWIDTH 6 0
BBX 5 7 1 0
BITMAP
50
20
F8
10
20
40
F8
ENDCHAR
STARTCHAR longs
ENCODING 383
SWIDTH 600 0
DWIDTH 6 0
BBX 2 7 3 0
BITMAP
40
80
80
80
80
80
80
ENDCHAR
STARTCHAR uni0188
ENCODING 392
SWIDTH 600 0
DWIDTH 6 0
BBX 5 7 1 0
BITMAP
18
10
78
80
80
80
78
ENDCHAR
STARTCHAR uni018E
ENCODING 398
SWIDTH 600 0
DWIDTH 6 0
BBX 5 7 1 0
BITMAP
F8
08
08
78
08
08
F8
ENDCHAR
STARTCHAR uni018F
ENCODING 399
SWIDTH 600 0
DWIDTH 6 0
BBX 5 7 1 0
BITMAP
70
88
08
F8
88
88
70
ENDCHAR
STARTCHAR florin
ENCODING 402
SWIDTH 600 0
DWIDTH 6 0
BBX 3 9 2 -2
BITMAP
20
40
40
E0
40
40
40
40
80
ENDCHAR
STARTCHAR uni0199
ENCODING 409
SWIDTH 600 0
DWIDTH 6 0
BBX 4 7 2 0
BITMAP
60
80
90
A0
C0
A0
90
ENDCHAR
STARTCHAR uni019B
ENCODING 411
SWIDTH 600 0
DWIDTH 6 0
BBX 5 7 1 0
BITMAP
C0
20
70
20
50
50
88
ENDCHAR
STARTCHAR uni019E
ENCODING 414
SWIDTH 600 0
DWIDTH 6 0
BBX 5 7 1 -2
BITMAP
F0
88
88
88
88
08
08
ENDCHAR
STARTCHAR uni01A5
ENCODING 421
SWIDTH 600 0
DWIDTH 6 0
BBX 5 9 1 -2
BITMAP
60
80
F0
88
88
88
F0
80
80
ENDCHAR
STARTCHAR uni01A7
ENCODING 423
SWIDTH 600 0
DWIDTH 6 0
BBX 5 7 1 0
BITMAP
70
88
08
70
80
88
70
ENDCHAR
STARTCHAR uni01A8
ENCODING 424
SWIDTH 600 0
DWIDTH 6 0
BBX 5 5 1 0
BITMAP
70
08
70
80
70
ENDCHAR
STARTCHAR uni01AB
ENCODING 427
SWIDTH 600 0
DWIDTH 6 0
BBX 3 8 2 -1
BITMAP
40
40
E0
40
40
40
20
C0
ENDCHAR
STARTCHAR uni01AD
ENCODING 429
SWIDTH 600 0
DWIDTH 6 0
BBX 3 7 2 0
BITMAP
20
40
E0
40
40
40
20
ENDCHAR
STARTCHAR uni01BB
ENCODING 443
SWIDTH 600 0
DWIDTH 6 0
BBX 5 7 1 0
BITMAP
70
88
28
10
68
80
F8
ENDCHAR
STARTCHAR uni01C0
ENCODING 448
SWIDTH 600 0
DWIDTH 6 0
BBX 1 9 3 -2
BITMAP
80
80
80
80
80
80
80
80
80
ENDCHAR
STARTCHAR uni01C1
ENCODING 449
SWIDTH 600 0
DWIDTH 6 0
BBX 3 9 2 -2
BITMAP
A0
A0
A0
A0
A0
A0
A0
A0
A0
ENDCHAR
STARTCHAR uni01C2
ENCODING 450
SWIDTH 600 0
DWIDTH 6 0
BBX 5 9 1 -2
BITMAP
20
20
20
F8
20
F8
20
20
20
ENDCHAR
STARTCHAR uni01C3
ENCODING 451
SWIDTH 600 0
DWIDTH 6 0
BBX 1 7 3 0
BITMAP
80
80
80
80
80
00
80
ENDCHAR
STARTCHAR uni01DD
ENCODING 477
SWIDTH 600 0
DWIDTH 6 0
BBX 5 5 1 0
BITMAP
70
08
F8
88
70
ENDCHAR
STARTCHAR uni01E2
ENCODING 482
SWIDTH 600 0
DWIDTH 6 0
BBX 5 7 1 0
BITMAP
70
00
78
A0
B0
E0
B8
ENDCHAR
STARTCHAR uni01E3
ENCODING 483
SWIDTH 600 0
DWIDTH 6 0
BBX 5 7 1 0
BITMAP
70
00
50
28
78
A0
70
ENDCHAR
STARTCHAR uni01F0
ENCODING 496
SWIDTH 600 0
DWIDTH 6 0
BBX 3 9 2 -2
BITMAP
A0
40
00
40
40
40
40
40
80
ENDCHAR
STARTCHAR uni0232
ENCODING 562
SWIDTH 600 0
DWIDTH 6 0
BBX 5 7 1 0
BITMAP
70
00
88
50
20
20
20
ENDCHAR
STARTCHAR uni0233
ENCODING 563
SWIDTH 600 0
DWIDTH 6 0
BBX 5 9 1 -2
BITMAP
70
00
88
88
88
88
78
08
70
ENDCHAR
STARTCHAR uni0237
ENCODING 567
SWIDTH 600 0
DWIDTH 6 0
BBX 2 7 2 -2
BITMAP
40
40
40
40
40
40
80
ENDCHAR
STARTCHAR uni023F
ENCODING 575
SWIDTH 600 0
DWIDTH 6 0
BBX 5 7 1 -2
BITMAP
78
80
70
08
F0
20
18
ENDCHAR
STARTCHAR uni0240
ENCODING 576
SWIDTH 600 0
DWIDTH 6 0
BBX 5 7 1 -2
BITMAP
F8
10
20
40
C0
20
18
ENDCHAR
STARTCHAR uni0245
ENCODING 581
SWIDTH 600 0
DWIDTH 6 0
BBX 5 7 1 0
BITMAP
20
20
50
50
88
88
88
ENDCHAR
STARTCHAR uni0250
ENCODING 592
SWIDTH 600 0
DWIDTH 6 0
BBX 5 5 1 0
BITMAP
F0
88
F0
80
70
ENDCHAR
STARTCHAR uni0251
ENCODING 593
SWIDTH 600 0
DWIDTH 6 0
BBX 5 5 1 0
BITMAP
78
88
88
98
68
ENDCHAR
STARTCHAR uni0252
ENCODING 594
SWIDTH 600 0
DWIDTH 6 0
BBX 5 5 1 0
BITMAP
B0
C8
88
88
F0
ENDCHAR
STARTCHAR uni0253
ENCODING 595
SWIDTH 600 0
DWIDTH 6 0
BBX 5 7 1 0
BITMAP
60
80
F0
88
88
88
F0
ENDCHAR
STARTCHAR uni0254
ENCODING 596
SWIDTH 600 0
DWIDTH 6 0
BBX 5 5 1 0
BITMAP
F0
08
08
08
F0
ENDCHAR
STARTCHAR uni0255
ENCODING 597
SWIDTH 600 0
DWIDTH 6 0
BBX 5 6 1 -1
BITMAP
78
80
90
A8
70
20
ENDCHAR
STARTCHAR uni0256
ENCODING 598
SWIDTH 600 0
DWIDTH 6 0
BBX 5 9 1 -2
BITMAP
10
10
70
90
90
90
70
10
08
ENDCHAR
STARTCHAR uni0257
ENCODING 599
SWIDTH 600 0
DWIDTH 6 0
BBX 5 7 1 0
BITMAP
08
10
70
90
90
90
70
ENDCHAR
STARTCHAR uni0258
ENCODING 600
SWIDTH 600 0
DWIDTH 6 0
BBX 5 5 1 0
BITMAP
70
88
F8
08
70
ENDCHAR
STARTCHAR uni0259
ENCODING 601
SWIDTH 600 0
DWIDTH 6 0
BBX 5 5 1 0
BITMAP
70
08
F8
88
70
ENDCHAR
STARTCHAR uni025A
ENCODING 602
SWIDTH 600 0
DWIDTH 6 0
BBX 5 5 1 0
BITMAP
C0
20
E8
B0
40
ENDCHAR
STARTCHAR uni025B
ENCODING 603
SWIDTH 600 0
DWIDTH 6 0
BBX 5 5 1 0
BITMAP
78
80
70
80
78
ENDCHAR
STARTCHAR uni025C
ENCODING 604
SWIDTH 600 0
DWIDTH 6 0
BBX 5 5 1 0
BITMAP
F0
08
70
08
F0
ENDCHAR
STARTCHAR uni025D
ENCODING 605
SWIDTH 600 0
DWIDTH 6 0
BBX 5 5 1 0
BITMAP
C0
20
C8
30
C0
ENDCHAR
STARTCHAR uni025E
ENCODING 606
SWIDTH 600 0
DWIDTH 6 0
BBX 5 5 1 0
BITMAP
70
88
B0
88
70
ENDCHAR
STARTCHAR uni025F
ENCODING 607
SWIDTH 600 0
DWIDTH 6 0
BBX 3 7 2 -2
BITMAP
40
40
40
E0
40
40
80
ENDCHAR
STARTCHAR uni0260
ENCODING 608
SWIDTH 600 0
DWIDTH 6 0
BBX 5 9 1 -2
BITMAP
08
10
70
90
90
90
70
10
60
ENDCHAR
STARTCHAR uni0261
ENCODING 609
SWIDTH 600 0
DWIDTH 6 0
BBX 5 7 1 -2
BITMAP
78
88
88
88
78
08
70
ENDCHAR
STARTCHAR uni0262
ENCODING 610
SWIDTH 600 0
DWIDTH 6 0
BBX 5 5 1 0
BITMAP
78
80
98
88
78
ENDCHAR
STARTCHAR uni0263
ENCODING 611
SWIDTH 600 0
DWIDTH 6 0
BBX 5 7 1 -2
BITMAP
88
50
50
20
50
50
20
ENDCHAR
STARTCHAR uni0264
ENCODING 612
SWIDTH 600 0
DWIDTH 6 0
BBX 5 5 1 0
BITMAP
D8
20
50
50
20
ENDCHAR
STARTCHAR uni0265
ENCODING 613
SWIDTH 600 0
DWIDTH 6 0
BBX 5 7 1 -2
BITMAP
88
88
88
88
78
08
08
ENDCHAR
STARTCHAR uni0266
ENCODING 614
SWIDTH 600 0
DWIDTH 6 0
BBX 5 7 1 0
BITMAP
60
80
F0
88
88
88
88
ENDCHAR
STARTCHAR uni0267
ENCODING 615
SWIDTH 600 0
DWIDTH 6 0
BBX 5 9 1 -2
BITMAP
60
80
F0
88
88
88
88
08
30
ENDCHAR
STARTCHAR uni0268
ENCODING 616
SWIDTH 600 0
DWIDTH 6 0
BBX 3 7 2 0
BITMAP
40
00
C0
40
E0
40
E0
ENDCHAR
STARTCHAR uni0269
ENCODING 617
SWIDTH 600 0
DWIDTH 6 0
BBX 3 5 2 0
BITMAP
C0
40
40
40
20
ENDCHAR
STARTCHAR uni026A
ENCODING 618
SWIDTH 600 0
DWIDTH 6 0
BBX 3 5 2 0
BITMAP
E0
40
40
40
E0
ENDCHAR
STARTCHAR uni026B
ENCODING 619
SWIDTH 600 0
DWIDTH 6 0
BBX 5 7 1 0
BITMAP
60
20
68
B0
20
20
70
ENDCHAR
STARTCHAR uni026C
ENCODING 620
SWIDTH 600 0
DWIDTH 6 0
BBX 5 7 1 0
BITMAP
60
20
60
A8
70
20
70
ENDCHAR
STARTCHAR uni026D
ENCODING 621
SWIDTH 600 0
DWIDTH 6 0
BBX 3 9 2 -2
BITMAP
C0
40
40
40
40
40
40
40
20
ENDCHAR
STARTCHAR uni026E
ENCODING 622
SWIDTH 600 0
DWIDTH 6 0
BBX 5 9 1 -2
BITMAP
C0
40
78
48
50
48
E8
08
30
ENDCHAR
STARTCHAR uni026F
ENCODING 623
SWIDTH 600 0
DWIDTH 6 0
BBX 5 5 1 0
BITMAP
A8
A8
A8
A8
58
ENDCHAR
STARTCHAR uni0270
ENCODING 624
SWIDTH 600 0
DWIDTH 6 0
BBX 5 7 1 -2
BITMAP
A8
A8
A8
A8
58
08
08
ENDCHAR
STARTCHAR uni0271
ENCODING 625
SWIDTH 600 0
DWIDTH 6 0
BBX 5 7 1 -2
BITMAP
D0
A8
A8
A8
A8
08
10
ENDCHAR
STARTCHAR uni0272
ENCODING 626
SWIDTH 600 0
DWIDTH 6 0
BBX 5 7 1 -2
BITMAP
70
48
48
48
48
40
80
ENDCHAR
STARTCHAR uni0273
ENCODING 627
SWIDTH 600 0
DWIDTH 6 0
BBX 5 7 1 -2
BITMAP
E0
90
90
90
90
10
08
ENDCHAR
STARTCHAR uni0274
ENCODING 628
SWIDTH 600 0
DWIDTH 6 0
BBX 5 5 1 0
BITMAP
88
C8
A8
98
88
ENDCHAR
STARTCHAR uni0275
ENCODING 629
SWIDTH 600 0
DWIDTH 6 0
BBX 5 5 1 0
BITMAP
70
88
F8
88
70
ENDCHAR
STARTCHAR uni0276
ENCODING 630
SWIDTH 600 0
DWIDTH 6 0
BBX 5 5 1 0
BITMAP
78
A0
B8
A0
78
ENDCHAR
STARTCHAR uni0277
ENCODING 631
SWIDTH 600 0
DWIDTH 6 0
BBX 5 5 1 0
BITMAP
70
88
A8
A8
50
ENDCHAR
STARTCHAR uni0278
ENCODING 632
SWIDTH 600 0
DWIDTH 6 0
BBX 5 9 1 -2
BITMAP
20
20
70
A8
A8
A8
70
20
20
ENDCHAR
STARTCHAR uni0279
ENCODING 633
SWIDTH 600 0
DWIDTH 6 0
BBX 4 5 1 0
BITMAP
10
10
10
30
D0
ENDCHAR
STARTCHAR uni027A
ENCODING 634
SWIDTH 600 0
DWIDTH 6 0
BBX 4 7 1 0
BITMAP
10
10
10
10
10
30
D0
ENDCHAR
STARTCHAR uni027B
ENCODING 635
SWIDTH 600 0
DWIDTH 6 0
BBX 5 7 1 -2
BITMAP
10
10
10
30
D0
10
08
ENDCHAR
STARTCHAR uni027C
ENCODING 636
SWIDTH 600 0
DWIDTH 6 0
BBX 4 7 2 -2
BITMAP
B0
C0
80
80
80
80
80
ENDCHAR
STARTCHAR uni027D
ENCODING 637
SWIDTH 600 0
DWIDTH 6 0
BBX 4 7 2 -2
BITMAP
B0
C0
80
80
80
80
40
ENDCHAR
STARTCHAR uni027E
ENCODING 638
SWIDTH 600 0
DWIDTH 6 0
BBX 4 5 2 0
BITMAP
60
90
80
80
80
ENDCHAR
STARTCHAR uni0280
ENCODING 640
SWIDTH 600 0
DWIDTH 6 0
BBX 5 5 1 0
BITMAP
F0
88
F0
90
88
ENDCHAR
STARTCHAR uni0281
ENCODING 641
SWIDTH 600 0
DWIDTH 6 0
BBX 5 5 1 0
BITMAP
88
90
F0
88
F0
ENDCHAR
STARTCHAR uni0282
ENCODING 642
SWIDTH 600 0
DWIDTH 6 0
BBX 5 7 1 -2
BITMAP
78
80
70
08
F0
80
40
ENDCHAR
STARTCHAR uni0283
ENCODING 643
SWIDTH 600 0
DWIDTH 6 0
BBX 3 9 2 -2
BITMAP
20
40
40
40
40
40
40
40
80
ENDCHAR
STARTCHAR uni0284
ENCODING 644
SWIDTH 600 0
DWIDTH 6 0
BBX 3 9 2 -2
BITMAP
20
40
40
40
40
E0
40
40
80
ENDCHAR
STARTCHAR uni0286
ENCODING 646
SWIDTH 600 0
DWIDTH 6 0
BBX 4 9 1 -2
BITMAP
10
20
20
20
20
70
A0
A0
40
ENDCHAR
STARTCHAR uni0287
ENCODING 647
SWIDTH 600 0
DWIDTH 6 0
BBX 3 7 2 -2
BITMAP
80
40
40
40
E0
40
40
ENDCHAR
STARTCHAR uni0288
ENCODING 648
SWIDTH 600 0
DWIDTH 6 0
BBX 3 9 2 -2
BITMAP
40
40
E0
40
40
40
40
40
20
ENDCHAR
STARTCHAR uni0289
ENCODING 649
SWIDTH 600 0
DWIDTH 6 0
BBX 5 5 1 0
BITMAP
50
F8
50
50
30
ENDCHAR
STARTCHAR uni028A
ENCODING 650
SWIDTH 600 0
DWIDTH 6 0
BBX 5 5 1 0
BITMAP
D8
50
88
88
70
ENDCHAR
STARTCHAR uni028B
ENCODING 651
SWIDTH 600 0
DWIDTH 6 0
BBX 5 5 1 0
BITMAP
D0
48
48
50
60
ENDCHAR
STARTCHAR uni028C
ENCODING 652
SWIDTH 600 0
DWIDTH 6 0
BBX 5 5 1 0
BITMAP
20
50
50
88
88
ENDCHAR
STARTCHAR uni028D
ENCODING 653
SWIDTH 600 0
DWIDTH 6 0
BBX 5 5 1 0
BITMAP
50
A8
A8
88
88
ENDCHAR
STARTCHAR uni028E
ENCODING 654
SWIDTH 600 0
DWIDTH 6 0
BBX 5 7 1 0
BITMAP
70
80
E0
90
88
88
88
ENDCHAR
STARTCHAR uni028F
ENCODING 655
SWIDTH 600 0
DWIDTH 6 0
BBX 5 5 1 0
BITMAP
88
50
20
20
20
ENDCHAR
STARTCHAR uni0290
ENCODING 656
SWIDTH 600 0
DWIDTH 6 0
BBX 5 7 1 -2
BITMAP
F0
20
40
80
F0
10
08
ENDCHAR
STARTCHAR uni0291
ENCODING 657
SWIDTH 600 0
DWIDTH 6 0
BBX 5 7 1 -2
BITMAP
F8
10
20
40
F0
28
10
ENDCHAR
STARTCHAR uni0292
ENCODING 658
SWIDTH 600 0
DWIDTH 6 0
BBX 5 7 1 -2
BITMAP
F8
10
20
70
08
88
70
ENDCHAR
STARTCHAR uni0293
ENCODING 659
SWIDTH 600 0
DWIDTH 6 0
BBX 5 7 1 -2
BITMAP
F8
10
20
10
48
A8
70
ENDCHAR
STARTCHAR uni0294
ENCODING 660
SWIDTH 600 0
DWIDTH 6 0
BBX 5 7 1 0
BITMAP
70
88
10
20
20
20
20
ENDCHAR
STARTCHAR uni0295
ENCODING 661
SWIDTH 600 0
DWIDTH 6 0
BBX 5 7 1 0
BITMAP
70
88
40
20
20
20
20
ENDCHAR
STARTCHAR uni0296
ENCODING 662
SWIDTH 600 0
DWIDTH 6 0
BBX 5 7 1 0
BITMAP
20
20
20
20
10
88
70
ENDCHAR
STARTCHAR uni0297
ENCODING 663
SWIDTH 600 0
DWIDTH 6 0
BBX 5 9 1 -2
BITMAP
70
88
80
80
80
80
80
88
70
ENDCHAR
STARTCHAR uni0298
ENCODING 664
SWIDTH 600 0
DWIDTH 6 0
BBX 5 7 1 0
BITMAP
70
88
88
A8
88
88
70
ENDCHAR
STARTCHAR uni0299
ENCODING 665
SWIDTH 600 0
DWIDTH 6 0
BBX 5 5 1 0
BITMAP
F0
88
F0
88
F0
ENDCHAR
STARTCHAR uni029A
ENCODING 666
SWIDTH 600 0
DWIDTH 6 0
BBX 5 5 1 0
BITMAP
70
88
68
88
70
ENDCHAR
STARTCHAR uni029B
ENCODING 667
SWIDTH 600 0
DWIDTH 6 0
BBX 5 7 1 0
BITMAP
08
10
70
80
B0
90
70
ENDCHAR
STARTCHAR uni029C
ENCODING 668
SWIDTH 600 0
DWIDTH 6 0
BBX 5 5 1 0
BITMAP
88
88
F8
88
88
ENDCHAR
STARTCHAR uni029D
ENCODING 669
SWIDTH 600 0
DWIDTH 6 0
BBX 4 9 1 -2
BITMAP
20
00
20
20
20
70
A0
A0
40
ENDCHAR
STARTCHAR uni029E
ENCODING 670
SWIDTH 600 0
DWIDTH 6 0
BBX 4 7 1 -2
BITMAP
90
50
30
50
90
10
10
ENDCHAR
STARTCHAR uni029F
ENCODING 671
SWIDTH 600 0
DWIDTH 6 0
BBX 5 5 1 0
BITMAP
80
80
80
80
F8
ENDCHAR
STARTCHAR uni02A0
ENCODING 672
SWIDTH 600 0
DWIDTH 6 0
BBX 5 9 1 -2
BITMAP
30
08
78
88
88
88
78
08
08
ENDCHAR
STARTCHAR uni02A1
ENCODING 673
SWIDTH 600 0
DWIDTH 6 0
BBX 5 7 1 0
BITMAP
70
88
10
20
F8
20
20
ENDCHAR
STARTCHAR uni02A2
ENCODING 674
SWIDTH 600 0
DWIDTH 6 0
BBX 5 7 1 0
BITMAP
70
88
40
20
F8
20
20
ENDCHAR
STARTCHAR uni02A3
ENCODING 675
SWIDTH 600 0
DWIDTH 6 0
BBX 5 7 1 0
BITMAP
20
20
78
A8
B0
B0
78
ENDCHAR
STARTCHAR uni02A4
ENCODING 676
SWIDTH 600 0
DWIDTH 6 0
BBX 5 9 1 -2
BITMAP
20
20
78
A8
B0
A8
68
08
30
ENDCHAR
STARTCHAR uni02A5
ENCODING 677
SWIDTH 600 0
DWIDTH 6 0
BBX 5 9 1 -2
BITMAP
20
20
78
A8
B0
B0
78
28
10
ENDCHAR
STARTCHAR uni02A6
ENCODING 678
SWIDTH 600 0
DWIDTH 6 0
BBX 5 7 1 0
BITMAP
80
80
F8
A0
90
88
70
ENDCHAR
STARTCHAR uni02A7
ENCODING 679
SWIDTH 600 0
DWIDTH 6 0
BBX 5 9 1 -2
BITMAP
48
50
F0
50
50
50
30
10
20
ENDCHAR
STARTCHAR uni02A8
ENCODING 680
SWIDTH 600 0
DWIDTH 6 0
BBX 5 9 1 -2
BITMAP
80
C0
98
A0
A0
A0
70
28
10
ENDCHAR
STARTCHAR uni02A9
ENCODING 681
SWIDTH 600 0
DWIDTH 6 0
BBX 5 9 1 -2
BITMAP
40
80
80
F0
A8
A8
A8
08
30
ENDCHAR
STARTCHAR uni02AA
ENCODING 682
SWIDTH 600 0
DWIDTH 6 0
BBX 5 7 1 0
BITMAP
C0
40
58
60
50
48
F0
ENDCHAR
STARTCHAR uni02AB
ENCODING 683
SWIDTH 600 0
DWIDTH 6 0
BBX 5 7 1 0
BITMAP
C0
40
78
48
50
60
F8
ENDCHAR
STARTCHAR uni02AC
ENCODING 684
SWIDTH 600 0
DWIDTH 6 0
BBX 5 5 1 0
BITMAP
A8
50
00
A8
50
ENDCHAR
STARTCHAR uni02AD
ENCODING 685
SWIDTH 600 0
DWIDTH 6 0
BBX 3 5 2 0
BITMAP
E0
A0
00
E0
A0
ENDCHAR
STARTCHAR uni02B0
ENCODING 688
SWIDTH 600 0
DWIDTH 6 0
BBX 3 5 1 2
BITMAP
80
80
C0
A0
A0
ENDCHAR
STARTCHAR uni02B2
ENCODING 690
SWIDTH 600 0
DWIDTH 6 0
BBX 2 6 1 1
BITMAP
40
00
40
40
40
80
ENDCHAR
STARTCHAR uni02B9
ENCODING 697
SWIDTH 600 0
DWIDTH 6 0
BBX 2 4 1 3
BITMAP
40
40
80
80
ENDCHAR
STARTCHAR uni02BA
ENCODING 698
SWIDTH 600 0
DWIDTH 6 0
BBX 5 4 1 3
BITMAP
48
48
90
90
ENDCHAR
STARTCHAR uni02BC
ENCODING 700
SWIDTH 600 0
DWIDTH 6 0
BBX 2 3 2 4
BITMAP
40
40
80
ENDCHAR
STARTCHAR circumflex
ENCODING 710
SWIDTH 600 0
DWIDTH 6 0
BBX 3 2 2 5
BITMAP
40
A0
ENDCHAR
STARTCHAR caron
ENCODING 711
SWIDTH 600 0
DWIDTH 6 0
BBX 3 2 2 5
BITMAP
A0
40
ENDCHAR
STARTCHAR uni02C8
ENCODING 712
SWIDTH 600 0
DWIDTH 6 0
BBX 1 3 3 4
BITMAP
80
80
80
ENDCHAR
STARTCHAR uni02CC
ENCODING 716
SWIDTH 600 0
DWIDTH 6 0
BBX 1 3 3 -2
BITMAP
80
80
80
ENDCHAR
STARTCHAR uni02D0
ENCODING 720
SWIDTH 600 0
DWIDTH 6 0
BBX 3 5 2 0
BITMAP
A0
40
00
40
A0
ENDCHAR
STARTCHAR uni02D1
ENCODING 721
SWIDTH 600 0
DWIDTH 6 0
BBX 3 2 2 3
BITMAP
A0
40
ENDCHAR
STARTCHAR breve
ENCODING 728
SWIDTH 600 0
DWIDTH 6 0
BBX 5 2 1 5
BITMAP
88
70
ENDCHAR
STARTCHAR dotaccent
ENCODING 729
SWIDTH 600 0
DWIDTH 6 0
BBX 1 1 3 6
BITMAP
80
ENDCHAR
STARTCHAR ring
ENCODING 730
SWIDTH 600 0
DWIDTH 6 0
BBX 3 3 2 4
BITMAP
40
A0
40
ENDCHAR
STARTCHAR ogonek
ENCODING 731
SWIDTH 600 0
DWIDTH 6 0
BBX 2 3 2 -2
BITMAP
40
80
40
ENDCHAR
STARTCHAR tilde
ENCODING 732
SWIDTH 600 0
DWIDTH 6 0
BBX 4 2 2 5
BITMAP
50
A0
ENDCHAR
STARTCHAR hungarumlaut
ENCODING 733
SWIDTH 600 0
DWIDTH 6 0
BBX 5 2 1 5
BITMAP
48
90
ENDCHAR
STARTCHAR uni02E0
ENCODING 736
SWIDTH 600 0
DWIDTH 6 0
BBX 3 5 1 2
BITMAP
A0
40
A0
A0
40
ENDCHAR
STARTCHAR uni02E1
ENCODING 737
SWIDTH 600 0
DWIDTH 6 0
BBX 3 5 1 2
BITMAP
C0
40
40
40
E0
ENDCHAR
STARTCHAR uni02E2
ENCODING 738
SWIDTH 600 0
DWIDTH 6 0
BBX 3 3 1 2
BITMAP
60
40
C0
ENDCHAR
STARTCHAR uni02E3
ENCODING 739
SWIDTH 600 0
DWIDTH 6 0
BBX 3 3 1 2
BITMAP
A0
40
A0
ENDCHAR
STARTCHAR uni02E4
ENCODING 740
SWIDTH 600 0
DWIDTH 6 0
BBX 3 5 1 2
BITMAP
40
A0
80
40
40
ENDCHAR
STARTCHAR uni02E5
ENCODING 741
SWIDTH 600 0
DWIDTH 6 0
BBX 5 7 1 0
BITMAP
F8
08
08
08
08
08
08
ENDCHAR
STARTCHAR uni02E6
ENCODING 742
SWIDTH 600 0
DWIDTH 6 0
BBX 5 7 1 0
BITMAP
08
F8
08
08
08
08
08
ENDCHAR
STARTCHAR uni02E7
ENCODING 743
SWIDTH 600 0
DWIDTH 6 0
BBX 5 7 1 0
BITMAP
08
08
08
F8
08
08
08
ENDCHAR
STARTCHAR uni02E8
ENCODING 744
SWIDTH 600 0
DWIDTH 6 0
BBX 5 7 1 0
BITMAP
08
08
08
08
08
F8
08
ENDCHAR
STARTCHAR uni02E9
ENCODING 745
SWIDTH 600 0
DWIDTH 6 0
BBX 5 7 1 0
BITMAP
08
08
08
08
08
08
F8
ENDCHAR
STARTCHAR uni037F
ENCODING 895
SWIDTH 600 0
DWIDTH 6 0
BBX 5 7 1 0
BITMAP
08
08
08
08
08
88
70
ENDCHAR
STARTCHAR tonos
ENCODING 900
SWIDTH 600 0
DWIDTH 6 0
BBX 1 1 3 6
BITMAP
80
ENDCHAR
STARTCHAR dieresistonos
ENCODING 901
SWIDTH 600 0
DWIDTH 6 0
BBX 5 2 1 5
BITMAP
20
A8
ENDCHAR
STARTCHAR Alphatonos
ENCODING 902
SWIDTH 600 0
DWIDTH 6 0
BBX 5 7 1 0
BITMAP
90
A8
28
28
38
28
28
ENDCHAR
STARTCHAR Epsilontonos
ENCODING 904
SWIDTH 600 0
DWIDTH 6 0
BBX 5 7 1 0
BITMAP
B8
A0
20
30
20
20
38
ENDCHAR
STARTCHAR Etatonos
ENCODING 905
SWIDTH 600 0
DWIDTH 6 0
BBX 5 7 1 0
BITMAP
A8
A8
28
38
28
28
28
ENDCHAR
STARTCHAR Iotatonos
ENCODING 906
SWIDTH 600 0
DWIDTH 6 0
BBX 5 7 1 0
BITMAP
B8
90
10
10
10
10
38
ENDCHAR
STARTCHAR Omicrontonos
ENCODING 908
SWIDTH 600 0
DWIDTH 6 0
BBX 5 7 1 0
BITMAP
90
A8
28
28
28
28
10
ENDCHAR
STARTCHAR Upsilontonos
ENCODING 910
SWIDTH 600 0
DWIDTH 6 0
BBX 5 7 1 0
BITMAP
A8
A8
28
10
10
10
10
ENDCHAR
STARTCHAR Omegatonos
ENCODING 911
SWIDTH 600 0
DWIDTH 6 0
BBX 5 7 1 0
BITMAP
90
A8
28
28
28
10
38
ENDCHAR
STARTCHAR iotadieresistonos
ENCODING 912
SWIDTH 600 0
DWIDTH 6 0
BBX 5 7 1 0
BITMAP
20
A8
00
60
20
20
10
ENDCHAR
STARTCHAR Alpha
ENCODING 913
SWIDTH 600 0
DWIDTH 6 0
BBX 5 7 1 0
BITMAP
20
50
88
88
F8
88
88
ENDCHAR
STARTCHAR Beta
ENCODING 914
SWIDTH 600 0
DWIDTH 6 0
BBX 5 7 1 0
BITMAP
F0
88
88
F0
88
88
F0
ENDCHAR
STARTCHAR Gamma
ENCODING 915
SWIDTH 600 0
DWIDTH 6 0
BBX 5 7 1 0
BITMAP
F8
80
80
80
80
80
80
ENDCHAR
STARTCHAR uni0394
ENCODING 916
SWIDTH 600 0
DWIDTH 6 0
BBX 5 7 1 0
BITMAP
20
20
50
50
88
88
F8
ENDCHAR
STARTCHAR Epsilon
ENCODING 917
SWIDTH 600 0
DWIDTH 6 0
BBX 5 7 1 0
BITMAP
F8
80
80
F0
80
80
F8
ENDCHAR
STARTCHAR Zeta
ENCODING 918
SWIDTH 600 0
DWIDTH 6 0
BBX 5 7 1 0
BITMAP
F8
08
10
20
40
80
F8
ENDCHAR
STARTCHAR Eta
ENCODING 919
SWIDTH 600 0
DWIDTH 6 0
BBX 5 7 1 0
BITMAP
88
88
88
F8
88
88
88
ENDCHAR
STARTCHAR Theta
ENCODING 920
SWIDTH 600 0
DWIDTH 6 0
BBX 5 7 1 0
BITMAP
70
88
88
F8
88
88
70
ENDCHAR
STARTCHAR Iota
ENCODING 921
SWIDTH 600 0
DWIDTH 6 0
BBX 3 7 2 0
BITMAP
E0
40
40
40
40
40
E0
ENDCHAR
STARTCHAR Kappa
ENCODING 922
SWIDTH 600 0
DWIDTH 6 0
BBX 5 7 1 0
BITMAP
88
90
A0
C0
A0
90
88
ENDCHAR
STARTCHAR Lambda
ENCODING 923
SWIDTH 600 0
DWIDTH 6 0
BBX 5 7 1 0
BITMAP
20
20
50
50
88
88
88
ENDCHAR
STARTCHAR Mu
ENCODING 924
SWIDTH 600 0
DWIDTH 6 0
BBX 5 7 1 0
BITMAP
88
D8
A8
A8
88
88
88
ENDCHAR
STARTCHAR Nu
ENCODING 925
SWIDTH 600 0
DWIDTH 6 0
BBX 5 7 1 0
BITMAP
88
88
C8
A8
98
88
88
ENDCHAR
STARTCHAR Xi
ENCODING 926
SWIDTH 600 0
DWIDTH 6 0
BBX 5 7 1 0
BITMAP
F8
00
00
70
00
00
F8
ENDCHAR
STARTCHAR Omicron
ENCODING 927
SWIDTH 600 0
DWIDTH 6 0
BBX 5 7 1 0
BITMAP
70
88
88
88
88
88
70
ENDCHAR
STARTCHAR Pi
ENCODING 928
SWIDTH 600 0
DWIDTH 6 0
BBX 5 7 1 0
BITMAP
F8
88
88
88
88
88
88
ENDCHAR
STARTCHAR Rho
ENCODING 929
SWIDTH 600 0
DWIDTH 6 0
BBX 5 7 1 0
BITMAP
F0
88
88
F0
80
80
80
ENDCHAR
STARTCHAR Sigma
ENCODING 931
SWIDTH 600 0
DWIDTH 6 0
BBX 5 7 1 0
BITMAP
F8
80
40
20
40
80
F8
ENDCHAR
STARTCHAR Tau
ENCODING 932
SWIDTH 600 0
DWIDTH 6 0
BBX 5 7 1 0
BITMAP
F8
20
20
20
20
20
20
ENDCHAR
STARTCHAR Upsilon
ENCODING 933
SWIDTH 600 0
DWIDTH 6 0
BBX 5 7 1 0
BITMAP
88
88
50
20
20
20
20
ENDCHAR
STARTCHAR Phi
ENCODING 934
SWIDTH 600 0
DWIDTH 6 0
BBX 5 7 1 0
BITMAP
20
70
A8
A8
A8
70
20
ENDCHAR
STARTCHAR Chi
ENCODING 935
SWIDTH 600 0
DWIDTH 6 0
BBX 5 7 1 0
BITMAP
88
88
50
20
50
88
88
ENDCHAR
STARTCHAR Psi
ENCODING 936
SWIDTH 600 0
DWIDTH 6 0
BBX 5 7 1 0
BITMAP
A8
A8
A8
A8
A8
70
20
ENDCHAR
STARTCHAR uni03A9
ENCODING 937
SWIDTH 600 0
DWIDTH 6 0
BBX 5 7 1 0
BITMAP
70
88
88
88
88
50
D8
ENDCHAR
STARTCHAR Iotadieresis
ENCODING 938
SWIDTH 600 0
DWIDTH 6 0
BBX 3 7 2 0
BITMAP
A0
00
E0
40
40
40
E0
ENDCHAR
STARTCHAR Upsilondieresis
ENCODING 939
SWIDTH 600 0
DWIDTH 6 0
BBX 5 7 1 0
BITMAP
50
00
88
50
20
20
20
ENDCHAR
STARTCHAR alphatonos
ENCODING 940
SWIDTH 600 0
DWIDTH 6 0
BBX 5 7 1 0
BITMAP
20
00
68
90
90
90
68
ENDCHAR
STARTCHAR epsilontonos
ENCODING 941
SWIDTH 600 0
DWIDTH 6 0
BBX 5 7 1 0
BITMAP
20
00
78
80
70
80
78
ENDCHAR
STARTCHAR etatonos
ENCODING 942
SWIDTH 600 0
DWIDTH 6 0
BBX 5 9 1 -2
BITMAP
20
00
F0
88
88
88
88
08
08
ENDCHAR
STARTCHAR iotatonos
ENCODING 943
SWIDTH 600 0
DWIDTH 6 0
BBX 3 7 2 0
BITMAP
40
00
C0
40
40
40
20
ENDCHAR
STARTCHAR upsilondieresistonos
ENCODING 944
SWIDTH 600 0
DWIDTH 6 0
BBX 5 7 1 0
BITMAP
20
A8
00
90
88
88
70
ENDCHAR
STARTCHAR alpha
ENCODING 945
SWIDTH 600 0
DWIDTH 6 0
BBX 5 5 1 0
BITMAP
68
90
90
90
68
ENDCHAR
STARTCHAR beta
ENCODING 946
SWIDTH 600 0
DWIDTH 6 0
BBX 5 9 1 -2
BITMAP
70
88
88
F0
88
88
F0
80
80
ENDCHAR
STARTCHAR gamma
ENCODING 947
SWIDTH 600 0
DWIDTH 6 0
BBX 5 7 1 -2
BITMAP
88
88
50
50
20
20
20
ENDCHAR
STARTCHAR delta
ENCODING 948
SWIDTH 600 0
DWIDTH 6 0
BBX 5 7 1 0
BITMAP
78
80
70
88
88
88
70
ENDCHAR
STARTCHAR epsilon
ENCODING 949
SWIDTH 600 0
DWIDTH 6 0
BBX 5 5 1 0
BITMAP
78
80
70
80
78
ENDCHAR
STARTCHAR zeta
ENCODING 950
SWIDTH 600 0
DWIDTH 6 0
BBX 4 9 1 -2
BITMAP
F0
10
20
40
80
80
60
10
20
ENDCHAR
STARTCHAR eta
ENCODING 951
SWIDTH 600 0
DWIDTH 6 0
BBX 5 7 1 -2
BITMAP
F0
88
88
88
88
08
08
ENDCHAR
STARTCHAR theta
ENCODING 952
SWIDTH 600 0
DWIDTH 6 0
BBX 4 7 1 0
BITMAP
60
90
90
F0
90
90
60
ENDCHAR
STARTCHAR iota
ENCODING 953
SWIDTH 600 0
DWIDTH 6 0
BBX 3 5 2 0
BITMAP
C0
40
40
40
20
ENDCHAR
STARTCHAR kappa
ENCODING 954
SWIDTH 600 0
DWIDTH 6 0
BBX 4 5 2 0
BITMAP
90
A0
C0
A0
90
ENDCHAR
STARTCHAR lambda
ENCODING 955
SWIDTH 600 0
DWIDTH 6 0
BBX 5 7 1 0
BITMAP
C0
20
20
50
50
88
88
ENDCHAR
STARTCHAR uni03BC
ENCODING 956
SWIDTH 600 0
DWIDTH 6 0
BBX 5 7 1 -2
BITMAP
90
90
90
90
E8
80
80
ENDCHAR
STARTCHAR nu
ENCODING 957
SWIDTH 600 0
DWIDTH 6 0
BBX 5 5 1 0
BITMAP
88
88
48
50
20
ENDCHAR
STARTCHAR xi
ENCODING 958
SWIDTH 600 0
DWIDTH 6 0
BBX 5 9 1 -2
BITMAP
70
80
80
70
80
80
70
08
10
ENDCHAR
STARTCHAR omicron
ENCODING 959
SWIDTH 600 0
DWIDTH 6 0
BBX 5 5 1 0
BITMAP
70
88
88
88
70
ENDCHAR
STARTCHAR pi
ENCODING 960
SWIDTH 600 0
DWIDTH 6 0
BBX 5 5 1 0
BITMAP
F8
50
50
50
48
ENDCHAR
STARTCHAR rho
ENCODING 961
SWIDTH 600 0
DWIDTH 6 0
BBX 5 7 1 -2
BITMAP
70
88
88
88
F0
80
80
ENDCHAR
STARTCHAR sigma1
ENCODING 962
SWIDTH 600 0
DWIDTH 6 0
BBX 5 7 1 -2
BITMAP
78
80
80
80
70
08
10
ENDCHAR
STARTCHAR sigma
ENCODING 963
SWIDTH 600 0
DWIDTH 6 0
BBX 5 5 1 0
BITMAP
78
90
88
88
70
ENDCHAR
STARTCHAR tau
ENCODING 964
SWIDTH 600 0
DWIDTH 6 0
BBX 5 5 1 0
BITMAP
F8
20
20
20
10
ENDCHAR
STARTCHAR upsilon
ENCODING 965
SWIDTH 600 0
DWIDTH 6 0
BBX 5 5 1 0
BITMAP
90
88
88
88
70
ENDCHAR
STARTCHAR phi
ENCODING 966
SWIDTH 600 0
DWIDTH 6 0
BBX 5 7 1 -2
BITMAP
B0
A8
A8
A8
70
20
20
ENDCHAR
STARTCHAR chi
ENCODING 967
SWIDTH 600 0
DWIDTH 6 0
BBX 5 7 1 -2
BITMAP
88
48
50
20
50
90
88
ENDCHAR
STARTCHAR psi
ENCODING 968
SWIDTH 600 0
DWIDTH 6 0
BBX 5 7 1 -2
BITMAP
A8
A8
A8
A8
70
20
20
ENDCHAR
STARTCHAR omega
ENCODING 969
SWIDTH 600 0
DWIDTH 6 0
BBX 5 5 1 0
BITMAP
50
88
A8
A8
50
ENDCHAR
STARTCHAR iotadieresis
ENCODING 970
SWIDTH 600 0
DWIDTH 6 0
BBX 3 7 2 0
BITMAP
A0
00
C0
40
40
40
20
ENDCHAR
STARTCHAR upsilondieresis
ENCODING 971
SWIDTH 600 0
DWIDTH 6 0
BBX 5 7 1 0
BITMAP
50
00
90
88
88
88
70
ENDCHAR
STARTCHAR omicrontonos
ENCODING 972
SWIDTH 600 0
DWIDTH 6 0
BBX 5 7 1 0
BITMAP
20
00
70
88
88
88
70
ENDCHAR
STARTCHAR upsilontonos
ENCODING 973
SWIDTH 600 0
DWIDTH 6 0
BBX 5 7 1 0
BITMAP
20
00
90
88
88
88
70
ENDCHAR
STARTCHAR omegatonos
ENCODING 974
SWIDTH 600 0
DWIDTH 6 0
BBX 5 7 1 0
BITMAP
20
00
50
88
A8
A8
50
ENDCHAR
STARTCHAR phi1
ENCODING 981
SWIDTH 600 0
DWIDTH 6 0
BBX 5 9 1 -2
BITMAP
20
20
70
A8
A8
A8
70
20
20
ENDCHAR
STARTCHAR uni03F3
ENCODING 1011
SWIDTH 600 0
DWIDTH 6 0
BBX 2 9 2 -2
BITMAP
40
00
40
40
40
40
40
40
80
ENDCHAR
STARTCHAR uni0400
ENCODING 1024
SWIDTH 600 0
DWIDTH 6 0
BBX 5 7 1 0
BITMAP
40
20
F8
80
F0
80
F8
ENDCHAR
STARTCHAR uni0401
ENCODING 1025
SWIDTH 600 0
DWIDTH 6 0
BBX 5 7 1 0
BITMAP
50
00
F8
80
F0
80
F8
ENDCHAR
STARTCHAR uni0402
ENCODING 1026
SWIDTH 600 0
DWIDTH 6 0
BBX 5 9 1 -2
BITMAP
F0
40
40
70
48
48
48
08
10
ENDCHAR
STARTCHAR uni0404
ENCODING 1028
SWIDTH 600 0
DWIDTH 6 0
BBX 5 7 1 0
BITMAP
30
48
80
E0
80
48
30
ENDCHAR
STARTCHAR uni0405
ENCODING 1029
SWIDTH 600 0
DWIDTH 6 0
BBX 5 7 1 0
BITMAP
70
88
80
70
08
88
70
ENDCHAR
STARTCHAR uni0406
ENCODING 1030
SWIDTH 600 0
DWIDTH 6 0
BBX 3 7 2 0
BITMAP
E0
40
40
40
40
40
E0
ENDCHAR
STARTCHAR uni0407
ENCODING 1031
SWIDTH 600 0
DWIDTH 6 0
BBX 3 7 2 0
BITMAP
A0
00
E0
40
40
40
E0
ENDCHAR
STARTCHAR uni0408
ENCODING 1032
SWIDTH 600 0
DWIDTH 6 0
BBX 5 7 1 0
BITMAP
08
08
08
08
08
88
70
ENDCHAR
STARTCHAR uni0409
ENCODING 1033
SWIDTH 600 0
DWIDTH 6 0
BBX 5 7 1 0
BITMAP
60
A0
A0
B8
A8
A8
B8
ENDCHAR
STARTCHAR uni040A
ENCODING 1034
SWIDTH 600 0
DWIDTH 6 0
BBX 5 7 1 0
BITMAP
A0
A0
A0
F8
A8
A8
B8
ENDCHAR
STARTCHAR uni040B
ENCODING 1035
SWIDTH 600 0
DWIDTH 6 0
BBX 5 7 1 0
BITMAP
F0
40
40
70
48
48
48
ENDCHAR
STARTCHAR uni040E
ENCODING 1038
SWIDTH 600 0
DWIDTH 6 0
BBX 5 7 1 0
BITMAP
A8
88
88
F8
08
08
F8
ENDCHAR
STARTCHAR uni040F
ENCODING 1039
SWIDTH 600 0
DWIDTH 6 0
BBX 5 8 1 -1
BITMAP
88
88
88
88
88
88
F8
20
ENDCHAR
STARTCHAR uni0410
ENCODING 1040
SWIDTH 600 0
DWIDTH 6 0
BBX 5 7 1 0
BITMAP
70
88
88
88
F8
88
88
ENDCHAR
STARTCHAR uni0411
ENCODING 1041
SWIDTH 600 0
DWIDTH 6 0
BBX 5 7 1 0
BITMAP
F8
80
80
F8
88
88
F8
ENDCHAR
STARTCHAR uni0412
ENCODING 1042
SWIDTH 600 0
DWIDTH 6 0
BBX 5 7 1 0
BITMAP
F0
88
88
F0
88
88
F0
ENDCHAR
STARTCHAR uni0413
ENCODING 1043
SWIDTH 600 0
DWIDTH 6 0
BBX 5 7 1 0
BITMAP
F8
80
80
80
80
80
80
ENDCHAR
STARTCHAR uni0414
ENCODING 1044
SWIDTH 600 0
DWIDTH 6 0
BBX 5 8 1 -1
BITMAP
30
50
50
50
50
50
F8
88
ENDCHAR
STARTCHAR uni0415
ENCODING 1045
SWIDTH 600 0
DWIDTH 6 0
BBX 5 7 1 0
BITMAP
F8
80
80
F0
80
80
F8
ENDCHAR
STARTCHAR uni0416
ENCODING 1046
SWIDTH 600 0
DWIDTH 6 0
BBX 5 7 1 0
BITMAP
A8
A8
A8
70
A8
A8
A8
ENDCHAR
STARTCHAR uni0417
ENCODING 1047
SWIDTH 600 0
DWIDTH 6 0
BBX 5 7 1 0
BITMAP
70
88
08
30
08
88
70
ENDCHAR
STARTCHAR uni0418
ENCODING 1048
SWIDTH 600 0
DWIDTH 6 0
BBX 5 7 1 0
BITMAP
88
88
98
A8
C8
88
88
ENDCHAR
STARTCHAR uni0419
ENCODING 1049
SWIDTH 600 0
DWIDTH 6 0
BBX 5 7 1 0
BITMAP
A8
88
98
A8
C8
88
88
ENDCHAR
STARTCHAR uni041A
ENCODING 1050
SWIDTH 600 0
DWIDTH 6 0
BBX 5 7 1 0
BITMAP
88
90
A0
C0
A0
90
88
ENDCHAR
STARTCHAR uni041B
ENCODING 1051
SWIDTH 600 0
DWIDTH 6 0
BBX 5 7 1 0
BITMAP
38
48
48
48
48
48
C8
ENDCHAR
STARTCHAR uni041C
ENCODING 1052
SWIDTH 600 0
DWIDTH 6 0
BBX 5 7 1 0
BITMAP
88
D8
A8
A8
88
88
88
ENDCHAR
STARTCHAR uni041D
ENCODING 1053
SWIDTH 600 0
DWIDTH 6 0
BBX 5 7 1 0
BITMAP
88
88
88
F8
88
88
88
ENDCHAR
STARTCHAR uni041E
ENCODING 1054
SWIDTH 600 0
DWIDTH 6 0
BBX 5 7 1 0
BITMAP
70
88
88
88
88
88
70
ENDCHAR
STARTCHAR uni041F
ENCODING 1055
SWIDTH 600 0
DWIDTH 6 0
BBX 5 7 1 0
BITMAP
F8
88
88
88
88
88
88
ENDCHAR
STARTCHAR uni0420
ENCODING 1056
SWIDTH 600 0
DWIDTH 6 0
BBX 5 7 1 0
BITMAP
F0
88
88
F0
80
80
80
ENDCHAR
STARTCHAR uni0421
ENCODING 1057
SWIDTH 600 0
DWIDTH 6 0
BBX 5 7 1 0
BITMAP
70
88
80
80
80
88
70
ENDCHAR
STARTCHAR uni0422
ENCODING 1058
SWIDTH 600 0
DWIDTH 6 0
BBX 5 7 1 0
BITMAP
F8
20
20
20
20
20
20
ENDCHAR
STARTCHAR uni0423
ENCODING 1059
SWIDTH 600 0
DWIDTH 6 0
BBX 5 7 1 0
BITMAP
88
88
88
F8
08
08
F8
ENDCHAR
STARTCHAR uni0424
ENCODING 1060
SWIDTH 600 0
DWIDTH 6 0
BBX 5 7 1 0
BITMAP
20
F8
A8
A8
A8
F8
20
ENDCHAR
STARTCHAR uni0425
ENCODING 1061
SWIDTH 600 0
DWIDTH 6 0
BBX 5 7 1 0
BITMAP
88
88
50
20
50
88
88
ENDCHAR
STARTCHAR uni0426
ENCODING 1062
SWIDTH 600 0
DWIDTH 6 0
BBX 5 8 1 -1
BITMAP
90
90
90
90
90
90
F8
08
ENDCHAR
STARTCHAR uni0427
ENCODING 1063
SWIDTH 600 0
DWIDTH 6 0
BBX 5 7 1 0
BITMAP
88
88
88
F8
08
08
08
ENDCHAR
STARTCHAR uni0428
ENCODING 1064
SWIDTH 600 0
DWIDTH 6 0
BBX 5 7 1 0
BITMAP
A8
A8
A8
A8
A8
A8
F8
ENDCHAR
STARTCHAR uni0429
ENCODING 1065
SWIDTH 600 0
DWIDTH 6 0
BBX 5 8 1 -1
BITMAP
A8
A8
A8
A8
A8
A8
F8
08
ENDCHAR
STARTCHAR uni042A
ENCODING 1066
SWIDTH 600 0
DWIDTH 6 0
BBX 5 7 1 0
BITMAP
C0
40
40
78
48
48
78
ENDCHAR
STARTCHAR uni042B
ENCODING 1067
SWIDTH 600 0
DWIDTH 6 0
BBX 5 7 1 0
BITMAP
88
88
88
E8
A8
A8
E8
ENDCHAR
STARTCHAR uni042C
ENCODING 1068
SWIDTH 600 0
DWIDTH 6 0
BBX 5 7 1 0
BITMAP
80
80
80
F8
88
88
F8
ENDCHAR
STARTCHAR uni042D
ENCODING 1069
SWIDTH 600 0
DWIDTH 6 0
BBX 5 7 1 0
BITMAP
60
90
08
38
08
90
60
ENDCHAR
STARTCHAR uni042E
ENCODING 1070
SWIDTH 600 0
DWIDTH 6 0
BBX 5 7 1 0
BITMAP
90
A8
A8
E8
A8
A8
90
ENDCHAR
STARTCHAR uni042F
ENCODING 1071
SWIDTH 600 0
DWIDTH 6 0
BBX 5 7 1 0
BITMAP
78
88
88
78
28
48
88
ENDCHAR
STARTCHAR uni0430
ENCODING 1072
SWIDTH 600 0
DWIDTH 6 0
BBX 5 5 1 0
BITMAP
70
08
78
88
78
ENDCHAR
STARTCHAR uni0431
ENCODING 1073
SWIDTH 600 0
DWIDTH 6 0
BBX 5 7 1 0
BITMAP
70
80
F0
88
88
88
F0
ENDCHAR
STARTCHAR uni0432
ENCODING 1074
SWIDTH 600 0
DWIDTH 6 0
BBX 5 5 1 0
BITMAP
F0
88
F0
88
F0
ENDCHAR
STARTCHAR uni0433
ENCODING 1075
SWIDTH 600 0
DWIDTH 6 0
BBX 5 5 1 0
BITMAP
F8
80
80
80
80
ENDCHAR
STARTCHAR uni0434
ENCODING 1076
SWIDTH 600 0
DWIDTH 6 0
BBX 5 6 1 -1
BITMAP
30
50
50
50
F8
88
ENDCHAR
STARTCHAR uni0435
ENCODING 1077
SWIDTH 600 0
DWIDTH 6 0
BBX 5 5 1 0
BITMAP
70
88
F8
80
70
ENDCHAR
STARTCHAR uni0436
ENCODING 1078
SWIDTH 600 0
DWIDTH 6 0
BBX 5 5 1 0
BITMAP
A8
A8
70
A8
A8
ENDCHAR
STARTCHAR uni0437
ENCODING 1079
SWIDTH 600 0
DWIDTH 6 0
BBX 5 5 1 0
BITMAP
70
88
30
88
70
ENDCHAR
STARTCHAR uni0438
ENCODING 1080
SWIDTH 600 0
DWIDTH 6 0
BBX 5 5 1 0
BITMAP
88
98
A8
C8
88
ENDCHAR
STARTCHAR uni0439
ENCODING 1081
SWIDTH 600 0
DWIDTH 6 0
BBX 5 6 1 0
BITMAP
20
88
98
A8
C8
88
ENDCHAR
STARTCHAR uni043A
ENCODING 1082
SWIDTH 600 0
DWIDTH 6 0
BBX 5 5 1 0
BITMAP
88
90
E0
90
88
ENDCHAR
STARTCHAR uni043B
ENCODING 1083
SWIDTH 600 0
DWIDTH 6 0
BBX 5 5 1 0
BITMAP
38
48
48
48
C8
ENDCHAR
STARTCHAR uni043C
ENCODING 1084
SWIDTH 600 0
DWIDTH 6 0
BBX 5 5 1 0
BITMAP
88
D8
A8
88
88
ENDCHAR
STARTCHAR uni043D
ENCODING 1085
SWIDTH 600 0
DWIDTH 6 0
BBX 5 5 1 0
BITMAP
88
88
F8
88
88
ENDCHAR
STARTCHAR uni043E
ENCODING 1086
SWIDTH 600 0
DWIDTH 6 0
BBX 5 5 1 0
BITMAP
70
88
88
88
70
ENDCHAR
STARTCHAR uni043F
ENCODING 1087
SWIDTH 600 0
DWIDTH 6 0
BBX 5 5 1 0
BITMAP
F8
88
88
88
88
ENDCHAR
STARTCHAR uni0440
ENCODING 1088
SWIDTH 600 0
DWIDTH 6 0
BBX 5 7 1 -2
BITMAP
F0
88
88
88
F0
80
80
ENDCHAR
STARTCHAR uni0441
ENCODING 1089
SWIDTH 600 0
DWIDTH 6 0
BBX 5 5 1 0
BITMAP
70
88
80
88
70
ENDCHAR
STARTCHAR uni0442
ENCODING 1090
SWIDTH 600 0
DWIDTH 6 0
BBX 5 5 1 0
BITMAP
F8
20
20
20
20
ENDCHAR
STARTCHAR uni0443
ENCODING 1091
SWIDTH 600 0
DWIDTH 6 0
BBX 5 7 1 -2
BITMAP
88
88
88
88
78
08
70
ENDCHAR
STARTCHAR uni0444
ENCODING 1092
SWIDTH 600 0
DWIDTH 6 0
BBX 5 7 1 -1
BITMAP
20
70
A8
A8
A8
70
20
ENDCHAR
STARTCHAR uni0445
ENCODING 1093
SWIDTH 600 0
DWIDTH 6 0
BBX 5 5 1 0
BITMAP
88
50
20
50
88
ENDCHAR
STARTCHAR uni0446
ENCODING 1094
SWIDTH 600 0
DWIDTH 6 0
BBX 5 6 1 -1
BITMAP
90
90
90
90
F8
08
ENDCHAR
STARTCHAR uni0447
ENCODING 1095
SWIDTH 600 0
DWIDTH 6 0
BBX 5 5 1 0
BITMAP
88
88
88
78
08
ENDCHAR
STARTCHAR uni0448
ENCODING 1096
SWIDTH 600 0
DWIDTH 6 0
BBX 5 5 1 0
BITMAP
A8
A8
A8
A8
F8
ENDCHAR
STARTCHAR uni0449
ENCODING 1097
SWIDTH 600 0
DWIDTH 6 0
BBX 5 6 1 -1
BITMAP
A8
A8
A8
A8
F8
08
ENDCHAR
STARTCHAR uni044A
ENCODING 1098
SWIDTH 600 0
DWIDTH 6 0
BBX 5 5 1 0
BITMAP
C0
40
70
48
70
ENDCHAR
STARTCHAR uni044B
ENCODING 1099
SWIDTH 600 0
DWIDTH 6 0
BBX 5 5 1 0
BITMAP
88
88
E8
A8
E8
ENDCHAR
STARTCHAR uni044C
ENCODING 1100
SWIDTH 600 0
DWIDTH 6 0
BBX 5 5 1 0
BITMAP
80
80
F0
88
F0
ENDCHAR
STARTCHAR uni044D
ENCODING 1101
SWIDTH 600 0
DWIDTH 6 0
BBX 4 5 1 0
BITMAP
60
90
30
90
60
ENDCHAR
STARTCHAR uni044E
ENCODING 1102
SWIDTH 600 0
DWIDTH 6 0
BBX 5 5 1 0
BITMAP
90
A8
E8
A8
90
ENDCHAR
STARTCHAR uni044F
ENCODING 1103
SWIDTH 600 0
DWIDTH 6 0
BBX 5 5 1 0
BITMAP
78
88
78
28
C8
ENDCHAR
STARTCHAR uni0450
ENCODING 1104
SWIDTH 600 0
DWIDTH 6 0
BBX 5 7 1 0
BITMAP
40
20
70
88
F8
80
70
ENDCHAR
STARTCHAR uni0451
ENCODING 1105
SWIDTH 600 0
DWIDTH 6 0
BBX 5 7 1 0
BITMAP
50
00
70
88
F8
80
70
ENDCHAR
STARTCHAR uni0452
ENCODING 1106
SWIDTH 600 0
DWIDTH 6 0
BBX 5 9 1 -2
BITMAP
40
F0
40
70
48
48
48
08
10
ENDCHAR
STARTCHAR uni0454
ENCODING 1108
SWIDTH 600 0
DWIDTH 6 0
BBX 4 5 1 0
BITMAP
60
90
C0
90
60
ENDCHAR
STARTCHAR uni0455
ENCODING 1109
SWIDTH 600 0
DWIDTH 6 0
BBX 5 5 1 0
BITMAP
78
80
70
08
F0
ENDCHAR
STARTCHAR uni0456
ENCODING 1110
SWIDTH 600 0
DWIDTH 6 0
BBX 3 7 2 0
BITMAP
40
00
C0
40
40
40
E0
ENDCHAR
STARTCHAR uni0457
ENCODING 1111
SWIDTH 600 0
DWIDTH 6 0
BBX 3 7 2 0
BITMAP
A0
00
C0
40
40
40
E0
ENDCHAR
STARTCHAR uni0458
ENCODING 1112
SWIDTH 600 0
DWIDTH 6 0
BBX 2 9 2 -2
BITMAP
40
00
40
40
40
40
40
40
80
ENDCHAR
STARTCHAR uni0459
ENCODING 1113
SWIDTH 600 0
DWIDTH 6 0
BBX 5 5 1 0
BITMAP
60
A0
B0
A8
B0
ENDCHAR
STARTCHAR uni045A
ENCODING 1114
SWIDTH 600 0
DWIDTH 6 0
BBX 5 5 1 0
BITMAP
A0
A0
F0
A8
B0
ENDCHAR
STARTCHAR uni045B
ENCODING 1115
SWIDTH 600 0
DWIDTH 6 0
BBX 5 7 1 0
BITMAP
40
F0
40
70
48
48
48
ENDCHAR
STARTCHAR uni045E
ENCODING 1118
SWIDTH 600 0
DWIDTH 6 0
BBX 5 8 1 -2
BITMAP
20
88
88
88
88
78
08
70
ENDCHAR
STARTCHAR uni045F
ENCODING 1119
SWIDTH 600 0
DWIDTH 6 0
BBX 5 6 1 -1
BITMAP
88
88
88
88
F8
20
ENDCHAR
STARTCHAR uni0490
ENCODING 1168
SWIDTH 600 0
DWIDTH 6 0
BBX 5 7 1 0
BITMAP
08
F8
80
80
80
80
80
ENDCHAR
STARTCHAR uni0491
ENCODING 1169
SWIDTH 600 0
DWIDTH 6 0
BBX 5 6 1 0
BITMAP
08
F8
80
80
80
80
ENDCHAR
STARTCHAR uni0492
ENCODING 1170
SWIDTH 600 0
DWIDTH 6 0
BBX 5 7 1 0
BITMAP
78
40
40
F0
40
40
40
ENDCHAR
STARTCHAR uni0493
ENCODING 1171
SWIDTH 600 0
DWIDTH 6 0
BBX 5 5 1 0
BITMAP
78
40
F0
40
40
ENDCHAR
STARTCHAR uni05D0
ENCODING 1488
SWIDTH 600 0
DWIDTH 6 0
BBX 5 6 1 0
BITMAP
88
48
A8
90
88
88
ENDCHAR
STARTCHAR uni05D1
ENCODING 1489
SWIDTH 600 0
DWIDTH 6 0
BBX 5 6 1 0
BITMAP
70
10
10
10
10
F8
ENDCHAR
STARTCHAR uni05D2
ENCODING 1490
SWIDTH 600 0
DWIDTH 6 0
BBX 4 6 2 0
BITMAP
30
10
10
30
50
90
ENDCHAR
STARTCHAR uni05D3
ENCODING 1491
SWIDTH 600 0
DWIDTH 6 0
BBX 5 6 1 0
BITMAP
F8
10
10
10
10
10
ENDCHAR
STARTCHAR uni05D4
ENCODING 1492
SWIDTH 600 0
DWIDTH 6 0
BBX 5 6 1 0
BITMAP
F8
08
08
88
88
88
ENDCHAR
STARTCHAR uni05D5
ENCODING 1493
SWIDTH 600 0
DWIDTH 6 0
BBX 2 6 2 0
BITMAP
C0
40
40
40
40
40
ENDCHAR
STARTCHAR uni05D6
ENCODING 1494
SWIDTH 600 0
DWIDTH 6 0
BBX 3 6 2 0
BITMAP
E0
40
80
40
40
40
ENDCHAR
STARTCHAR uni05D7
ENCODING 1495
SWIDTH 600 0
DWIDTH 6 0
BBX 5 6 1 0
BITMAP
F8
88
88
88
88
88
ENDCHAR
STARTCHAR uni05D8
ENCODING 1496
SWIDTH 600 0
DWIDTH 6 0
BBX 5 6 1 0
BITMAP
88
98
A8
88
88
F8
ENDCHAR
STARTCHAR uni05D9
ENCODING 1497
SWIDTH 600 0
DWIDTH 6 0
BBX 2 2 2 4
BITMAP
C0
40
ENDCHAR
STARTCHAR uni05DA
ENCODING 1498
SWIDTH 600 0
DWIDTH 6 0
BBX 5 7 1 -1
BITMAP
F8
08
08
08
08
08
08
ENDCHAR
STARTCHAR uni05DB
ENCODING 1499
SWIDTH 600 0
DWIDTH 6 0
BBX 5 6 1 0
BITMAP
F8
08
08
08
08
F8
ENDCHAR
STARTCHAR uni05DC
ENCODING 1500
SWIDTH 600 0
DWIDTH 6 0
BBX 5 7 1 0
BITMAP
80
F8
08
08
08
10
60
ENDCHAR
STARTCHAR uni05DD
ENCODING 1501
SWIDTH 600 0
DWIDTH 6 0
BBX 5 6 1 0
BITMAP
F8
88
88
88
88
F8
ENDCHAR
STARTCHAR uni05DE
ENCODING 1502
SWIDTH 600 0
DWIDTH 6 0
BBX 5 6 1 0
BITMAP
B0
48
88
88
88
B8
ENDCHAR
STARTCHAR uni05DF
ENCODING 1503
SWIDTH 600 0
DWIDTH 6 0
BBX 2 8 2 -2
BITMAP
C0
40
40
40
40
40
40
40
ENDCHAR
STARTCHAR uni05E0
ENCODING 1504
SWIDTH 600 0
DWIDTH 6 0
BBX 3 6 2 0
BITMAP
60
20
20
20
20
E0
ENDCHAR
STARTCHAR uni05E1
ENCODING 1505
SWIDTH 600 0
DWIDTH 6 0
BBX 5 6 1 0
BITMAP
F8
48
88
88
88
70
ENDCHAR
STARTCHAR uni05E2
ENCODING 1506
SWIDTH 600 0
DWIDTH 6 0
BBX 5 6 1 0
BITMAP
48
48
48
48
50
E0
ENDCHAR
STARTCHAR uni05E3
ENCODING 1507
SWIDTH 600 0
DWIDTH 6 0
BBX 5 7 1 -1
BITMAP
F8
48
68
08
08
08
08
ENDCHAR
STARTCHAR uni05E4
ENCODING 1508
SWIDTH 600 0
DWIDTH 6 0
BBX 5 6 1 0
BITMAP
F8
48
68
08
08
F8
ENDCHAR
STARTCHAR uni05E5
ENCODING 1509
SWIDTH 600 0
DWIDTH 6 0
BBX 5 7 1 -1
BITMAP
C8
50
60
40
40
40
40
ENDCHAR
STARTCHAR uni05E6
ENCODING 1510
SWIDTH 600 0
DWIDTH 6 0
BBX 5 6 1 0
BITMAP
88
88
50
20
10
F8
ENDCHAR
STARTCHAR uni05E7
ENCODING 1511
SWIDTH 600 0
DWIDTH 6 0
BBX 5 7 1 -1
BITMAP
F8
08
48
48
50
40
40
ENDCHAR
STARTCHAR uni05E8
ENCODING 1512
SWIDTH 600 0
DWIDTH 6 0
BBX 5 6 1 0
BITMAP
F8
08
08
08
08
08
ENDCHAR
STARTCHAR uni05E9
ENCODING 1513
SWIDTH 600 0
DWIDTH 6 0
BBX 5 6 1 0
BITMAP
A8
A8
A8
C8
88
F0
ENDCHAR
STARTCHAR uni05EA
ENCODING 1514
SWIDTH 600 0
DWIDTH 6 0
BBX 5 6 1 0
BITMAP
78
48
48
48
48
C8
ENDCHAR
STARTCHAR uni1D00
ENCODING 7424
SWIDTH 600 0
DWIDTH 6 0
BBX 5 5 1 0
BITMAP
70
88
F8
88
88
ENDCHAR
STARTCHAR uni1D01
ENCODING 7425
SWIDTH 600 0
DWIDTH 6 0
BBX 5 5 1 0
BITMAP
78
A0
B0
E0
B8
ENDCHAR
STARTCHAR uni1D02
ENCODING 7426
SWIDTH 600 0
DWIDTH 6 0
BBX 5 5 1 0
BITMAP
70
28
F0
A0
50
ENDCHAR
STARTCHAR uni1D04
ENCODING 7428
SWIDTH 600 0
DWIDTH 6 0
BBX 5 5 1 0
BITMAP
70
88
80
88
70
ENDCHAR
STARTCHAR uni1D05
ENCODING 7429
SWIDTH 600 0
DWIDTH 6 0
BBX 5 5 1 0
BITMAP
F0
88
88
88
F0
ENDCHAR
STARTCHAR uni1D06
ENCODING 7430
SWIDTH 600 0
DWIDTH 6 0
BBX 5 5 1 0
BITMAP
70
48
E8
48
70
ENDCHAR
STARTCHAR uni1D07
ENCODING 7431
SWIDTH 600 0
DWIDTH 6 0
BBX 5 5 1 0
BITMAP
F8
80
F0
80
F8
ENDCHAR
STARTCHAR uni1D09
ENCODING 7433
SWIDTH 600 0
DWIDTH 6 0
BBX 3 7 2 -2
BITMAP
E0
40
40
40
60
00
40
ENDCHAR
STARTCHAR uni1D0A
ENCODING 7434
SWIDTH 600 0
DWIDTH 6 0
BBX 5 5 1 0
BITMAP
08
08
08
88
70
ENDCHAR
STARTCHAR uni1D0B
ENCODING 7435
SWIDTH 600 0
DWIDTH 6 0
BBX 5 5 1 0
BITMAP
88
90
E0
90
88
ENDCHAR
STARTCHAR uni1D0D
ENCODING 7437
SWIDTH 600 0
DWIDTH 6 0
BBX 5 5 1 0
BITMAP
88
D8
A8
88
88
ENDCHAR
STARTCHAR uni1D0E
ENCODING 7438
SWIDTH 600 0
DWIDTH 6 0
BBX 5 5 1 0
BITMAP
88
98
A8
C8
88
ENDCHAR
STARTCHAR uni1D0F
ENCODING 7439
SWIDTH 600 0
DWIDTH 6 0
BBX 5 5 1 0
BITMAP
70
88
88
88
70
ENDCHAR
STARTCHAR uni1D14
ENCODING 7444
SWIDTH 600 0
DWIDTH 6 0
BBX 5 5 1 0
BITMAP
D0
28
E8
A8
50
ENDCHAR
STARTCHAR uni1D18
ENCODING 7448
SWIDTH 600 0
DWIDTH 6 0
BBX 5 5 1 0
BITMAP
F0
88
F0
80
80
ENDCHAR
STARTCHAR uni1D19
ENCODING 7449
SWIDTH 600 0
DWIDTH 6 0
BBX 5 5 1 0
BITMAP
78
88
78
48
88
ENDCHAR
STARTCHAR uni1D1A
ENCODING 7450
SWIDTH 600 0
DWIDTH 6 0
BBX 5 5 1 0
BITMAP
88
48
78
88
78
ENDCHAR
STARTCHAR uni1D1B
ENCODING 7451
SWIDTH 600 0
DWIDTH 6 0
BBX 5 5 1 0
BITMAP
F8
20
20
20
20
ENDCHAR
STARTCHAR uni1D1C
ENCODING 7452
SWIDTH 600 0
DWIDTH 6 0
BBX 5 5 1 0
BITMAP
88
88
88
88
70
ENDCHAR
STARTCHAR uni1D1D
ENCODING 7453
SWIDTH 600 0
DWIDTH 6 0
BBX 5 5 1 0
BITMAP
F8
08
08
08
F0
ENDCHAR
STARTCHAR uni1D1F
ENCODING 7455
SWIDTH 600 0
DWIDTH 6 0
BBX 5 5 1 0
BITMAP
F8
08
F0
08
F0
ENDCHAR
STARTCHAR uni1D20
ENCODING 7456
SWIDTH 600 0
DWIDTH 6 0
BBX 5 5 1 0
BITMAP
88
88
50
50
20
ENDCHAR
STARTCHAR uni1D21
ENCODING 7457
SWIDTH 600 0
DWIDTH 6 0
BBX 5 5 1 0
BITMAP
88
88
A8
A8
50
ENDCHAR
STARTCHAR uni1D22
ENCODING 7458
SWIDTH 600 0
DWIDTH 6 0
BBX 5 5 1 0
BITMAP
F8
08
70
80
F8
ENDCHAR
STARTCHAR uni1D4A
ENCODING 7498
SWIDTH 600 0
DWIDTH 6 0
BBX 3 5 1 2
BITMAP
C0
20
E0
A0
40
ENDCHAR
STARTCHAR uni1D62
ENCODING 7522
SWIDTH 600 0
DWIDTH 6 0
BBX 3 5 2 -2
BITMAP
40
00
C0
40
E0
ENDCHAR
STARTCHAR uni1DBF
ENCODING 7615
SWIDTH 600 0
DWIDTH 6 0
BBX 3 5 1 2
BITMAP
40
A0
E0
A0
40
ENDCHAR
STARTCHAR uni1E04
ENCODING 7684
SWIDTH 600 0
DWIDTH 6 0
BBX 5 9 1 -2
BITMAP
F0
88
88
F0
88
88
F0
00
20
ENDCHAR
STARTCHAR uni1E05
ENCODING 7685
SWIDTH 600 0
DWIDTH 6 0
BBX 5 9 1 -2
BITMAP
80
80
F0
88
88
88
F0
00
20
ENDCHAR
STARTCHAR uni1E06
ENCODING 7686
SWIDTH 600 0
DWIDTH 6 0
BBX 5 9 1 -2
BITMAP
F0
88
88
F0
88
88
F0
00
70
ENDCHAR
STARTCHAR uni1E07
ENCODING 7687
SWIDTH 600 0
DWIDTH 6 0
BBX 5 9 1 -2
BITMAP
80
80
F0
88
88
88
F0
00
70
ENDCHAR
STARTCHAR uni1E0C
ENCODING 7692
SWIDTH 600 0
DWIDTH 6 0
BBX 5 9 1 -2
BITMAP
F0
88
88
88
88
88
F0
00
20
ENDCHAR
STARTCHAR uni1E0D
ENCODING 7693
SWIDTH 600 0
DWIDTH 6 0
BBX 5 9 1 -2
BITMAP
08
08
78
88
88
88
78
00
20
ENDCHAR
STARTCHAR uni1E0E
ENCODING 7694
SWIDTH 600 0
DWIDTH 6 0
BBX 5 9 1 -2
BITMAP
F0
88
88
88
88
88
F0
00
70
ENDCHAR
STARTCHAR uni1E0F
ENCODING 7695
SWIDTH 600 0
DWIDTH 6 0
BBX 5 9 1 -2
BITMAP
08
08
78
88
88
88
78
00
70
ENDCHAR
STARTCHAR uni1E20
ENCODING 7712
SWIDTH 600 0
DWIDTH 6 0
BBX 5 7 1 0
BITMAP
70
00
78
80
98
88
78
ENDCHAR
STARTCHAR uni1E21
ENCODING 7713
SWIDTH 600 0
DWIDTH 6 0
BBX 5 9 1 -2
BITMAP
70
00
78
88
88
88
78
08
70
ENDCHAR
STARTCHAR uni1E24
ENCODING 7716
SWIDTH 600 0
DWIDTH 6 0
BBX 5 9 1 -2
BITMAP
88
88
88
F8
88
88
88
00
20
ENDCHAR
STARTCHAR uni1E25
ENCODING 7717
SWIDTH 600 0
DWIDTH 6 0
BBX 5 9 1 -2
BITMAP
80
80
F0
88
88
88
88
00
20
ENDCHAR
STARTCHAR uni1E26
ENCODING 7718
SWIDTH 600 0
DWIDTH 6 0
BBX 5 7 1 0
BITMAP
50
00
88
88
F8
88
88
ENDCHAR
STARTCHAR uni1E27
ENCODING 7719
SWIDTH 600 0
DWIDTH 6 0
BBX 5 7 1 0
BITMAP
A8
80
F0
88
88
88
88
ENDCHAR
STARTCHAR uni1E32
ENCODING 7730
SWIDTH 600 0
DWIDTH 6 0
BBX 5 9 1 -2
BITMAP
88
90
A0
C0
A0
90
88
00
20
ENDCHAR
STARTCHAR uni1E33
ENCODING 7731
SWIDTH 600 0
DWIDTH 6 0
BBX 4 9 2 -2
BITMAP
80
80
90
A0
C0
A0
90
00
40
ENDCHAR
STARTCHAR uni1E34
ENCODING 7732
SWIDTH 600 0
DWIDTH 6 0
BBX 5 9 1 -2
BITMAP
88
90
A0
C0
A0
90
88
00
70
ENDCHAR
STARTCHAR uni1E35
ENCODING 7733
SWIDTH 600 0
DWIDTH 6 0
BBX 4 9 2 -2
BITMAP
80
80
90
A0
C0
A0
90
00
E0
ENDCHAR
STARTCHAR uni1E36
ENCODING 7734
SWIDTH 600 0
DWIDTH 6 0
BBX 5 9 1 -2
BITMAP
80
80
80
80
80
80
F8
00
20
ENDCHAR
STARTCHAR uni1E37
ENCODING 7735
SWIDTH 600 0
DWIDTH 6 0
BBX 3 9 2 -2
BITMAP
C0
40
40
40
40
40
E0
00
40
ENDCHAR
STARTCHAR uni1E3A
ENCODING 7738
SWIDTH 600 0
DWIDTH 6 0
BBX 5 9 1 -2
BITMAP
80
80
80
80
80
80
F8
00
70
ENDCHAR
STARTCHAR uni1E3B
ENCODING 7739
SWIDTH 600 0
DWIDTH 6 0
BBX 3 9 2 -2
BITMAP
C0
40
40
40
40
40
E0
00
E0
ENDCHAR
STARTCHAR uni1E42
ENCODING 7746
SWIDTH 600 0
DWIDTH 6 0
BBX 5 9 1 -2
BITMAP
88
D8
A8
A8
88
88
88
00
20
ENDCHAR
STARTCHAR uni1E43
ENCODING 7747
SWIDTH 600 0
DWIDTH 6 0
BBX 5 7 1 -2
BITMAP
D0
A8
A8
A8
A8
00
20
ENDCHAR
STARTCHAR uni1E46
ENCODING 7750
SWIDTH 600 0
DWIDTH 6 0
BBX 5 9 1 -2
BITMAP
88
88
C8
A8
98
88
88
00
20
ENDCHAR
STARTCHAR uni1E47
ENCODING 7751
SWIDTH 600 0
DWIDTH 6 0
BBX 5 7 1 -2
BITMAP
F0
88
88
88
88
00
20
ENDCHAR
STARTCHAR uni1E48
ENCODING 7752
SWIDTH 600 0
DWIDTH 6 0
BBX 5 9 1 -2
BITMAP
88
88
C8
A8
98
88
88
00
70
ENDCHAR
STARTCHAR uni1E49
ENCODING 7753
SWIDTH 600 0
DWIDTH 6 0
BBX 5 7 1 -2
BITMAP
F0
88
88
88
88
00
70
ENDCHAR
STARTCHAR uni1E5A
ENCODING 7770
SWIDTH 600 0
DWIDTH 6 0
BBX 5 9 1 -2
BITMAP
F0
88
88
F0
A0
90
88
00
20
ENDCHAR
STARTCHAR uni1E5B
ENCODING 7771
SWIDTH 600 0
DWIDTH 6 0
BBX 4 7 2 -2
BITMAP
B0
C0
80
80
80
00
40
ENDCHAR
STARTCHAR uni1E5C
ENCODING 7772
SWIDTH 600 0
DWIDTH 6 0
BBX 5 9 1 -2
BITMAP
70
00
F0
88
F0
90
88
00
20
ENDCHAR
STARTCHAR uni1E5D
ENCODING 7773
SWIDTH 600 0
DWIDTH 6 0
BBX 4 9 2 -2
BITMAP
E0
00
B0
C0
80
80
80
00
40
ENDCHAR
STARTCHAR uni1E5E
ENCODING 7774
SWIDTH 600 0
DWIDTH 6 0
BBX 5 9 1 -2
BITMAP
F0
88
88
F0
A0
90
88
00
70
ENDCHAR
STARTCHAR uni1E5F
ENCODING 7775
SWIDTH 600 0
DWIDTH 6 0
BBX 4 7 2 -2
BITMAP
B0
C0
80
80
80
00
E0
ENDCHAR
STARTCHAR uni1E62
ENCODING 7778
SWIDTH 600 0
DWIDTH 6 0
BBX 5 9 1 -2
BITMAP
70
88
80
70
08
88
70
00
20
ENDCHAR
STARTCHAR uni1E63
ENCODING 7779
SWIDTH 600 0
DWIDTH 6 0
BBX 5 7 1 -2
BITMAP
78
80
70
08
F0
00
20
ENDCHAR
STARTCHAR uni1E6C
ENCODING 7788
SWIDTH 600 0
DWIDTH 6 0
BBX 5 9 1 -2
BITMAP
F8
20
20
20
20
20
20
00
20
ENDCHAR
STARTCHAR uni1E6D
ENCODING 7789
SWIDTH 600 0
DWIDTH 6 0
BBX 3 9 2 -2
BITMAP
40
40
E0
40
40
40
20
00
40
ENDCHAR
STARTCHAR uni1E6E
ENCODING 7790
SWIDTH 600 0
DWIDTH 6 0
BBX 5 9 1 -2
BITMAP
F8
20
20
20
20
20
20
00
70
ENDCHAR
STARTCHAR uni1E6F
ENCODING 7791
SWIDTH 600 0
DWIDTH 6 0
BBX 3 9 2 -2
BITMAP
40
40
E0
40
40
40
20
00
E0
ENDCHAR
STARTCHAR uni1E72
ENCODING 7794
SWIDTH 600 0
DWIDTH 6 0
BBX 5 9 1 -2
BITMAP
88
88
88
88
88
88
70
00
50
ENDCHAR
STARTCHAR uni1E73
ENCODING 7795
SWIDTH 600 0
DWIDTH 6 0
BBX 5 7 1 -2
BITMAP
88
88
88
88
78
00
50
ENDCHAR
STARTCHAR uni1E7E
ENCODING 7806
SWIDTH 600 0
DWIDTH 6 0
BBX 5 9 1 -2
BITMAP
88
88
88
50
50
20
20
00
20
ENDCHAR
STARTCHAR uni1E7F
ENCODING 7807
SWIDTH 600 0
DWIDTH 6 0
BBX 5 7 1 -2
BITMAP
88
88
50
50
20
00
20
ENDCHAR
STARTCHAR Wdieresis
ENCODING 7812
SWIDTH 600 0
DWIDTH 6 0
BBX 5 7 1 0
BITMAP
50
00
88
A8
A8
A8
50
ENDCHAR
STARTCHAR wdieresis
ENCODING 7813
SWIDTH 600 0
DWIDTH 6 0
BBX 5 7 1 0
BITMAP
50
00
88
88
A8
A8
50
ENDCHAR
STARTCHAR uni1E88
ENCODING 7816
SWIDTH 600 0
DWIDTH 6 0
BBX 5 9 1 -2
BITMAP
88
88
88
A8
A8
A8
50
00
20
ENDCHAR
STARTCHAR uni1E89
ENCODING 7817
SWIDTH 600 0
DWIDTH 6 0
BBX 5 7 1 -2
BITMAP
88
88
A8
A8
50
00
20
ENDCHAR
STARTCHAR uni1E8C
ENCODING 7820
SWIDTH 600 0
DWIDTH 6 0
BBX 5 7 1 0
BITMAP
50
00
88
88
70
88
88
ENDCHAR
STARTCHAR uni1E8D
ENCODING 7821
SWIDTH 600 0
DWIDTH 6 0
BBX 5 7 1 0
BITMAP
50
00
88
50
20
50
88
ENDCHAR
STARTCHAR uni1E92
ENCODING 7826
SWIDTH 600 0
DWIDTH 6 0
BBX 5 9 1 -2
BITMAP
F8
08
10
20
40
80
F8
00
20
ENDCHAR
STARTCHAR uni1E93
ENCODING 7827
SWIDTH 600 0
DWIDTH 6 0
BBX 5 7 1 -2
BITMAP
F8
10
20
40
F8
00
20
ENDCHAR
STARTCHAR uni1E94
ENCODING 7828
SWIDTH 600 0
DWIDTH 6 0
BBX 5 9 1 -2
BITMAP
F8
08
10
20
40
80
F8
00
70
ENDCHAR
STARTCHAR uni1E95
ENCODING 7829
SWIDTH 600 0
DWIDTH 6 0
BBX 5 7 1 -2
BITMAP
F8
10
20
40
F8
00
70
ENDCHAR
STARTCHAR uni1E96
ENCODING 7830
SWIDTH 600 0
DWIDTH 6 0
BBX 5 9 1 -2
BITMAP
80
80
F0
88
88
88
88
00
70
ENDCHAR
STARTCHAR uni1E97
ENCODING 7831
SWIDTH 600 0
DWIDTH 6 0
BBX 5 7 1 0
BITMAP
A8
20
70
20
20
20
10
ENDCHAR
STARTCHAR uni1E9E
ENCODING 7838
SWIDTH 600 0
DWIDTH 6 0
BBX 5 7 1 0
BITMAP
70
88
90
90
88
88
B0
ENDCHAR
STARTCHAR uni1EA0
ENCODING 7840
SWIDTH 600 0
DWIDTH 6 0
BBX 5 9 1 -2
BITMAP
20
50
88
88
F8
88
88
00
20
ENDCHAR
STARTCHAR uni1EA1
ENCODING 7841
SWIDTH 600 0
DWIDTH 6 0
BBX 5 7 1 -2
BITMAP
70
08
78
88
78
00
20
ENDCHAR
STARTCHAR uni1EB8
ENCODING 7864
SWIDTH 600 0
DWIDTH 6 0
BBX 5 9 1 -2
BITMAP
F8
80
80
F0
80
80
F8
00
20
ENDCHAR
STARTCHAR uni1EB9
ENCODING 7865
SWIDTH 600 0
DWIDTH 6 0
BBX 5 7 1 -2
BITMAP
70
88
F8
80
70
00
20
ENDCHAR
STARTCHAR uni1ECA
ENCODING 7882
SWIDTH 600 0
DWIDTH 6 0
BBX 3 9 2 -2
BITMAP
E0
40
40
40
40
40
E0
00
40
ENDCHAR
STARTCHAR uni1ECB
ENCODING 7883
SWIDTH 600 0
DWIDTH 6 0
BBX 3 9 2 -2
BITMAP
40
00
C0
40
40
40
E0
00
40
ENDCHAR
STARTCHAR uni1ECC
ENCODING 7884
SWIDTH 600 0
DWIDTH 6 0
BBX 5 9 1 -2
BITMAP
70
88
88
88
88
88
70
00
20
ENDCHAR
STARTCHAR uni1ECD
ENCODING 7885
SWIDTH 600 0
DWIDTH 6 0
BBX 5 7 1 -2
BITMAP
70
88
88
88
70
00
20
ENDCHAR
STARTCHAR uni1EE4
ENCODING 7908
SWIDTH 600 0
DWIDTH 6 0
BBX 5 9 1 -2
BITMAP
88
88
88
88
88
88
70
00
20
ENDCHAR
STARTCHAR uni1EE5
ENCODING 7909
SWIDTH 600 0
DWIDTH 6 0
BBX 5 7 1 -2
BITMAP
88
88
88
88
78
00
20
ENDCHAR
STARTCHAR uni1EF4
ENCODING 7924
SWIDTH 600 0
DWIDTH 6 0
BBX 5 9 1 -2
BITMAP
88
88
50
20
20
20
20
00
20
ENDCHAR
STARTCHAR uni1EF5
ENCODING 7925
SWIDTH 600 0
DWIDTH 6 0
BBX 5 7 1 -2
BITMAP
88
88
78
08
70
00
20
ENDCHAR
STARTCHAR uni2010
ENCODING 8208
SWIDTH 600 0
DWIDTH 6 0
BBX 3 1 2 3
BITMAP
E0
ENDCHAR
STARTCHAR uni2011
ENCODING 8209
SWIDTH 600 0
DWIDTH 6 0
BBX 3 1 2 3
BITMAP
E0
ENDCHAR
STARTCHAR endash
ENCODING 8211
SWIDTH 600 0
DWIDTH 6 0
BBX 4 1 1 3
BITMAP
F0
ENDCHAR
STARTCHAR emdash
ENCODING 8212
SWIDTH 600 0
DWIDTH 6 0
BBX 5 1 1 3
BITMAP
F8
ENDCHAR
STARTCHAR dblverticalbar
ENCODING 8214
SWIDTH 600 0
DWIDTH 6 0
BBX 3 7 2 0
BITMAP
A0
A0
A0
A0
A0
A0
A0
ENDCHAR
STARTCHAR underscoredbl
ENCODING 8215
SWIDTH 600 0
DWIDTH 6 0
BBX 5 3 1 -2
BITMAP
F8
00
F8
ENDCHAR
STARTCHAR quoteleft
ENCODING 8216
SWIDTH 600 0
DWIDTH 6 0
BBX 2 3 3 4
BITMAP
40
80
80
ENDCHAR
STARTCHAR quoteright
ENCODING 8217
SWIDTH 600 0
DWIDTH 6 0
BBX 2 3 2 4
BITMAP
40
40
80
ENDCHAR
STARTCHAR quotesinglbase
ENCODING 8218
SWIDTH 600 0
DWIDTH 6 0
BBX 2 3 2 -1
BITMAP
40
40
80
ENDCHAR
STARTCHAR quotereversed
ENCODING 8219
SWIDTH 600 0
DWIDTH 6 0
BBX 2 3 3 4
BITMAP
80
80
40
ENDCHAR
STARTCHAR quotedblleft
ENCODING 8220
SWIDTH 600 0
DWIDTH 6 0
BBX 5 3 1 4
BITMAP
48
90
90
ENDCHAR
STARTCHAR quotedblright
ENCODING 8221
SWIDTH 600 0
DWIDTH 6 0
BBX 5 3 1 4
BITMAP
48
48
90
ENDCHAR
STARTCHAR quotedblbase
ENCODING 8222
SWIDTH 600 0
DWIDTH 6 0
BBX 5 3 1 -1
BITMAP
48
48
90
ENDCHAR
STARTCHAR uni201F
ENCODING 8223
SWIDTH 600 0
DWIDTH 6 0
BBX 5 3 1 4
BITMAP
90
90
48
ENDCHAR
STARTCHAR dagger
ENCODING 8224
SWIDTH 600 0
DWIDTH 6 0
BBX 5 9 1 -2
BITMAP
20
20
F8
20
20
20
20
20
20
ENDCHAR
STARTCHAR daggerdbl
ENCODING 8225
SWIDTH 600 0
DWIDTH 6 0
BBX 5 9 1 -2
BITMAP
20
20
F8
20
20
20
F8
20
20
ENDCHAR
STARTCHAR bullet
ENCODING 8226
SWIDTH 600 0
DWIDTH 6 0
BBX 3 3 2 2
BITMAP
E0
E0
E0
ENDCHAR
STARTCHAR ellipsis
ENCODING 8230
SWIDTH 600 0
DWIDTH 6 0
BBX 5 1 1 0
BITMAP
A8
ENDCHAR
STARTCHAR perthousand
ENCODING 8240
SWIDTH 600 0
DWIDTH 6 0
BBX 5 7 1 0
BITMAP
88
90
20
40
80
28
28
ENDCHAR
STARTCHAR minute
ENCODING 8242
SWIDTH 600 0
DWIDTH 6 0
BBX 2 4 1 3
BITMAP
40
40
80
80
ENDCHAR
STARTCHAR second
ENCODING 8243
SWIDTH 600 0
DWIDTH 6 0
BBX 5 4 1 3
BITMAP
48
48
90
90
ENDCHAR
STARTCHAR uni2035
ENCODING 8245
SWIDTH 600 0
DWIDTH 6 0
BBX 2 4 4 3
BITMAP
80
80
40
40
ENDCHAR
STARTCHAR uni2036
ENCODING 8246
SWIDTH 600 0
DWIDTH 6 0
BBX 5 4 1 3
BITMAP
90
90
48
48
ENDCHAR
STARTCHAR guilsinglleft
ENCODING 8249
SWIDTH 600 0
DWIDTH 6 0
BBX 2 3 3 1
BITMAP
40
80
40
ENDCHAR
STARTCHAR guilsinglright
ENCODING 8250
SWIDTH 600 0
DWIDTH 6 0
BBX 2 3 2 1
BITMAP
80
40
80
ENDCHAR
STARTCHAR uni203B
ENCODING 8251
SWIDTH 600 0
DWIDTH 6 0
BBX 5 9 1 -2
BITMAP
A8
88
50
20
A8
20
50
88
A8
ENDCHAR
STARTCHAR exclamdbl
ENCODING 8252
SWIDTH 600 0
DWIDTH 6 0
BBX 3 7 2 0
BITMAP
A0
A0
A0
A0
A0
00
A0
ENDCHAR
STARTCHAR uni203D
ENCODING 8253
SWIDTH 600 0
DWIDTH 6 0
BBX 5 7 1 0
BITMAP
70
A8
28
30
20
00
20
ENDCHAR
STARTCHAR uni203E
ENCODING 8254
SWIDTH 600 0
DWIDTH 6 0
BBX 5 1 1 6
BITMAP
F8
ENDCHAR
STARTCHAR uni203F
ENCODING 8255
SWIDTH 600 0
DWIDTH 6 0
BBX 5 2 1 -2
BITMAP
88
70
ENDCHAR
STARTCHAR uni2040
ENCODING 8256
SWIDTH 600 0
DWIDTH 6 0
BBX 5 2 1 5
BITMAP
70
88
ENDCHAR
STARTCHAR fraction
ENCODING 8260
SWIDTH 600 0
DWIDTH 6 0
BBX 5 9 1 -2
BITMAP
08
08
10
10
20
40
40
80
80
ENDCHAR
STARTCHAR uni2047
ENCODING 8263
SWIDTH 600 0
DWIDTH 6 0
BBX 5 7 1 0
BITMAP
50
A8
28
48
50
00
50
ENDCHAR
STARTCHAR uni2048
ENCODING 8264
SWIDTH 600 0
DWIDTH 6 0
BBX 5 7 1 0
BITMAP
48
A8
28
48
48
00
48
ENDCHAR
STARTCHAR uni2049
ENCODING 8265
SWIDTH 600 0
DWIDTH 6 0
BBX 5 7 1 0
BITMAP
90
A8
88
90
90
00
90
ENDCHAR
STARTCHAR uni204B
ENCODING 8267
SWIDTH 600 0
DWIDTH 6 0
BBX 5 7 1 0
BITMAP
B0
A8
A8
B0
A0
A0
A0
ENDCHAR
STARTCHAR uni204F
ENCODING 8271
SWIDTH 600 0
DWIDTH 6 0
BBX 2 6 3 -1
BITMAP
80
00
00
80
80
40
ENDCHAR
STARTCHAR uni2052
ENCODING 8274
SWIDTH 600 0
DWIDTH 6 0
BBX 5 7 1 0
BITMAP
88
08
10
20
40
80
88
ENDCHAR
STARTCHAR uni2053
ENCODING 8275
SWIDTH 600 0
DWIDTH 6 0
BBX 5 3 1 2
BITMAP
40
A8
10
ENDCHAR
STARTCHAR uni2054
ENCODING 8276
SWIDTH 600 0
DWIDTH 6 0
BBX 5 2 1 -2
BITMAP
70
88
ENDCHAR
STARTCHAR uni2056
ENCODING 8278
SWIDTH 600 0
DWIDTH 6 0
BBX 5 5 1 0
BITMAP
08
00
80
00
08
ENDCHAR
STARTCHAR uni2058
ENCODING 8280
SWIDTH 600 0
DWIDTH 6 0
BBX 5 5 1 0
BITMAP
20
00
88
00
20
ENDCHAR
STARTCHAR uni2059
ENCODING 8281
SWIDTH 600 0
DWIDTH 6 0
BBX 5 5 1 0
BITMAP
88
00
20
00
88
ENDCHAR
STARTCHAR uni205A
ENCODING 8282
SWIDTH 600 0
DWIDTH 6 0
BBX 1 7 3 0
BITMAP
80
00
00
00
00
00
80
ENDCHAR
STARTCHAR uni205B
ENCODING 8283
SWIDTH 600 0
DWIDTH 6 0
BBX 5 9 1 -2
BITMAP
20
00
00
00
88
00
00
00
20
ENDCHAR
STARTCHAR uni205C
ENCODING 8284
SWIDTH 600 0
DWIDTH 6 0
BBX 5 5 1 0
BITMAP
A8
20
F8
20
A8
ENDCHAR
STARTCHAR uni205D
ENCODING 8285
SWIDTH 600 0
DWIDTH 6 0
BBX 1 7 3 0
BITMAP
80
00
00
80
00
00
80
ENDCHAR
STARTCHAR uni205E
ENCODING 8286
SWIDTH 600 0
DWIDTH 6 0
BBX 1 7 3 0
BITMAP
80
00
80
00
80
00
80
ENDCHAR
STARTCHAR uni2070
ENCODING 8304
SWIDTH 600 0
DWIDTH 6 0
BBX 3 5 2 2
BITMAP
40
A0
A0
A0
40
ENDCHAR
STARTCHAR uni2071
ENCODING 8305
SWIDTH 600 0
DWIDTH 6 0
BBX 3 5 2 2
BITMAP
40
00
C0
40
E0
ENDCHAR
STARTCHAR uni2074
ENCODING 8308
SWIDTH 600 0
DWIDTH 6 0
BBX 3 5 2 2
BITMAP
20
60
A0
E0
20
ENDCHAR
STARTCHAR uni2075
ENCODING 8309
SWIDTH 600 0
DWIDTH 6 0
BBX 3 5 2 2
BITMAP
E0
80
C0
20
C0
ENDCHAR
STARTCHAR uni2076
ENCODING 8310
SWIDTH 600 0
DWIDTH 6 0
BBX 3 5 2 2
BITMAP
40
80
C0
A0
40
ENDCHAR
STARTCHAR uni2077
ENCODING 8311
SWIDTH 600 0
DWIDTH 6 0
BBX 3 5 2 2
BITMAP
E0
20
40
80
80
ENDCHAR
STARTCHAR uni2078
ENCODING 8312
SWIDTH 600 0
DWIDTH 6 0
BBX 3 5 2 2
BITMAP
40
A0
40
A0
40
ENDCHAR
STARTCHAR uni2079
ENCODING 8313
SWIDTH 600 0
DWIDTH 6 0
BBX 3 5 2 2
BITMAP
40
A0
60
20
40
ENDCHAR
STARTCHAR uni207A
ENCODING 8314
SWIDTH 600 0
DWIDTH 6 0
BBX 3 3 2 3
BITMAP
40
E0
40
ENDCHAR
STARTCHAR uni207B
ENCODING 8315
SWIDTH 600 0
DWIDTH 6 0
BBX 3 1 2 4
BITMAP
E0
ENDCHAR
STARTCHAR uni207C
ENCODING 8316
SWIDTH 600 0
DWIDTH 6 0
BBX 3 3 2 3
BITMAP
E0
00
E0
ENDCHAR
STARTCHAR uni207D
ENCODING 8317
SWIDTH 600 0
DWIDTH 6 0
BBX 2 5 3 2
BITMAP
40
80
80
80
40
ENDCHAR
STARTCHAR uni207E
ENCODING 8318
SWIDTH 600 0
DWIDTH 6 0
BBX 2 5 2 2
BITMAP
80
40
40
40
80
ENDCHAR
STARTCHAR uni207F
ENCODING 8319
SWIDTH 600 0
DWIDTH 6 0
BBX 3 3 2 2
BITMAP
C0
A0
A0
ENDCHAR
STARTCHAR uni2080
ENCODING 8320
SWIDTH 600 0
DWIDTH 6 0
BBX 3 5 2 -2
BITMAP
40
A0
A0
A0
40
ENDCHAR
STARTCHAR uni2081
ENCODING 8321
SWIDTH 600 0
DWIDTH 6 0
BBX 3 5 2 -2
BITMAP
40
C0
40
40
E0
ENDCHAR
STARTCHAR uni2082
ENCODING 8322
SWIDTH 600 0
DWIDTH 6 0
BBX 3 5 2 -2
BITMAP
C0
20
40
80
E0
ENDCHAR
STARTCHAR uni2083
ENCODING 8323
SWIDTH 600 0
DWIDTH 6 0
BBX 3 5 2 -2
BITMAP
C0
20
C0
20
C0
ENDCHAR
STARTCHAR uni2084
ENCODING 8324
SWIDTH 600 0
DWIDTH 6 0
BBX 3 5 2 -2
BITMAP
20
60
A0
E0
20
ENDCHAR
STARTCHAR uni2085
ENCODING 8325
SWIDTH 600 0
DWIDTH 6 0
BBX 3 5 2 -2
BITMAP
E0
80
C0
20
C0
ENDCHAR
STARTCHAR uni2086
ENCODING 8326
SWIDTH 600 0
DWIDTH 6 0
BBX 3 5 2 -2
BITMAP
40
80
C0
A0
40
ENDCHAR
STARTCHAR uni2087
ENCODING 8327
SWIDTH 600 0
DWIDTH 6 0
BBX 3 5 2 -2
BITMAP
E0
20
40
80
80
ENDCHAR
STARTCHAR uni2088
ENCODING 8328
SWIDTH 600 0
DWIDTH 6 0
BBX 3 5 2 -2
BITMAP
40
A0
40
A0
40
ENDCHAR
STARTCHAR uni2089
ENCODING 8329
SWIDTH 600 0
DWIDTH 6 0
BBX 3 5 2 -2
BITMAP
40
A0
60
20
40
ENDCHAR
STARTCHAR uni208A
ENCODING 8330
SWIDTH 600 0
DWIDTH 6 0
BBX 3 3 2 -1
BITMAP
40
E0
40
ENDCHAR
STARTCHAR uni208B
ENCODING 8331
SWIDTH 600 0
DWIDTH 6 0
BBX 3 1 2 0
BITMAP
E0
ENDCHAR
STARTCHAR uni208C
ENCODING 8332
SWIDTH 600 0
DWIDTH 6 0
BBX 3 3 2 -1
BITMAP
E0
00
E0
ENDCHAR
STARTCHAR uni208D
ENCODING 8333
SWIDTH 600 0
DWIDTH 6 0
BBX 2 5 3 -2
BITMAP
40
80
80
80
40
ENDCHAR
STARTCHAR uni208E
ENCODING 8334
SWIDTH 600 0
DWIDTH 6 0
BBX 2 5 2 -2
BITMAP
80
40
40
40
80
ENDCHAR
STARTCHAR uni2099
ENCODING 8345
SWIDTH 600 0
DWIDTH 6 0
BBX 3 3 2 -2
BITMAP
C0
A0
A0
ENDCHAR
STARTCHAR peseta
ENCODING 8359
SWIDTH 600 0
DWIDTH 6 0
BBX 5 7 1 0
BITMAP
C0
A0
C0
90
B8
90
88
ENDCHAR
STARTCHAR uni20AA
ENCODING 8362
SWIDTH 600 0
DWIDTH 6 0
BBX 5 7 1 0
BITMAP
C8
A8
A8
88
A8
A8
B0
ENDCHAR
STARTCHAR Euro
ENCODING 8364
SWIDTH 600 0
DWIDTH 6 0
BBX 5 7 1 0
BITMAP
30
48
E0
40
E0
48
30
ENDCHAR
STARTCHAR uni2117
ENCODING 8471
SWIDTH 600 0
DWIDTH 6 0
BBX 5 9 1 -2
BITMAP
70
88
E8
D8
D8
E8
C8
88
70
ENDCHAR
STARTCHAR Omega
ENCODING 8486
SWIDTH 600 0
DWIDTH 6 0
BBX 5 7 1 0
BITMAP
70
88
88
88
88
50
D8
ENDCHAR
STARTCHAR uni2127
ENCODING 8487
SWIDTH 600 0
DWIDTH 6 0
BBX 5 7 1 0
BITMAP
D8
50
88
88
88
88
70
ENDCHAR
STARTCHAR uni2129
ENCODING 8489
SWIDTH 600 0
DWIDTH 6 0
BBX 3 5 2 0
BITMAP
80
40
40
40
60
ENDCHAR
STARTCHAR uni2132
ENCODING 8498
SWIDTH 600 0
DWIDTH 6 0
BBX 5 7 1 0
BITMAP
08
08
08
78
08
08
F8
ENDCHAR
STARTCHAR uni214B
ENCODING 8523
SWIDTH 600 0
DWIDTH 6 0
BBX 5 7 1 0
BITMAP
B0
48
A8
10
28
28
10
ENDCHAR
STARTCHAR uni214E
ENCODING 8526
SWIDTH 600 0
DWIDTH 6 0
BBX 5 5 1 0
BITMAP
08
08
78
08
F8
ENDCHAR
STARTCHAR uni2150
ENCODING 8528
SWIDTH 600 0
DWIDTH 6 0
BBX 5 9 1 -2
BITMAP
80
80
80
80
B8
08
10
20
20
ENDCHAR
STARTCHAR uni2151
ENCODING 8529
SWIDTH 600 0
DWIDTH 6 0
BBX 5 9 1 -2
BITMAP
80
80
80
80
90
28
18
08
10
ENDCHAR
STARTCHAR uni2152
ENCODING 8530
SWIDTH 600 0
DWIDTH 6 0
BBX 5 9 1 -2
BITMAP
40
40
40
40
00
90
A8
A8
90
ENDCHAR
STARTCHAR onethird
ENCODING 8531
SWIDTH 600 0
DWIDTH 6 0
BBX 5 9 1 -2
BITMAP
80
80
80
80
B0
08
30
08
30
ENDCHAR
STARTCHAR twothirds
ENCODING 8532
SWIDTH 600 0
DWIDTH 6 0
BBX 5 9 1 -2
BITMAP
80
40
40
80
D0
08
10
08
10
ENDCHAR
STARTCHAR uni2155
ENCODING 8533
SWIDTH 600 0
DWIDTH 6 0
BBX 5 9 1 -2
BITMAP
80
80
80
80
B8
20
30
08
30
ENDCHAR
STARTCHAR uni2156
ENCODING 8534
SWIDTH 600 0
DWIDTH 6 0
BBX 5 9 1 -2
BITMAP
80
40
40
80
D8
10
18
08
10
ENDCHAR
STARTCHAR uni2157
ENCODING 8535
SWIDTH 600 0
DWIDTH 6 0
BBX 5 9 1 -2
BITMAP
80
40
80
40
98
10
18
08
10
ENDCHAR
STARTCHAR uni2158
ENCODING 8536
SWIDTH 600 0
DWIDTH 6 0
BBX 5 9 1 -2
BITMAP
20
60
A0
E0
38
10
18
08
10
ENDCHAR
STARTCHAR uni2159
ENCODING 8537
SWIDTH 600 0
DWIDTH 6 0
BBX 5 9 1 -2
BITMAP
80
80
80
80
90
20
30
28
10
ENDCHAR
STARTCHAR uni215A
ENCODING 8538
SWIDTH 600 0
DWIDTH 6 0
BBX 5 9 1 -2
BITMAP
C0
80
C0
40
90
20
30
28
10
ENDCHAR
STARTCHAR oneeighth
ENCODING 8539
SWIDTH 600 0
DWIDTH 6 0
BBX 5 9 1 -2
BITMAP
80
80
80
80
90
28
10
28
10
ENDCHAR
STARTCHAR threeeighths
ENCODING 8540
SWIDTH 600 0
DWIDTH 6 0
BBX 5 9 1 -2
BITMAP
80
40
80
40
90
28
10
28
10
ENDCHAR
STARTCHAR fiveeighths
ENCODING 8541
SWIDTH 600 0
DWIDTH 6 0
BBX 5 9 1 -2
BITMAP
C0
80
C0
40
90
28
10
28
10
ENDCHAR
STARTCHAR seveneighths
ENCODING 8542
SWIDTH 600 0
DWIDTH 6 0
BBX 5 9 1 -2
BITMAP
E0
20
40
80
90
28
10
28
10
ENDCHAR
STARTCHAR uni2189
ENCODING 8585
SWIDTH 600 0
DWIDTH 6 0
BBX 5 9 1 -2
BITMAP
40
A0
A0
40
10
08
10
08
10
ENDCHAR
STARTCHAR uni218A
ENCODING 8586
SWIDTH 600 0
DWIDTH 6 0
BBX 5 7 1 0
BITMAP
F8
08
10
60
80
88
70
ENDCHAR
STARTCHAR uni218B
ENCODING 8587
SWIDTH 600 0
DWIDTH 6 0
BBX 5 7 1 0
BITMAP
70
88
80
60
40
80
F8
ENDCHAR
STARTCHAR arrowleft
ENCODING 8592
SWIDTH 600 0
DWIDTH 6 0
BBX 5 5 1 1
BITMAP
20
40
F8
40
20
ENDCHAR
STARTCHAR arrowup
ENCODING 8593
SWIDTH 600 0
DWIDTH 6 0
BBX 5 5 1 1
BITMAP
20
70
A8
20
20
ENDCHAR
STARTCHAR arrowright
ENCODING 8594
SWIDTH 600 0
DWIDTH 6 0
BBX 5 5 1 1
BITMAP
20
10
F8
10
20
ENDCHAR
STARTCHAR arrowdown
ENCODING 8595
SWIDTH 600 0
DWIDTH 6 0
BBX 5 5 1 1
BITMAP
20
20
A8
70
20
ENDCHAR
STARTCHAR arrowboth
ENCODING 8596
SWIDTH 600 0
DWIDTH 6 0
BBX 5 5 1 1
BITMAP
50
88
F8
88
50
ENDCHAR
STARTCHAR arrowupdn
ENCODING 8597
SWIDTH 600 0
DWIDTH 6 0
BBX 5 7 1 0
BITMAP
20
70
A8
20
A8
70
20
ENDCHAR
STARTCHAR uni2196
ENCODING 8598
SWIDTH 600 0
DWIDTH 6 0
BBX 5 5 1 1
BITMAP
F0
C0
A0
90
08
ENDCHAR
STARTCHAR uni2197
ENCODING 8599
SWIDTH 600 0
DWIDTH 6 0
BBX 5 5 1 1
BITMAP
78
18
28
48
80
ENDCHAR
STARTCHAR uni2198
ENCODING 8600
SWIDTH 600 0
DWIDTH 6 0
BBX 5 5 1 1
BITMAP
80
48
28
18
78
ENDCHAR
STARTCHAR uni2199
ENCODING 8601
SWIDTH 600 0
DWIDTH 6 0
BBX 5 5 1 1
BITMAP
08
90
A0
C0
F0
ENDCHAR
STARTCHAR uni21A4
ENCODING 8612
SWIDTH 600 0
DWIDTH 6 0
BBX 5 5 1 1
BITMAP
28
48
F8
48
28
ENDCHAR
STARTCHAR uni21A5
ENCODING 8613
SWIDTH 600 0
DWIDTH 6 0
BBX 5 5 1 1
BITMAP
20
70
A8
20
F8
ENDCHAR
STARTCHAR uni21A6
ENCODING 8614
SWIDTH 600 0
DWIDTH 6 0
BBX 5 5 1 1
BITMAP
A0
90
F8
90
A0
ENDCHAR
STARTCHAR uni21A7
ENCODING 8615
SWIDTH 600 0
DWIDTH 6 0
BBX 5 5 1 1
BITMAP
F8
20
A8
70
20
ENDCHAR
STARTCHAR arrowupdnbse
ENCODING 8616
SWIDTH 600 0
DWIDTH 6 0
BBX 5 7 1 0
BITMAP
20
70
A8
20
A8
70
F8
ENDCHAR
STARTCHAR uni21B4
ENCODING 8628
SWIDTH 600 0
DWIDTH 6 0
BBX 5 5 1 1
BITMAP
E0
20
A8
70
20
ENDCHAR
STARTCHAR carriagereturn
ENCODING 8629
SWIDTH 600 0
DWIDTH 6 0
BBX 5 6 1 1
BITMAP
08
28
48
F8
40
20
ENDCHAR
STARTCHAR uni21B9
ENCODING 8633
SWIDTH 600 0
DWIDTH 6 0
BBX 5 9 1 -2
BITMAP
A0
C0
F8
C0
A8
18
F8
18
28
ENDCHAR
STARTCHAR uni21BC
ENCODING 8636
SWIDTH 600 0
DWIDTH 6 0
BBX 5 3 1 3
BITMAP
20
40
F8
ENDCHAR
STARTCHAR uni21BD
ENCODING 8637
SWIDTH 600 0
DWIDTH 6 0
BBX 5 3 1 1
BITMAP
F8
40
20
ENDCHAR
STARTCHAR uni21BE
ENCODING 8638
SWIDTH 600 0
DWIDTH 6 0
BBX 3 5 3 1
BITMAP
80
C0
A0
80
80
ENDCHAR
STARTCHAR uni21BF
ENCODING 8639
SWIDTH 600 0
DWIDTH 6 0
BBX 3 5 1 1
BITMAP
20
60
A0
20
20
ENDCHAR
STARTCHAR uni21C0
ENCODING 8640
SWIDTH 600 0
DWIDTH 6 0
BBX 5 3 1 3
BITMAP
20
10
F8
ENDCHAR
STARTCHAR uni21C1
ENCODING 8641
SWIDTH 600 0
DWIDTH 6 0
BBX 5 3 1 1
BITMAP
F8
10
20
ENDCHAR
STARTCHAR uni21C2
ENCODING 8642
SWIDTH 600 0
DWIDTH 6 0
BBX 3 5 3 1
BITMAP
80
80
A0
C0
80
ENDCHAR
STARTCHAR uni21C3
ENCODING 8643
SWIDTH 600 0
DWIDTH 6 0
BBX 3 5 1 1
BITMAP
20
20
A0
60
20
ENDCHAR
STARTCHAR uni21CB
ENCODING 8651
SWIDTH 600 0
DWIDTH 6 0
BBX 5 7 1 0
BITMAP
20
40
F8
00
F8
10
20
ENDCHAR
STARTCHAR uni21CC
ENCODING 8652
SWIDTH 600 0
DWIDTH 6 0
BBX 5 7 1 0
BITMAP
20
10
F8
00
F8
40
20
ENDCHAR
STARTCHAR arrowdblleft
ENCODING 8656
SWIDTH 600 0
DWIDTH 6 0
BBX 5 5 1 1
BITMAP
30
58
80
58
30
ENDCHAR
STARTCHAR arrowdblup
ENCODING 8657
SWIDTH 600 0
DWIDTH 6 0
BBX 5 7 1 0
BITMAP
20
50
88
D8
50
50
50
ENDCHAR
STARTCHAR arrowdblright
ENCODING 8658
SWIDTH 600 0
DWIDTH 6 0
BBX 5 5 1 1
BITMAP
60
D0
08
D0
60
ENDCHAR
STARTCHAR arrowdbldown
ENCODING 8659
SWIDTH 600 0
DWIDTH 6 0
BBX 5 7 1 0
BITMAP
50
50
50
D8
88
50
20
ENDCHAR
STARTCHAR uni21E4
ENCODING 8676
SWIDTH 600 0
DWIDTH 6 0
BBX 5 5 1 1
BITMAP
A0
C0
F8
C0
A0
ENDCHAR
STARTCHAR uni21E5
ENCODING 8677
SWIDTH 600 0
DWIDTH 6 0
BBX 5 5 1 1
BITMAP
28
18
F8
18
28
ENDCHAR
STARTCHAR uni21E6
ENCODING 8678
SWIDTH 600 0
DWIDTH 6 0
BBX 5 5 1 1
BITMAP
30
58
88
58
30
ENDCHAR
STARTCHAR uni21E7
ENCODING 8679
SWIDTH 600 0
DWIDTH 6 0
BBX 5 7 1 0
BITMAP
20
50
88
D8
50
50
70
ENDCHAR
STARTCHAR uni21E8
ENCODING 8680
SWIDTH 600 0
DWIDTH 6 0
BBX 5 5 1 1
BITMAP
60
D0
88
D0
60
ENDCHAR
STARTCHAR uni21E9
ENCODING 8681
SWIDTH 600 0
DWIDTH 6 0
BBX 5 7 1 0
BITMAP
70
50
50
D8
88
50
20
ENDCHAR
STARTCHAR uni21EA
ENCODING 8682
SWIDTH 600 0
DWIDTH 6 0
BBX 5 7 1 0
BITMAP
20
50
88
D8
70
50
70
ENDCHAR
STARTCHAR partialdiff
ENCODING 8706
SWIDTH 600 0
DWIDTH 6 0
BBX 5 7 1 0
BITMAP
70
88
08
78
88
88
70
ENDCHAR
STARTCHAR Delta
ENCODING 8710
SWIDTH 600 0
DWIDTH 6 0
BBX 5 7 1 0
BITMAP
20
20
50
50
88
88
F8
ENDCHAR
STARTCHAR gradient
ENCODING 8711
SWIDTH 600 0
DWIDTH 6 0
BBX 5 7 1 0
BITMAP
F8
88
88
50
50
20
20
ENDCHAR
STARTCHAR element
ENCODING 8712
SWIDTH 600 0
DWIDTH 6 0
BBX 5 7 1 0
BITMAP
78
80
80
F8
80
80
78
ENDCHAR
STARTCHAR uni220A
ENCODING 8714
SWIDTH 600 0
DWIDTH 6 0
BBX 5 5 1 1
BITMAP
78
80
F8
80
78
ENDCHAR
STARTCHAR suchthat
ENCODING 8715
SWIDTH 600 0
DWIDTH 6 0
BBX 5 7 1 0
BITMAP
F0
08
08
F8
08
08
F0
ENDCHAR
STARTCHAR uni220D
ENCODING 8717
SWIDTH 600 0
DWIDTH 6 0
BBX 5 5 1 1
BITMAP
F0
08
F8
08
F0
ENDCHAR
STARTCHAR product
ENCODING 8719
SWIDTH 600 0
DWIDTH 6 0
BBX 5 9 1 -2
BITMAP
F8
88
88
88
88
88
88
88
88
ENDCHAR
STARTCHAR uni2210
ENCODING 8720
SWIDTH 600 0
DWIDTH 6 0
BBX 5 9 1 -2
BITMAP
88
88
88
88
88
88
88
88
F8
ENDCHAR
STARTCHAR summation
ENCODING 8721
SWIDTH 600 0
DWIDTH 6 0
BBX 5 9 1 -2
BITMAP
F8
80
40
20
10
20
40
80
F8
ENDCHAR
STARTCHAR minus
ENCODING 8722
SWIDTH 600 0
DWIDTH 6 0
BBX 5 1 1 3
BITMAP
F8
ENDCHAR
STARTCHAR uni2213
ENCODING 8723
SWIDTH 600 0
DWIDTH 6 0
BBX 5 7 1 0
BITMAP
F8
00
20
20
F8
20
20
ENDCHAR
STARTCHAR uni2214
ENCODING 8724
SWIDTH 600 0
DWIDTH 6 0
BBX 5 7 1 0
BITMAP
20
00
20
20
F8
20
20
ENDCHAR
STARTCHAR uni2218
ENCODING 8728
SWIDTH 600 0
DWIDTH 6 0
BBX 3 4 2 1
BITMAP
40
A0
A0
40
ENDCHAR
STARTCHAR uni2219
ENCODING 8729
SWIDTH 600 0
DWIDTH 6 0
BBX 3 3 2 2
BITMAP
40
E0
40
ENDCHAR
STARTCHAR radical
ENCODING 8730
SWIDTH 600 0
DWIDTH 6 0
BBX 5 7 1 0
BITMAP
38
20
20
20
A0
60
20
ENDCHAR
STARTCHAR uni221B
ENCODING 8731
SWIDTH 600 0
DWIDTH 6 0
BBX 5 7 1 0
BITMAP
98
50
90
50
90
30
10
ENDCHAR
STARTCHAR uni221C
ENCODING 8732
SWIDTH 600 0
DWIDTH 6 0
BBX 5 7 1 0
BITMAP
68
A8
E8
28
08
18
08
ENDCHAR
STARTCHAR proportional
ENCODING 8733
SWIDTH 600 0
DWIDTH 6 0
BBX 5 5 1 1
BITMAP
50
A8
A0
A8
50
ENDCHAR
STARTCHAR infinity
ENCODING 8734
SWIDTH 600 0
DWIDTH 6 0
BBX 5 5 1 1
BITMAP
50
A8
A8
A8
50
ENDCHAR
STARTCHAR orthogonal
ENCODING 8735
SWIDTH 600 0
DWIDTH 6 0
BBX 5 5 1 1
BITMAP
80
80
80
80
F8
ENDCHAR
STARTCHAR uni2223
ENCODING 8739
SWIDTH 600 0
DWIDTH 6 0
BBX 1 7 3 0
BITMAP
80
80
80
80
80
80
80
ENDCHAR
STARTCHAR uni2225
ENCODING 8741
SWIDTH 600 0
DWIDTH 6 0
BBX 3 7 2 0
BITMAP
A0
A0
A0
A0
A0
A0
A0
ENDCHAR
STARTCHAR logicaland
ENCODING 8743
SWIDTH 600 0
DWIDTH 6 0
BBX 5 3 1 2
BITMAP
20
50
88
ENDCHAR
STARTCHAR logicalor
ENCODING 8744
SWIDTH 600 0
DWIDTH 6 0
BBX 5 3 1 2
BITMAP
88
50
20
ENDCHAR
STARTCHAR intersection
ENCODING 8745
SWIDTH 600 0
DWIDTH 6 0
BBX 5 5 1 1
BITMAP
70
88
88
88
88
ENDCHAR
STARTCHAR union
ENCODING 8746
SWIDTH 600 0
DWIDTH 6 0
BBX 5 5 1 1
BITMAP
88
88
88
88
70
ENDCHAR
STARTCHAR integral
ENCODING 8747
SWIDTH 600 0
DWIDTH 6 0
BBX 5 9 1 -2
BITMAP
10
28
20
20
20
20
20
A0
40
ENDCHAR
STARTCHAR uni222E
ENCODING 8750
SWIDTH 600 0
DWIDTH 6 0
BBX 5 9 1 -2
BITMAP
10
28
20
70
A8
70
20
A0
40
ENDCHAR
STARTCHAR therefore
ENCODING 8756
SWIDTH 600 0
DWIDTH 6 0
BBX 5 5 1 1
BITMAP
20
00
00
00
88
ENDCHAR
STARTCHAR uni2235
ENCODING 8757
SWIDTH 600 0
DWIDTH 6 0
BBX 5 5 1 1
BITMAP
88
00
00
00
20
ENDCHAR
STARTCHAR uni2238
ENCODING 8760
SWIDTH 600 0
DWIDTH 6 0
BBX 5 3 1 3
BITMAP
20
00
F8
ENDCHAR
STARTCHAR uni223A
ENCODING 8762
SWIDTH 600 0
DWIDTH 6 0
BBX 5 5 1 1
BITMAP
88
00
F8
00
88
ENDCHAR
STARTCHAR similar
ENCODING 8764
SWIDTH 600 0
DWIDTH 6 0
BBX 5 3 1 2
BITMAP
40
A8
10
ENDCHAR
STARTCHAR uni223D
ENCODING 8765
SWIDTH 600 0
DWIDTH 6 0
BBX 5 3 1 2
BITMAP
10
A8
40
ENDCHAR
STARTCHAR uni223F
ENCODING 8767
SWIDTH 600 0
DWIDTH 6 0
BBX 5 5 1 1
BITMAP
40
A0
A8
28
10
ENDCHAR
STARTCHAR uni2242
ENCODING 8770
SWIDTH 600 0
DWIDTH 6 0
BBX 5 5 1 1
BITMAP
F8
00
40
A8
10
ENDCHAR
STARTCHAR uni2243
ENCODING 8771
SWIDTH 600 0
DWIDTH 6 0
BBX 5 5 1 1
BITMAP
40
A8
10
00
F8
ENDCHAR
STARTCHAR congruent
ENCODING 8773
SWIDTH 600 0
DWIDTH 6 0
BBX 5 7 1 0
BITMAP
40
A8
10
00
F8
00
F8
ENDCHAR
STARTCHAR approxequal
ENCODING 8776
SWIDTH 600 0
DWIDTH 6 0
BBX 5 6 1 0
BITMAP
40
A8
10
40
A8
10
ENDCHAR
STARTCHAR uni224C
ENCODING 8780
SWIDTH 600 0
DWIDTH 6 0
BBX 5 7 1 0
BITMAP
10
A8
40
00
F8
00
F8
ENDCHAR
STARTCHAR uni224D
ENCODING 8781
SWIDTH 600 0
DWIDTH 6 0
BBX 5 5 1 1
BITMAP
88
70
00
70
88
ENDCHAR
STARTCHAR uni224E
ENCODING 8782
SWIDTH 600 0
DWIDTH 6 0
BBX 5 5 1 1
BITMAP
20
D8
00
D8
20
ENDCHAR
STARTCHAR uni224F
ENCODING 8783
SWIDTH 600 0
DWIDTH 6 0
BBX 5 4 1 2
BITMAP
20
D8
00
F8
ENDCHAR
STARTCHAR uni2250
ENCODING 8784
SWIDTH 600 0
DWIDTH 6 0
BBX 5 5 1 2
BITMAP
20
00
F8
00
F8
ENDCHAR
STARTCHAR uni2251
ENCODING 8785
SWIDTH 600 0
DWIDTH 6 0
BBX 5 7 1 0
BITMAP
20
00
F8
00
F8
00
20
ENDCHAR
STARTCHAR uni2252
ENCODING 8786
SWIDTH 600 0
DWIDTH 6 0
BBX 5 7 1 0
BITMAP
80
00
F8
00
F8
00
08
ENDCHAR
STARTCHAR uni2253
ENCODING 8787
SWIDTH 600 0
DWIDTH 6 0
BBX 5 7 1 0
BITMAP
08
00
F8
00
F8
00
80
ENDCHAR
STARTCHAR uni2258
ENCODING 8792
SWIDTH 600 0
DWIDTH 6 0
BBX 5 6 1 1
BITMAP
70
88
00
F8
00
F8
ENDCHAR
STARTCHAR uni225E
ENCODING 8798
SWIDTH 600 0
DWIDTH 6 0
BBX 5 7 1 0
BITMAP
D0
A8
A8
00
F8
00
F8
ENDCHAR
STARTCHAR notequal
ENCODING 8800
SWIDTH 600 0
DWIDTH 6 0
BBX 5 5 1 1
BITMAP
10
F8
20
F8
40
ENDCHAR
STARTCHAR equivalence
ENCODING 8801
SWIDTH 600 0
DWIDTH 6 0
BBX 5 5 1 1
BITMAP
F8
00
F8
00
F8
ENDCHAR
STARTCHAR uni2262
ENCODING 8802
SWIDTH 600 0
DWIDTH 6 0
BBX 5 7 1 0
BITMAP
10
F8
20
F8
20
F8
40
ENDCHAR
STARTCHAR lessequal
ENCODING 8804
SWIDTH 600 0
DWIDTH 6 0
BBX 5 7 1 0
BITMAP
18
60
80
60
18
C0
38
ENDCHAR
STARTCHAR greaterequal
ENCODING 8805
SWIDTH 600 0
DWIDTH 6 0
BBX 5 7 1 0
BITMAP
C0
30
08
30
C0
18
E0
ENDCHAR
STARTCHAR uni226C
ENCODING 8812
SWIDTH 600 0
DWIDTH 6 0
BBX 3 7 2 0
BITMAP
A0
40
A0
A0
A0
40
A0
ENDCHAR
STARTCHAR propersubset
ENCODING 8834
SWIDTH 600 0
DWIDTH 6 0
BBX 5 5 1 1
BITMAP
78
80
80
80
78
ENDCHAR
STARTCHAR propersuperset
ENCODING 8835
SWIDTH 600 0
DWIDTH 6 0
BBX 5 5 1 1
BITMAP
F0
08
08
08
F0
ENDCHAR
STARTCHAR reflexsubset
ENCODING 8838
SWIDTH 600 0
DWIDTH 6 0
BBX 5 7 1 0
BITMAP
78
80
80
80
78
00
F8
ENDCHAR
STARTCHAR reflexsuperset
ENCODING 8839
SWIDTH 600 0
DWIDTH 6 0
BBX 5 7 1 0
BITMAP
F0
08
08
08
F0
00
F8
ENDCHAR
STARTCHAR uni228D
ENCODING 8845
SWIDTH 600 0
DWIDTH 6 0
BBX 5 5 1 1
BITMAP
88
88
A8
88
70
ENDCHAR
STARTCHAR uni228F
ENCODING 8847
SWIDTH 600 0
DWIDTH 6 0
BBX 5 5 1 1
BITMAP
F8
80
80
80
F8
ENDCHAR
STARTCHAR uni2290
ENCODING 8848
SWIDTH 600 0
DWIDTH 6 0
BBX 5 5 1 1
BITMAP
F8
08
08
08
F8
ENDCHAR
STARTCHAR uni2291
ENCODING 8849
SWIDTH 600 0
DWIDTH 6 0
BBX 5 7 1 0
BITMAP
F8
80
80
80
F8
00
F8
ENDCHAR
STARTCHAR uni2292
ENCODING 8850
SWIDTH 600 0
DWIDTH 6 0
BBX 5 7 1 0
BITMAP
F8
08
08
08
F8
00
F8
ENDCHAR
STARTCHAR uni2293
ENCODING 8851
SWIDTH 600 0
DWIDTH 6 0
BBX 5 5 1 1
BITMAP
F8
88
88
88
88
ENDCHAR
STARTCHAR uni2294
ENCODING 8852
SWIDTH 600 0
DWIDTH 6 0
BBX 5 5 1 1
BITMAP
88
88
88
88
F8
ENDCHAR
STARTCHAR circleplus
ENCODING 8853
SWIDTH 600 0
DWIDTH 6 0
BBX 5 5 1 1
BITMAP
70
A8
F8
A8
70
ENDCHAR
STARTCHAR uni2296
ENCODING 8854
SWIDTH 600 0
DWIDTH 6 0
BBX 5 5 1 1
BITMAP
70
88
F8
88
70
ENDCHAR
STARTCHAR uni2299
ENCODING 8857
SWIDTH 600 0
DWIDTH 6 0
BBX 5 5 1 1
BITMAP
70
88
A8
88
70
ENDCHAR
STARTCHAR uni229E
ENCODING 8862
SWIDTH 600 0
DWIDTH 6 0
BBX 5 5 1 1
BITMAP
F8
A8
F8
A8
F8
ENDCHAR
STARTCHAR uni229F
ENCODING 8863
SWIDTH 600 0
DWIDTH 6 0
BBX 5 5 1 1
BITMAP
F8
88
F8
88
F8
ENDCHAR
STARTCHAR uni22A1
ENCODING 8865
SWIDTH 600 0
DWIDTH 6 0
BBX 5 5 1 1
BITMAP
F8
88
A8
88
F8
ENDCHAR
STARTCHAR uni22A2
ENCODING 8866
SWIDTH 600 0
DWIDTH 6 0
BBX 5 5 1 1
BITMAP
80
80
F8
80
80
ENDCHAR
STARTCHAR uni22A3
ENCODING 8867
SWIDTH 600 0
DWIDTH 6 0
BBX 5 5 1 1
BITMAP
08
08
F8
08
08
ENDCHAR
STARTCHAR uni22A4
ENCODING 8868
SWIDTH 600 0
DWIDTH 6 0
BBX 5 5 1 1
BITMAP
F8
20
20
20
20
ENDCHAR
STARTCHAR perpendicular
ENCODING 8869
SWIDTH 600 0
DWIDTH 6 0
BBX 5 5 1 1
BITMAP
20
20
20
20
F8
ENDCHAR
STARTCHAR uni22A6
ENCODING 8870
SWIDTH 600 0
DWIDTH 6 0
BBX 3 5 2 1
BITMAP
80
80
E0
80
80
ENDCHAR
STARTCHAR uni22A7
ENCODING 8871
SWIDTH 600 0
DWIDTH 6 0
BBX 3 5 2 1
BITMAP
80
E0
80
E0
80
ENDCHAR
STARTCHAR uni22A8
ENCODING 8872
SWIDTH 600 0
DWIDTH 6 0
BBX 5 5 1 1
BITMAP
80
F8
80
F8
80
ENDCHAR
STARTCHAR uni22A9
ENCODING 8873
SWIDTH 600 0
DWIDTH 6 0
BBX 5 5 1 1
BITMAP
A0
A0
B8
A0
A0
ENDCHAR
STARTCHAR uni22AB
ENCODING 8875
SWIDTH 600 0
DWIDTH 6 0
BBX 5 5 1 1
BITMAP
A0
B8
A0
B8
A0
ENDCHAR
STARTCHAR uni22C2
ENCODING 8898
SWIDTH 600 0
DWIDTH 6 0
BBX 5 9 1 -2
BITMAP
70
88
88
88
88
88
88
88
88
ENDCHAR
STARTCHAR uni22C3
ENCODING 8899
SWIDTH 600 0
DWIDTH 6 0
BBX 5 9 1 -2
BITMAP
88
88
88
88
88
88
88
88
70
ENDCHAR
STARTCHAR uni22C4
ENCODING 8900
SWIDTH 600 0
DWIDTH 6 0
BBX 5 5 1 1
BITMAP
20
50
88
50
20
ENDCHAR
STARTCHAR uni22CB
ENCODING 8907
SWIDTH 600 0
DWIDTH 6 0
BBX 5 5 1 1
BITMAP
80
40
20
50
88
ENDCHAR
STARTCHAR uni22CC
ENCODING 8908
SWIDTH 600 0
DWIDTH 6 0
BBX 5 5 1 1
BITMAP
08
10
20
50
88
ENDCHAR
STARTCHAR uni22CD
ENCODING 8909
SWIDTH 600 0
DWIDTH 6 0
BBX 5 5 1 1
BITMAP
10
A8
40
00
F8
ENDCHAR
STARTCHAR uni22D4
ENCODING 8916
SWIDTH 600 0
DWIDTH 6 0
BBX 5 7 1 0
BITMAP
20
20
70
A8
A8
A8
A8
ENDCHAR
STARTCHAR uni22DC
ENCODING 8924
SWIDTH 600 0
DWIDTH 6 0
BBX 5 7 1 0
BITMAP
38
C0
18
60
80
60
18
ENDCHAR
STARTCHAR uni22DD
ENCODING 8925
SWIDTH 600 0
DWIDTH 6 0
BBX 5 7 1 0
BITMAP
E0
18
C0
30
08
30
C0
ENDCHAR
STARTCHAR uni22EE
ENCODING 8942
SWIDTH 600 0
DWIDTH 6 0
BBX 1 5 3 1
BITMAP
80
00
80
00
80
ENDCHAR
STARTCHAR uni22EF
ENCODING 8943
SWIDTH 600 0
DWIDTH 6 0
BBX 5 1 1 3
BITMAP
A8
ENDCHAR
STARTCHAR uni22F0
ENCODING 8944
SWIDTH 600 0
DWIDTH 6 0
BBX 5 5 1 1
BITMAP
08
00
20
00
80
ENDCHAR
STARTCHAR uni22F1
ENCODING 8945
SWIDTH 600 0
DWIDTH 6 0
BBX 5 5 1 1
BITMAP
80
00
20
00
08
ENDCHAR
STARTCHAR uni22F7
ENCODING 8951
SWIDTH 600 0
DWIDTH 6 0
BBX 5 7 1 0
BITMAP
F8
00
78
80
F8
80
78
ENDCHAR
STARTCHAR uni22F8
ENCODING 8952
SWIDTH 600 0
DWIDTH 6 0
BBX 5 9 1 -2
BITMAP
78
80
80
F8
80
80
78
00
F8
ENDCHAR
STARTCHAR uni22FE
ENCODING 8958
SWIDTH 600 0
DWIDTH 6 0
BBX 5 7 1 0
BITMAP
F8
00
F0
08
F8
08
F0
ENDCHAR
STARTCHAR house
ENCODING 8962
SWIDTH 600 0
DWIDTH 6 0
BBX 5 7 1 0
BITMAP
20
50
88
88
88
88
F8
ENDCHAR
STARTCHAR uni2308
ENCODING 8968
SWIDTH 600 0
DWIDTH 6 0
BBX 3 7 2 0
BITMAP
E0
80
80
80
80
80
80
ENDCHAR
STARTCHAR uni2309
ENCODING 8969
SWIDTH 600 0
DWIDTH 6 0
BBX 3 7 2 0
BITMAP
E0
20
20
20
20
20
20
ENDCHAR
STARTCHAR uni230A
ENCODING 8970
SWIDTH 600 0
DWIDTH 6 0
BBX 3 7 2 0
BITMAP
80
80
80
80
80
80
E0
ENDCHAR
STARTCHAR uni230B
ENCODING 8971
SWIDTH 600 0
DWIDTH 6 0
BBX 3 7 2 0
BITMAP
20
20
20
20
20
20
E0
ENDCHAR
STARTCHAR revlogicalnot
ENCODING 8976
SWIDTH 600 0
DWIDTH 6 0
BBX 5 3 1 2
BITMAP
F8
80
80
ENDCHAR
STARTCHAR integraltp
ENCODING 8992
SWIDTH 600 0
DWIDTH 6 0
BBX 3 7 3 -2
BITMAP
40
A0
80
80
80
80
80
ENDCHAR
STARTCHAR integralbt
ENCODING 8993
SWIDTH 600 0
DWIDTH 6 0
BBX 3 7 1 0
BITMAP
20
20
20
20
20
A0
40
ENDCHAR
STARTCHAR uni2336
ENCODING 9014
SWIDTH 600 0
DWIDTH 6 0
BBX 5 5 1 1
BITMAP
F8
20
20
20
F8
ENDCHAR
STARTCHAR uni2337
ENCODING 9015
SWIDTH 600 0
DWIDTH 6 0
BBX 3 7 2 0
BITMAP
E0
A0
A0
A0
A0
A0
E0
ENDCHAR
STARTCHAR uni2338
ENCODING 9016
SWIDTH 600 0
DWIDTH 6 0
BBX 5 7 1 0
BITMAP
F8
88
F8
88
F8
88
F8
ENDCHAR
STARTCHAR uni2339
ENCODING 9017
SWIDTH 600 0
DWIDTH 6 0
BBX 5 7 1 0
BITMAP
F8
A8
88
F8
88
A8
F8
ENDCHAR
STARTCHAR uni233A
ENCODING 9018
SWIDTH 600 0
DWIDTH 6 0
BBX 5 7 1 0
BITMAP
F8
A8
D8
88
D8
A8
F8
ENDCHAR
STARTCHAR uni233B
ENCODING 9019
SWIDTH 600 0
DWIDTH 6 0
BBX 5 7 1 0
BITMAP
F8
88
A8
D8
A8
88
F8
ENDCHAR
STARTCHAR uni233D
ENCODING 9021
SWIDTH 600 0
DWIDTH 6 0
BBX 5 7 1 0
BITMAP
20
70
A8
A8
A8
70
20
ENDCHAR
STARTCHAR uni233F
ENCODING 9023
SWIDTH 600 0
DWIDTH 6 0
BBX 5 5 1 1
BITMAP
08
50
20
50
80
ENDCHAR
STARTCHAR uni2340
ENCODING 9024
SWIDTH 600 0
DWIDTH 6 0
BBX 5 5 1 1
BITMAP
80
50
20
50
08
ENDCHAR
STARTCHAR uni2341
ENCODING 9025
SWIDTH 600 0
DWIDTH 6 0
BBX 5 7 1 0
BITMAP
F8
88
98
A8
C8
88
F8
ENDCHAR
STARTCHAR uni2342
ENCODING 9026
SWIDTH 600 0
DWIDTH 6 0
BBX 5 7 1 0
BITMAP
F8
88
C8
A8
98
88
F8
ENDCHAR
STARTCHAR uni2349
ENCODING 9033
SWIDTH 600 0
DWIDTH 6 0
BBX 5 5 1 1
BITMAP
B0
48
A8
90
68
ENDCHAR
STARTCHAR uni234A
ENCODING 9034
SWIDTH 600 0
DWIDTH 6 0
BBX 5 7 1 0
BITMAP
20
20
20
20
F8
00
F8
ENDCHAR
STARTCHAR uni234B
ENCODING 9035
SWIDTH 600 0
DWIDTH 6 0
BBX 5 9 1 -2
BITMAP
20
20
50
50
A8
A8
F8
20
20
ENDCHAR
STARTCHAR uni234E
ENCODING 9038
SWIDTH 600 0
DWIDTH 6 0
BBX 5 7 1 0
BITMAP
20
70
A8
A8
70
20
F8
ENDCHAR
STARTCHAR uni2351
ENCODING 9041
SWIDTH 600 0
DWIDTH 6 0
BBX 5 7 1 0
BITMAP
F8
00
F8
20
20
20
20
ENDCHAR
STARTCHAR uni2352
ENCODING 9042
SWIDTH 600 0
DWIDTH 6 0
BBX 5 9 1 -2
BITMAP
20
20
F8
A8
A8
50
50
20
20
ENDCHAR
STARTCHAR uni2355
ENCODING 9045
SWIDTH 600 0
DWIDTH 6 0
BBX 5 7 1 0
BITMAP
F8
20
70
A8
A8
70
20
ENDCHAR
STARTCHAR uni2359
ENCODING 9049
SWIDTH 600 0
DWIDTH 6 0
BBX 5 9 1 -2
BITMAP
20
20
50
50
88
88
F8
00
F8
ENDCHAR
STARTCHAR uni235D
ENCODING 9053
SWIDTH 600 0
DWIDTH 6 0
BBX 5 5 1 1
BITMAP
70
A8
D8
A8
88
ENDCHAR
STARTCHAR uni235E
ENCODING 9054
SWIDTH 600 0
DWIDTH 6 0
BBX 5 7 1 0
BITMAP
F8
A8
A8
88
88
88
F8
ENDCHAR
STARTCHAR uni235F
ENCODING 9055
SWIDTH 600 0
DWIDTH 6 0
BBX 5 7 1 0
BITMAP
70
A8
F8
A8
D8
88
70
ENDCHAR
STARTCHAR uni2360
ENCODING 9056
SWIDTH 600 0
DWIDTH 6 0
BBX 5 7 1 0
BITMAP
F8
88
A8
88
A8
88
F8
ENDCHAR
STARTCHAR uni2363
ENCODING 9059
SWIDTH 600 0
DWIDTH 6 0
BBX 5 7 1 0
BITMAP
50
00
A8
70
20
70
A8
ENDCHAR
STARTCHAR uni2364
ENCODING 9060
SWIDTH 600 0
DWIDTH 6 0
BBX 3 6 2 1
BITMAP
A0
00
40
A0
A0
40
ENDCHAR
STARTCHAR uni2368
ENCODING 9064
SWIDTH 600 0
DWIDTH 6 0
BBX 5 5 1 2
BITMAP
50
00
40
A8
10
ENDCHAR
STARTCHAR uni236A
ENCODING 9066
SWIDTH 600 0
DWIDTH 6 0
BBX 5 6 1 -2
BITMAP
F8
00
00
20
20
40
ENDCHAR
STARTCHAR uni236B
ENCODING 9067
SWIDTH 600 0
DWIDTH 6 0
BBX 5 7 1 0
BITMAP
F8
88
88
70
D8
20
20
ENDCHAR
STARTCHAR uni236C
ENCODING 9068
SWIDTH 600 0
DWIDTH 6 0
BBX 5 7 1 0
BITMAP
20
50
88
F8
88
50
20
ENDCHAR
STARTCHAR uni2371
ENCODING 9073
SWIDTH 600 0
DWIDTH 6 0
BBX 5 7 1 0
BITMAP
40
A8
10
00
88
50
20
ENDCHAR
STARTCHAR uni2372
ENCODING 9074
SWIDTH 600 0
DWIDTH 6 0
BBX 5 7 1 0
BITMAP
40
A8
10
00
20
50
88
ENDCHAR
STARTCHAR uni2373
ENCODING 9075
SWIDTH 600 0
DWIDTH 6 0
BBX 3 5 2 0
BITMAP
C0
40
40
40
20
ENDCHAR
STARTCHAR uni2374
ENCODING 9076
SWIDTH 600 0
DWIDTH 6 0
BBX 5 7 1 -2
BITMAP
70
88
88
88
F0
80
80
ENDCHAR
STARTCHAR uni2375
ENCODING 9077
SWIDTH 600 0
DWIDTH 6 0
BBX 5 5 1 0
BITMAP
50
88
A8
A8
50
ENDCHAR
STARTCHAR uni2376
ENCODING 9078
SWIDTH 600 0
DWIDTH 6 0
BBX 5 7 1 -2
BITMAP
68
90
90
90
68
00
F8
ENDCHAR
STARTCHAR uni2377
ENCODING 9079
SWIDTH 600 0
DWIDTH 6 0
BBX 5 7 1 0
BITMAP
78
80
F8
80
78
00
F8
ENDCHAR
STARTCHAR uni2378
ENCODING 9080
SWIDTH 600 0
DWIDTH 6 0
BBX 5 7 1 -2
BITMAP
60
20
20
20
10
00
F8
ENDCHAR
STARTCHAR uni2379
ENCODING 9081
SWIDTH 600 0
DWIDTH 6 0
BBX 5 7 1 -2
BITMAP
50
88
A8
A8
50
00
F8
ENDCHAR
STARTCHAR uni237A
ENCODING 9082
SWIDTH 600 0
DWIDTH 6 0
BBX 5 5 1 0
BITMAP
68
90
90
90
68
ENDCHAR
STARTCHAR uni237B
ENCODING 9083
SWIDTH 600 0
DWIDTH 6 0
BBX 5 4 1 1
BITMAP
28
10
A8
40
ENDCHAR
STARTCHAR uni237D
ENCODING 9085
SWIDTH 600 0
DWIDTH 6 0
BBX 5 2 1 0
BITMAP
D8
70
ENDCHAR
STARTCHAR uni237E
ENCODING 9086
SWIDTH 600 0
DWIDTH 6 0
BBX 5 5 1 1
BITMAP
70
88
F8
50
D8
ENDCHAR
STARTCHAR uni237F
ENCODING 9087
SWIDTH 600 0
DWIDTH 6 0
BBX 3 7 2 0
BITMAP
40
40
40
A0
40
40
40
ENDCHAR
STARTCHAR uni238D
ENCODING 9101
SWIDTH 600 0
DWIDTH 6 0
BBX 5 5 1 1
BITMAP
70
50
50
50
D8
ENDCHAR
STARTCHAR uni238E
ENCODING 9102
SWIDTH 600 0
DWIDTH 6 0
BBX 5 5 1 1
BITMAP
38
50
50
50
E0
ENDCHAR
STARTCHAR uni2393
ENCODING 9107
SWIDTH 600 0
DWIDTH 6 0
BBX 5 3 1 2
BITMAP
F8
00
A8
ENDCHAR
STARTCHAR uni2395
ENCODING 9109
SWIDTH 600 0
DWIDTH 6 0
BBX 5 7 1 0
BITMAP
F8
88
88
88
88
88
F8
ENDCHAR
STARTCHAR uni239B
ENCODING 9115
SWIDTH 600 0
DWIDTH 6 0
BBX 3 9 2 -2
BITMAP
20
40
80
80
80
80
80
80
80
ENDCHAR
STARTCHAR uni239C
ENCODING 9116
SWIDTH 600 0
DWIDTH 6 0
BBX 1 9 2 -2
BITMAP
80
80
80
80
80
80
80
80
80
ENDCHAR
STARTCHAR uni239D
ENCODING 9117
SWIDTH 600 0
DWIDTH 6 0
BBX 3 7 2 0
BITMAP
80
80
80
80
80
40
20
ENDCHAR
STARTCHAR uni239E
ENCODING 9118
SWIDTH 600 0
DWIDTH 6 0
BBX 3 9 2 -2
BITMAP
80
40
20
20
20
20
20
20
20
ENDCHAR
STARTCHAR uni239F
ENCODING 9119
SWIDTH 600 0
DWIDTH 6 0
BBX 1 9 4 -2
BITMAP
80
80
80
80
80
80
80
80
80
ENDCHAR
STARTCHAR uni23A0
ENCODING 9120
SWIDTH 600 0
DWIDTH 6 0
BBX 3 7 2 0
BITMAP
20
20
20
20
20
40
80
ENDCHAR
STARTCHAR uni23A1
ENCODING 9121
SWIDTH 600 0
DWIDTH 6 0
BBX 4 9 2 -2
BITMAP
F0
80
80
80
80
80
80
80
80
ENDCHAR
STARTCHAR uni23A2
ENCODING 9122
SWIDTH 600 0
DWIDTH 6 0
BBX 1 9 2 -2
BITMAP
80
80
80
80
80
80
80
80
80
ENDCHAR
STARTCHAR uni23A3
ENCODING 9123
SWIDTH 600 0
DWIDTH 6 0
BBX 4 7 2 0
BITMAP
80
80
80
80
80
80
F0
ENDCHAR
STARTCHAR uni23A4
ENCODING 9124
SWIDTH 600 0
DWIDTH 6 0
BBX 4 9 1 -2
BITMAP
F0
10
10
10
10
10
10
10
10
ENDCHAR
STARTCHAR uni23A5
ENCODING 9125
SWIDTH 600 0
DWIDTH 6 0
BBX 1 9 4 -2
BITMAP
80
80
80
80
80
80
80
80
80
ENDCHAR
STARTCHAR uni23A6
ENCODING 9126
SWIDTH 600 0
DWIDTH 6 0
BBX 4 7 1 0
BITMAP
10
10
10
10
10
10
F0
ENDCHAR
STARTCHAR uni23A7
ENCODING 9127
SWIDTH 600 0
DWIDTH 6 0
BBX 3 9 3 -2
BITMAP
60
80
80
80
80
80
80
80
80
ENDCHAR
STARTCHAR uni23A8
ENCODING 9128
SWIDTH 600 0
DWIDTH 6 0
BBX 2 9 2 -2
BITMAP
40
40
40
80
40
40
40
40
40
ENDCHAR
STARTCHAR uni23A9
ENCODING 9129
SWIDTH 600 0
DWIDTH 6 0
BBX 3 7 3 0
BITMAP
80
80
80
80
80
80
60
ENDCHAR
STARTCHAR uni23AA
ENCODING 9130
SWIDTH 600 0
DWIDTH 6 0
BBX 1 9 3 -2
BITMAP
80
80
80
80
80
80
80
80
80
ENDCHAR
STARTCHAR uni23AB
ENCODING 9131
SWIDTH 600 0
DWIDTH 6 0
BBX 3 9 1 -2
BITMAP
C0
20
20
20
20
20
20
20
20
ENDCHAR
STARTCHAR uni23AC
ENCODING 9132
SWIDTH 600 0
DWIDTH 6 0
BBX 2 9 3 -2
BITMAP
80
80
80
40
80
80
80
80
80
ENDCHAR
STARTCHAR uni23AD
ENCODING 9133
SWIDTH 600 0
DWIDTH 6 0
BBX 3 7 1 0
BITMAP
20
20
20
20
20
20
C0
ENDCHAR
STARTCHAR uni23AE
ENCODING 9134
SWIDTH 600 0
DWIDTH 6 0
BBX 1 9 3 -2
BITMAP
80
80
80
80
80
80
80
80
80
ENDCHAR
STARTCHAR uni23B0
ENCODING 9136
SWIDTH 600 0
DWIDTH 6 0
BBX 5 9 1 -2
BITMAP
18
20
20
20
20
20
20
20
C0
ENDCHAR
STARTCHAR uni23B1
ENCODING 9137
SWIDTH 600 0
DWIDTH 6 0
BBX 5 9 1 -2
BITMAP
C0
20
20
20
20
20
20
20
18
ENDCHAR
STARTCHAR uni23B2
ENCODING 9138
SWIDTH 600 0
DWIDTH 6 0
BBX 5 9 1 -2
BITMAP
F8
80
40
40
20
20
10
10
08
ENDCHAR
STARTCHAR uni23B3
ENCODING 9139
SWIDTH 600 0
DWIDTH 6 0
BBX 5 9 1 -2
BITMAP
08
10
10
20
20
40
40
80
F8
ENDCHAR
STARTCHAR uni23BA
ENCODING 9146
SWIDTH 600 0
DWIDTH 6 0
BBX 5 1 1 6
BITMAP
F8
ENDCHAR
STARTCHAR uni23BB
ENCODING 9147
SWIDTH 600 0
DWIDTH 6 0
BBX 5 1 1 4
BITMAP
F8
ENDCHAR
STARTCHAR uni23BC
ENCODING 9148
SWIDTH 600 0
DWIDTH 6 0
BBX 5 1 1 0
BITMAP
F8
ENDCHAR
STARTCHAR uni23BD
ENCODING 9149
SWIDTH 600 0
DWIDTH 6 0
BBX 5 1 1 -2
BITMAP
F8
ENDCHAR
STARTCHAR uni23DA
ENCODING 9178
SWIDTH 600 0
DWIDTH 6 0
BBX 5 7 1 0
BITMAP
20
20
F8
00
70
00
20
ENDCHAR
STARTCHAR uni2400
ENCODING 9216
SWIDTH 600 0
DWIDTH 6 0
BBX 5 9 1 -2
BITMAP
D0
B0
90
90
00
48
48
48
30
ENDCHAR
STARTCHAR uni2401
ENCODING 9217
SWIDTH 600 0
DWIDTH 6 0
BBX 5 9 1 -2
BITMAP
40
80
40
80
28
28
38
28
28
ENDCHAR
STARTCHAR uni2402
ENCODING 9218
SWIDTH 600 0
DWIDTH 6 0
BBX 5 9 1 -2
BITMAP
40
80
40
80
28
28
10
28
28
ENDCHAR
STARTCHAR uni2403
ENCODING 9219
SWIDTH 600 0
DWIDTH 6 0
BBX 5 9 1 -2
BITMAP
E0
80
C0
80
E8
28
10
28
28
ENDCHAR
STARTCHAR uni2404
ENCODING 9220
SWIDTH 600 0
DWIDTH 6 0
BBX 5 9 1 -2
BITMAP
E0
80
C0
80
F8
10
10
10
10
ENDCHAR
STARTCHAR uni2405
ENCODING 9221
SWIDTH 600 0
DWIDTH 6 0
BBX 5 9 1 -2
BITMAP
E0
80
C0
90
E8
28
28
10
08
ENDCHAR
STARTCHAR uni2406
ENCODING 9222
SWIDTH 600 0
DWIDTH 6 0
BBX 5 9 1 -2
BITMAP
40
A0
E0
A0
A8
28
30
28
28
ENDCHAR
STARTCHAR uni2407
ENCODING 9223
SWIDTH 600 0
DWIDTH 6 0
BBX 5 9 1 -2
BITMAP
C0
A0
C0
A0
C0
10
10
10
18
ENDCHAR
STARTCHAR uni2408
ENCODING 9224
SWIDTH 600 0
DWIDTH 6 0
BBX 5 9 1 -2
BITMAP
C0
A0
C0
A0
C0
08
10
08
10
ENDCHAR
STARTCHAR uni2409
ENCODING 9225
SWIDTH 600 0
DWIDTH 6 0
BBX 5 9 1 -2
BITMAP
A0
A0
E0
A0
B8
10
10
10
10
ENDCHAR
STARTCHAR uni240A
ENCODING 9226
SWIDTH 600 0
DWIDTH 6 0
BBX 5 9 1 -2
BITMAP
80
80
80
80
F8
20
30
20
20
ENDCHAR
STARTCHAR uni240B
ENCODING 9227
SWIDTH 600 0
DWIDTH 6 0
BBX 5 9 1 -2
BITMAP
A0
A0
A0
40
78
10
10
10
10
ENDCHAR
STARTCHAR uni240C
ENCODING 9228
SWIDTH 600 0
DWIDTH 6 0
BBX 5 9 1 -2
BITMAP
E0
80
C0
80
B8
20
30
20
20
ENDCHAR
STARTCHAR uni240D
ENCODING 9229
SWIDTH 600 0
DWIDTH 6 0
BBX 5 9 1 -2
BITMAP
60
80
80
80
70
28
30
28
28
ENDCHAR
STARTCHAR uni240E
ENCODING 9230
SWIDTH 600 0
DWIDTH 6 0
BBX 5 9 1 -2
BITMAP
60
80
40
20
C0
10
28
28
10
ENDCHAR
STARTCHAR uni240F
ENCODING 9231
SWIDTH 600 0
DWIDTH 6 0
BBX 5 9 1 -2
BITMAP
60
80
40
20
C8
08
08
08
08
ENDCHAR
STARTCHAR uni2410
ENCODING 9232
SWIDTH 600 0
DWIDTH 6 0
BBX 5 9 1 -2
BITMAP
C0
A0
A0
A0
C0
10
10
10
18
ENDCHAR
STARTCHAR uni2411
ENCODING 9233
SWIDTH 600 0
DWIDTH 6 0
BBX 5 9 1 -2
BITMAP
C0
A0
A0
A0
C8
08
08
08
08
ENDCHAR
STARTCHAR uni2412
ENCODING 9234
SWIDTH 600 0
DWIDTH 6 0
BBX 5 9 1 -2
BITMAP
C0
A0
A0
A0
C0
10
08
10
18
ENDCHAR
STARTCHAR uni2413
ENCODING 9235
SWIDTH 600 0
DWIDTH 6 0
BBX 5 9 1 -2
BITMAP
C0
A0
A0
C0
10
08
10
08
10
ENDCHAR
STARTCHAR uni2414
ENCODING 9236
SWIDTH 600 0
DWIDTH 6 0
BBX 5 9 1 -2
BITMAP
C0
A0
A0
A0
C8
18
28
38
08
ENDCHAR
STARTCHAR uni2415
ENCODING 9237
SWIDTH 600 0
DWIDTH 6 0
BBX 5 9 1 -2
BITMAP
D0
B0
90
90
00
28
30
28
28
ENDCHAR
STARTCHAR uni2416
ENCODING 9238
SWIDTH 600 0
DWIDTH 6 0
BBX 5 9 1 -2
BITMAP
40
80
40
80
28
28
10
10
10
ENDCHAR
STARTCHAR uni2417
ENCODING 9239
SWIDTH 600 0
DWIDTH 6 0
BBX 5 9 1 -2
BITMAP
E0
80
C0
80
F0
28
30
28
30
ENDCHAR
STARTCHAR uni2418
ENCODING 9240
SWIDTH 600 0
DWIDTH 6 0
BBX 5 9 1 -2
BITMAP
60
80
80
60
00
68
58
48
48
ENDCHAR
STARTCHAR uni2419
ENCODING 9241
SWIDTH 600 0
DWIDTH 6 0
BBX 5 9 1 -2
BITMAP
E0
80
C0
80
E0
00
D8
A8
88
ENDCHAR
STARTCHAR uni241A
ENCODING 9242
SWIDTH 600 0
DWIDTH 6 0
BBX 5 9 1 -2
BITMAP
40
80
40
80
30
28
30
28
30
ENDCHAR
STARTCHAR uni241B
ENCODING 9243
SWIDTH 600 0
DWIDTH 6 0
BBX 5 9 1 -2
BITMAP
C0
80
C0
80
C0
18
20
20
18
ENDCHAR
STARTCHAR uni241C
ENCODING 9244
SWIDTH 600 0
DWIDTH 6 0
BBX 5 9 1 -2
BITMAP
E0
80
C0
80
98
20
10
08
30
ENDCHAR
STARTCHAR uni241D
ENCODING 9245
SWIDTH 600 0
DWIDTH 6 0
BBX 5 9 1 -2
BITMAP
60
80
80
A0
60
08
10
08
10
ENDCHAR
STARTCHAR uni241E
ENCODING 9246
SWIDTH 600 0
DWIDTH 6 0
BBX 5 9 1 -2
BITMAP
C0
A0
C0
A0
A0
08
10
08
10
ENDCHAR
STARTCHAR uni241F
ENCODING 9247
SWIDTH 600 0
DWIDTH 6 0
BBX 5 9 1 -2
BITMAP
90
90
60
00
18
20
10
08
30
ENDCHAR
STARTCHAR uni2420
ENCODING 9248
SWIDTH 600 0
DWIDTH 6 0
BBX 5 9 1 -2
BITMAP
40
80
40
80
30
28
30
20
20
ENDCHAR
STARTCHAR uni2421
ENCODING 9249
SWIDTH 600 0
DWIDTH 6 0
BBX 5 9 1 -2
BITMAP
C0
A0
A0
C0
00
38
10
10
10
ENDCHAR
STARTCHAR uni2423
ENCODING 9251
SWIDTH 600 0
DWIDTH 6 0
BBX 5 2 1 0
BITMAP
88
F8
ENDCHAR
STARTCHAR uni2424
ENCODING 9252
SWIDTH 600 0
DWIDTH 6 0
BBX 5 9 1 -2
BITMAP
D0
B0
90
90
00
20
20
20
38
ENDCHAR
STARTCHAR uni2425
ENCODING 9253
SWIDTH 600 0
DWIDTH 6 0
BBX 5 7 1 0
BITMAP
20
48
90
20
48
90
20
ENDCHAR
STARTCHAR uni2426
ENCODING 9254
SWIDTH 600 0
DWIDTH 6 0
BBX 5 7 1 0
BITMAP
70
88
40
20
20
00
20
ENDCHAR
STARTCHAR SF100000
ENCODING 9472
SWIDTH 600 0
DWIDTH 6 0
BBX 5 1 1 2
BITMAP
F8
ENDCHAR
STARTCHAR uni2501
ENCODING 9473
SWIDTH 600 0
DWIDTH 6 0
BBX 5 3 1 1
BITMAP
F8
F8
F8
ENDCHAR
STARTCHAR SF110000
ENCODING 9474
SWIDTH 600 0
DWIDTH 6 0
BBX 1 9 3 -2
BITMAP
80
80
80
80
80
80
80
80
80
ENDCHAR
STARTCHAR uni2503
ENCODING 9475
SWIDTH 600 0
DWIDTH 6 0
BBX 3 9 2 -2
BITMAP
E0
E0
E0
E0
E0
E0
E0
E0
E0
ENDCHAR
STARTCHAR uni2504
ENCODING 9476
SWIDTH 600 0
DWIDTH 6 0
BBX 5 1 1 2
BITMAP
A8
ENDCHAR
STARTCHAR uni2505
ENCODING 9477
SWIDTH 600 0
DWIDTH 6 0
BBX 5 3 1 1
BITMAP
A8
A8
A8
ENDCHAR
STARTCHAR uni2506
ENCODING 9478
SWIDTH 600 0
DWIDTH 6 0
BBX 1 9 3 -2
BITMAP
80
80
00
80
80
80
00
80
80
ENDCHAR
STARTCHAR uni2507
ENCODING 9479
SWIDTH 600 0
DWIDTH 6 0
BBX 3 9 2 -2
BITMAP
E0
E0
00
E0
E0
E0
00
E0
E0
ENDCHAR
STARTCHAR uni250A
ENCODING 9482
SWIDTH 600 0
DWIDTH 6 0
BBX 1 9 3 -2
BITMAP
80
00
80
80
00
80
00
80
80
ENDCHAR
STARTCHAR uni250B
ENCODING 9483
SWIDTH 600 0
DWIDTH 6 0
BBX 3 9 2 -2
BITMAP
E0
00
E0
E0
00
E0
00
E0
E0
ENDCHAR
STARTCHAR SF010000
ENCODING 9484
SWIDTH 600 0
DWIDTH 6 0
BBX 3 5 3 -2
BITMAP
E0
80
80
80
80
ENDCHAR
STARTCHAR uni250D
ENCODING 9485
SWIDTH 600 0
DWIDTH 6 0
BBX 3 6 3 -2
BITMAP
E0
E0
E0
80
80
80
ENDCHAR
STARTCHAR uni250E
ENCODING 9486
SWIDTH 600 0
DWIDTH 6 0
BBX 4 5 2 -2
BITMAP
F0
E0
E0
E0
E0
ENDCHAR
STARTCHAR uni250F
ENCODING 9487
SWIDTH 600 0
DWIDTH 6 0
BBX 4 6 2 -2
BITMAP
F0
F0
F0
E0
E0
E0
ENDCHAR
STARTCHAR SF030000
ENCODING 9488
SWIDTH 600 0
DWIDTH 6 0
BBX 3 5 1 -2
BITMAP
E0
20
20
20
20
ENDCHAR
STARTCHAR uni2511
ENCODING 9489
SWIDTH 600 0
DWIDTH 6 0
BBX 3 6 1 -2
BITMAP
E0
E0
E0
20
20
20
ENDCHAR
STARTCHAR uni2512
ENCODING 9490
SWIDTH 600 0
DWIDTH 6 0
BBX 4 5 1 -2
BITMAP
F0
70
70
70
70
ENDCHAR
STARTCHAR uni2513
ENCODING 9491
SWIDTH 600 0
DWIDTH 6 0
BBX 4 6 1 -2
BITMAP
F0
F0
F0
70
70
70
ENDCHAR
STARTCHAR SF020000
ENCODING 9492
SWIDTH 600 0
DWIDTH 6 0
BBX 3 5 3 2
BITMAP
80
80
80
80
E0
ENDCHAR
STARTCHAR uni2515
ENCODING 9493
SWIDTH 600 0
DWIDTH 6 0
BBX 3 6 3 1
BITMAP
80
80
80
E0
E0
E0
ENDCHAR
STARTCHAR uni2516
ENCODING 9494
SWIDTH 600 0
DWIDTH 6 0
BBX 4 5 2 2
BITMAP
E0
E0
E0
E0
F0
ENDCHAR
STARTCHAR uni2517
ENCODING 9495
SWIDTH 600 0
DWIDTH 6 0
BBX 4 6 2 1
BITMAP
E0
E0
E0
F0
F0
F0
ENDCHAR
STARTCHAR SF040000
ENCODING 9496
SWIDTH 600 0
DWIDTH 6 0
BBX 3 5 1 2
BITMAP
20
20
20
20
E0
ENDCHAR
STARTCHAR uni2519
ENCODING 9497
SWIDTH 600 0
DWIDTH 6 0
BBX 3 6 1 1
BITMAP
20
20
20
E0
E0
E0
ENDCHAR
STARTCHAR uni251A
ENCODING 9498
SWIDTH 600 0
DWIDTH 6 0
BBX 4 5 1 2
BITMAP
70
70
70
70
F0
ENDCHAR
STARTCHAR uni251B
ENCODING 9499
SWIDTH 600 0
DWIDTH 6 0
BBX 4 6 1 1
BITMAP
70
70
70
F0
F0
F0
ENDCHAR
STARTCHAR SF080000
ENCODING 9500
SWIDTH 600 0
DWIDTH 6 0
BBX 3 9 3 -2
BITMAP
80
80
80
80
E0
80
80
80
80
ENDCHAR
STARTCHAR uni251D
ENCODING 9501
SWIDTH 600 0
DWIDTH 6 0
BBX 3 9 3 -2
BITMAP
80
80
80
E0
E0
E0
80
80
80
ENDCHAR
STARTCHAR uni251E
ENCODING 9502
SWIDTH 600 0
DWIDTH 6 0
BBX 4 9 2 -2
BITMAP
E0
E0
E0
E0
F0
40
40
40
40
ENDCHAR
STARTCHAR uni251F
ENCODING 9503
SWIDTH 600 0
DWIDTH 6 0
BBX 4 9 2 -2
BITMAP
40
40
40
40
F0
E0
E0
E0
E0
ENDCHAR
STARTCHAR uni2520
ENCODING 9504
SWIDTH 600 0
DWIDTH 6 0
BBX 4 9 2 -2
BITMAP
E0
E0
E0
E0
F0
E0
E0
E0
E0
ENDCHAR
STARTCHAR uni2521
ENCODING 9505
SWIDTH 600 0
DWIDTH 6 0
BBX 4 9 2 -2
BITMAP
E0
E0
E0
F0
F0
F0
40
40
40
ENDCHAR
STARTCHAR uni2522
ENCODING 9506
SWIDTH 600 0
DWIDTH 6 0
BBX 4 9 2 -2
BITMAP
40
40
40
F0
F0
F0
E0
E0
E0
ENDCHAR
STARTCHAR uni2523
ENCODING 9507
SWIDTH 600 0
DWIDTH 6 0
BBX 4 9 2 -2
BITMAP
E0
E0
E0
F0
F0
F0
E0
E0
E0
ENDCHAR
STARTCHAR SF090000
ENCODING 9508
SWIDTH 600 0
DWIDTH 6 0
BBX 3 9 1 -2
BITMAP
20
20
20
20
E0
20
20
20
20
ENDCHAR
STARTCHAR uni2525
ENCODING 9509
SWIDTH 600 0
DWIDTH 6 0
BBX 3 9 1 -2
BITMAP
20
20
20
E0
E0
E0
20
20
20
ENDCHAR
STARTCHAR uni2526
ENCODING 9510
SWIDTH 600 0
DWIDTH 6 0
BBX 4 9 1 -2
BITMAP
70
70
70
70
F0
20
20
20
20
ENDCHAR
STARTCHAR uni2527
ENCODING 9511
SWIDTH 600 0
DWIDTH 6 0
BBX 4 9 1 -2
BITMAP
20
20
20
20
F0
70
70
70
70
ENDCHAR
STARTCHAR uni2528
ENCODING 9512
SWIDTH 600 0
DWIDTH 6 0
BBX 4 9 1 -2
BITMAP
70
70
70
70
F0
70
70
70
70
ENDCHAR
STARTCHAR uni2529
ENCODING 9513
SWIDTH 600 0
DWIDTH 6 0
BBX 4 9 1 -2
BITMAP
70
70
70
F0
F0
F0
20
20
20
ENDCHAR
STARTCHAR uni252A
ENCODING 9514
SWIDTH 600 0
DWIDTH 6 0
BBX 4 9 1 -2
BITMAP
20
20
20
F0
F0
F0
70
70
70
ENDCHAR
STARTCHAR uni252B
ENCODING 9515
SWIDTH 600 0
DWIDTH 6 0
BBX 4 9 1 -2
BITMAP
70
70
70
F0
F0
F0
70
70
70
ENDCHAR
STARTCHAR SF060000
ENCODING 9516
SWIDTH 600 0
DWIDTH 6 0
BBX 5 5 1 -2
BITMAP
F8
20
20
20
20
ENDCHAR
STARTCHAR uni252D
ENCODING 9517
SWIDTH 600 0
DWIDTH 6 0
BBX 5 6 1 -2
BITMAP
E0
F8
E0
20
20
20
ENDCHAR
STARTCHAR uni252E
ENCODING 9518
SWIDTH 600 0
DWIDTH 6 0
BBX 5 6 1 -2
BITMAP
38
F8
38
20
20
20
ENDCHAR
STARTCHAR uni252F
ENCODING 9519
SWIDTH 600 0
DWIDTH 6 0
BBX 5 6 1 -2
BITMAP
F8
F8
F8
20
20
20
ENDCHAR
STARTCHAR uni2530
ENCODING 9520
SWIDTH 600 0
DWIDTH 6 0
BBX 5 5 1 -2
BITMAP
F8
70
70
70
70
ENDCHAR
STARTCHAR uni2531
ENCODING 9521
SWIDTH 600 0
DWIDTH 6 0
BBX 5 6 1 -2
BITMAP
F0
F8
F0
70
70
70
ENDCHAR
STARTCHAR uni2532
ENCODING 9522
SWIDTH 600 0
DWIDTH 6 0
BBX 5 6 1 -2
BITMAP
78
F8
78
70
70
70
ENDCHAR
STARTCHAR uni2533
ENCODING 9523
SWIDTH 600 0
DWIDTH 6 0
BBX 5 6 1 -2
BITMAP
F8
F8
F8
70
70
70
ENDCHAR
STARTCHAR SF070000
ENCODING 9524
SWIDTH 600 0
DWIDTH 6 0
BBX 5 5 1 2
BITMAP
20
20
20
20
F8
ENDCHAR
STARTCHAR uni2535
ENCODING 9525
SWIDTH 600 0
DWIDTH 6 0
BBX 5 6 1 1
BITMAP
20
20
20
E0
F8
E0
ENDCHAR
STARTCHAR uni2536
ENCODING 9526
SWIDTH 600 0
DWIDTH 6 0
BBX 5 6 1 1
BITMAP
20
20
20
38
F8
38
ENDCHAR
STARTCHAR uni2537
ENCODING 9527
SWIDTH 600 0
DWIDTH 6 0
BBX 5 6 1 1
BITMAP
20
20
20
F8
F8
F8
ENDCHAR
STARTCHAR uni2538
ENCODING 9528
SWIDTH 600 0
DWIDTH 6 0
BBX 5 5 1 2
BITMAP
70
70
70
70
F8
ENDCHAR
STARTCHAR uni2539
ENCODING 9529
SWIDTH 600 0
DWIDTH 6 0
BBX 5 6 1 1
BITMAP
70
70
70
F0
F8
F0
ENDCHAR
STARTCHAR uni253A
ENCODING 9530
SWIDTH 600 0
DWIDTH 6 0
BBX 5 6 1 1
BITMAP
70
70
70
78
F8
78
ENDCHAR
STARTCHAR uni253B
ENCODING 9531
SWIDTH 600 0
DWIDTH 6 0
BBX 5 6 1 1
BITMAP
70
70
70
F8
F8
F8
ENDCHAR
STARTCHAR SF050000
ENCODING 9532
SWIDTH 600 0
DWIDTH 6 0
BBX 5 9 1 -2
BITMAP
20
20
20
20
F8
20
20
20
20
ENDCHAR
STARTCHAR uni253D
ENCODING 9533
SWIDTH 600 0
DWIDTH 6 0
BBX 5 9 1 -2
BITMAP
20
20
20
E0
F8
E0
20
20
20
ENDCHAR
STARTCHAR uni253E
ENCODING 9534
SWIDTH 600 0
DWIDTH 6 0
BBX 5 9 1 -2
BITMAP
20
20
20
38
F8
38
20
20
20
ENDCHAR
STARTCHAR uni253F
ENCODING 9535
SWIDTH 600 0
DWIDTH 6 0
BBX 5 9 1 -2
BITMAP
20
20
20
F8
F8
F8
20
20
20
ENDCHAR
STARTCHAR uni2540
ENCODING 9536
SWIDTH 600 0
DWIDTH 6 0
BBX 5 9 1 -2
BITMAP
70
70
70
70
F8
20
20
20
20
ENDCHAR
STARTCHAR uni2541
ENCODING 9537
SWIDTH 600 0
DWIDTH 6 0
BBX 5 9 1 -2
BITMAP
20
20
20
20
F8
70
70
70
70
ENDCHAR
STARTCHAR uni2542
ENCODING 9538
SWIDTH 600 0
DWIDTH 6 0
BBX 5 9 1 -2
BITMAP
70
70
70
70
F8
70
70
70
70
ENDCHAR
STARTCHAR uni2543
ENCODING 9539
SWIDTH 600 0
DWIDTH 6 0
BBX 5 9 1 -2
BITMAP
70
70
70
F0
F8
F0
20
20
20
ENDCHAR
STARTCHAR uni2544
ENCODING 9540
SWIDTH 600 0
DWIDTH 6 0
BBX 5 9 1 -2
BITMAP
70
70
70
78
F8
78
20
20
20
ENDCHAR
STARTCHAR uni2545
ENCODING 9541
SWIDTH 600 0
DWIDTH 6 0
BBX 5 9 1 -2
BITMAP
20
20
20
F0
F8
F0
70
70
70
ENDCHAR
STARTCHAR uni2546
ENCODING 9542
SWIDTH 600 0
DWIDTH 6 0
BBX 5 9 1 -2
BITMAP
20
20
20
78
F8
78
70
70
70
ENDCHAR
STARTCHAR uni2547
ENCODING 9543
SWIDTH 600 0
DWIDTH 6 0
BBX 5 9 1 -2
BITMAP
70
70
70
F8
F8
F8
20
20
20
ENDCHAR
STARTCHAR uni2548
ENCODING 9544
SWIDTH 600 0
DWIDTH 6 0
BBX 5 9 1 -2
BITMAP
20
20
20
F8
F8
F8
70
70
70
ENDCHAR
STARTCHAR uni2549
ENCODING 9545
SWIDTH 600 0
DWIDTH 6 0
BBX 5 9 1 -2
BITMAP
70
70
70
F0
F8
F0
70
70
70
ENDCHAR
STARTCHAR uni254A
ENCODING 9546
SWIDTH 600 0
DWIDTH 6 0
BBX 5 9 1 -2
BITMAP
70
70
70
78
F8
78
70
70
70
ENDCHAR
STARTCHAR uni254B
ENCODING 9547
SWIDTH 600 0
DWIDTH 6 0
BBX 5 9 1 -2
BITMAP
70
70
70
F8
F8
F8
70
70
70
ENDCHAR
STARTCHAR uni254C
ENCODING 9548
SWIDTH 600 0
DWIDTH 6 0
BBX 5 1 1 2
BITMAP
D8
ENDCHAR
STARTCHAR uni254D
ENCODING 9549
SWIDTH 600 0
DWIDTH 6 0
BBX 5 3 1 1
BITMAP
D8
D8
D8
ENDCHAR
STARTCHAR uni254E
ENCODING 9550
SWIDTH 600 0
DWIDTH 6 0
BBX 1 9 3 -2
BITMAP
80
80
80
80
00
80
80
80
80
ENDCHAR
STARTCHAR uni254F
ENCODING 9551
SWIDTH 600 0
DWIDTH 6 0
BBX 3 9 2 -2
BITMAP
E0
E0
E0
E0
00
E0
E0
E0
E0
ENDCHAR
STARTCHAR SF430000
ENCODING 9552
SWIDTH 600 0
DWIDTH 6 0
BBX 5 3 1 1
BITMAP
F8
00
F8
ENDCHAR
STARTCHAR SF240000
ENCODING 9553
SWIDTH 600 0
DWIDTH 6 0
BBX 3 9 2 -2
BITMAP
A0
A0
A0
A0
A0
A0
A0
A0
A0
ENDCHAR
STARTCHAR SF510000
ENCODING 9554
SWIDTH 600 0
DWIDTH 6 0
BBX 3 6 3 -2
BITMAP
E0
80
E0
80
80
80
ENDCHAR
STARTCHAR SF520000
ENCODING 9555
SWIDTH 600 0
DWIDTH 6 0
BBX 4 5 2 -2
BITMAP
F0
A0
A0
A0
A0
ENDCHAR
STARTCHAR SF390000
ENCODING 9556
SWIDTH 600 0
DWIDTH 6 0
BBX 4 6 2 -2
BITMAP
F0
80
B0
A0
A0
A0
ENDCHAR
STARTCHAR SF220000
ENCODING 9557
SWIDTH 600 0
DWIDTH 6 0
BBX 3 6 1 -2
BITMAP
E0
20
E0
20
20
20
ENDCHAR
STARTCHAR SF210000
ENCODING 9558
SWIDTH 600 0
DWIDTH 6 0
BBX 4 5 1 -2
BITMAP
F0
50
50
50
50
ENDCHAR
STARTCHAR SF250000
ENCODING 9559
SWIDTH 600 0
DWIDTH 6 0
BBX 4 6 1 -2
BITMAP
F0
10
D0
50
50
50
ENDCHAR
STARTCHAR SF500000
ENCODING 9560
SWIDTH 600 0
DWIDTH 6 0
BBX 3 6 3 1
BITMAP
80
80
80
E0
80
E0
ENDCHAR
STARTCHAR SF490000
ENCODING 9561
SWIDTH 600 0
DWIDTH 6 0
BBX 4 5 2 2
BITMAP
A0
A0
A0
A0
F0
ENDCHAR
STARTCHAR SF380000
ENCODING 9562
SWIDTH 600 0
DWIDTH 6 0
BBX 4 6 2 1
BITMAP
A0
A0
A0
B0
80
F0
ENDCHAR
STARTCHAR SF280000
ENCODING 9563
SWIDTH 600 0
DWIDTH 6 0
BBX 3 6 1 1
BITMAP
20
20
20
E0
20
E0
ENDCHAR
STARTCHAR SF270000
ENCODING 9564
SWIDTH 600 0
DWIDTH 6 0
BBX 4 5 1 2
BITMAP
50
50
50
50
F0
ENDCHAR
STARTCHAR SF260000
ENCODING 9565
SWIDTH 600 0
DWIDTH 6 0
BBX 4 6 1 1
BITMAP
50
50
50
D0
10
F0
ENDCHAR
STARTCHAR SF360000
ENCODING 9566
SWIDTH 600 0
DWIDTH 6 0
BBX 3 9 3 -2
BITMAP
80
80
80
E0
80
E0
80
80
80
ENDCHAR
STARTCHAR SF370000
ENCODING 9567
SWIDTH 600 0
DWIDTH 6 0
BBX 4 9 2 -2
BITMAP
A0
A0
A0
A0
B0
A0
A0
A0
A0
ENDCHAR
STARTCHAR SF420000
ENCODING 9568
SWIDTH 600 0
DWIDTH 6 0
BBX 4 9 2 -2
BITMAP
A0
A0
A0
B0
80
B0
A0
A0
A0
ENDCHAR
STARTCHAR SF190000
ENCODING 9569
SWIDTH 600 0
DWIDTH 6 0
BBX 3 9 1 -2
BITMAP
20
20
20
E0
20
E0
20
20
20
ENDCHAR
STARTCHAR SF200000
ENCODING 9570
SWIDTH 600 0
DWIDTH 6 0
BBX 4 9 1 -2
BITMAP
50
50
50
50
D0
50
50
50
50
ENDCHAR
STARTCHAR SF230000
ENCODING 9571
SWIDTH 600 0
DWIDTH 6 0
BBX 4 9 1 -2
BITMAP
50
50
50
D0
10
D0
50
50
50
ENDCHAR
STARTCHAR SF470000
ENCODING 9572
SWIDTH 600 0
DWIDTH 6 0
BBX 5 6 1 -2
BITMAP
F8
00
F8
20
20
20
ENDCHAR
STARTCHAR SF480000
ENCODING 9573
SWIDTH 600 0
DWIDTH 6 0
BBX 5 5 1 -2
BITMAP
F8
50
50
50
50
ENDCHAR
STARTCHAR SF410000
ENCODING 9574
SWIDTH 600 0
DWIDTH 6 0
BBX 5 6 1 -2
BITMAP
F8
00
D8
50
50
50
ENDCHAR
STARTCHAR SF450000
ENCODING 9575
SWIDTH 600 0
DWIDTH 6 0
BBX 5 6 1 1
BITMAP
20
20
20
F8
00
F8
ENDCHAR
STARTCHAR SF460000
ENCODING 9576
SWIDTH 600 0
DWIDTH 6 0
BBX 5 5 1 2
BITMAP
50
50
50
50
F8
ENDCHAR
STARTCHAR SF400000
ENCODING 9577
SWIDTH 600 0
DWIDTH 6 0
BBX 5 6 1 1
BITMAP
50
50
50
D8
00
F8
ENDCHAR
STARTCHAR SF540000
ENCODING 9578
SWIDTH 600 0
DWIDTH 6 0
BBX 5 9 1 -2
BITMAP
20
20
20
F8
20
F8
20
20
20
ENDCHAR
STARTCHAR SF530000
ENCODING 9579
SWIDTH 600 0
DWIDTH 6 0
BBX 5 9 1 -2
BITMAP
50
50
50
50
F8
50
50
50
50
ENDCHAR
STARTCHAR SF440000
ENCODING 9580
SWIDTH 600 0
DWIDTH 6 0
BBX 5 9 1 -2
BITMAP
50
50
50
D8
00
D8
50
50
50
ENDCHAR
STARTCHAR uni256D
ENCODING 9581
SWIDTH 600 0
DWIDTH 6 0
BBX 3 5 3 -2
BITMAP
60
80
80
80
80
ENDCHAR
STARTCHAR uni256E
ENCODING 9582
SWIDTH 600 0
DWIDTH 6 0
BBX 3 5 1 -2
BITMAP
C0
20
20
20
20
ENDCHAR
STARTCHAR uni256F
ENCODING 9583
SWIDTH 600 0
DWIDTH 6 0
BBX 3 5 1 2
BITMAP
20
20
20
20
C0
ENDCHAR
STARTCHAR uni2570
ENCODING 9584
SWIDTH 600 0
DWIDTH 6 0
BBX 3 5 3 2
BITMAP
80
80
80
80
60
ENDCHAR
STARTCHAR uni2574
ENCODING 9588
SWIDTH 600 0
DWIDTH 6 0
BBX 3 1 1 2
BITMAP
E0
ENDCHAR
STARTCHAR uni2575
ENCODING 9589
SWIDTH 600 0
DWIDTH 6 0
BBX 1 5 3 2
BITMAP
80
80
80
80
80
ENDCHAR
STARTCHAR uni2576
ENCODING 9590
SWIDTH 600 0
DWIDTH 6 0
BBX 3 1 3 2
BITMAP
E0
ENDCHAR
STARTCHAR uni2577
ENCODING 9591
SWIDTH 600 0
DWIDTH 6 0
BBX 1 5 3 -2
BITMAP
80
80
80
80
80
ENDCHAR
STARTCHAR uni2578
ENCODING 9592
SWIDTH 600 0
DWIDTH 6 0
BBX 3 3 1 1
BITMAP
E0
E0
E0
ENDCHAR
STARTCHAR uni2579
ENCODING 9593
SWIDTH 600 0
DWIDTH 6 0
BBX 3 5 2 2
BITMAP
E0
E0
E0
E0
E0
ENDCHAR
STARTCHAR uni257A
ENCODING 9594
SWIDTH 600 0
DWIDTH 6 0
BBX 3 3 3 1
BITMAP
E0
E0
E0
ENDCHAR
STARTCHAR uni257B
ENCODING 9595
SWIDTH 600 0
DWIDTH 6 0
BBX 3 5 2 -2
BITMAP
E0
E0
E0
E0
E0
ENDCHAR
STARTCHAR uni257C
ENCODING 9596
SWIDTH 600 0
DWIDTH 6 0
BBX 5 3 1 1
BITMAP
38
F8
38
ENDCHAR
STARTCHAR uni257D
ENCODING 9597
SWIDTH 600 0
DWIDTH 6 0
BBX 3 9 2 -2
BITMAP
40
40
40
40
E0
E0
E0
E0
E0
ENDCHAR
STARTCHAR uni257E
ENCODING 9598
SWIDTH 600 0
DWIDTH 6 0
BBX 5 3 1 1
BITMAP
E0
F8
E0
ENDCHAR
STARTCHAR uni257F
ENCODING 9599
SWIDTH 600 0
DWIDTH 6 0
BBX 3 9 2 -2
BITMAP
E0
E0
E0
E0
E0
40
40
40
40
ENDCHAR
STARTCHAR upblock
ENCODING 9600
SWIDTH 600 0
DWIDTH 6 0
BBX 6 5 0 3
BITMAP
FC
FC
FC
FC
FC
ENDCHAR
STARTCHAR dnblock
ENCODING 9604
SWIDTH 600 0
DWIDTH 6 0
BBX 6 5 0 -2
BITMAP
FC
FC
FC
FC
FC
ENDCHAR
STARTCHAR block
ENCODING 9608
SWIDTH 600 0
DWIDTH 6 0
BBX 6 10 0 -2
BITMAP
FC
FC
FC
FC
FC
FC
FC
FC
FC
FC
ENDCHAR
STARTCHAR lfblock
ENCODING 9612
SWIDTH 600 0
DWIDTH 6 0
BBX 3 10 0 -2
BITMAP
E0
E0
E0
E0
E0
E0
E0
E0
E0
E0
ENDCHAR
STARTCHAR rtblock
ENCODING 9616
SWIDTH 600 0
DWIDTH 6 0
BBX 3 10 3 -2
BITMAP
E0
E0
E0
E0
E0
E0
E0
E0
E0
E0
ENDCHAR
STARTCHAR ltshade
ENCODING 9617
SWIDTH 600 0
DWIDTH 6 0
BBX 5 9 1 -2
BITMAP
A8
00
50
00
A8
00
50
00
A8
ENDCHAR
STARTCHAR shade
ENCODING 9618
SWIDTH 600 0
DWIDTH 6 0
BBX 5 9 1 -2
BITMAP
90
48
20
90
48
20
90
48
20
ENDCHAR
STARTCHAR dkshade
ENCODING 9619
SWIDTH 600 0
DWIDTH 6 0
BBX 5 9 1 -2
BITMAP
A8
F8
50
F8
A8
F8
50
F8
A8
ENDCHAR
STARTCHAR uni2596
ENCODING 9622
SWIDTH 600 0
DWIDTH 6 0
BBX 3 5 0 -2
BITMAP
E0
E0
E0
E0
E0
ENDCHAR
STARTCHAR uni2597
ENCODING 9623
SWIDTH 600 0
DWIDTH 6 0
BBX 3 5 3 -2
BITMAP
E0
E0
E0
E0
E0
ENDCHAR
STARTCHAR uni2598
ENCODING 9624
SWIDTH 600 0
DWIDTH 6 0
BBX 3 5 0 3
BITMAP
E0
E0
E0
E0
E0
ENDCHAR
STARTCHAR uni2599
ENCODING 9625
SWIDTH 600 0
DWIDTH 6 0
BBX 6 10 0 -2
BITMAP
E0
E0
E0
E0
E0
FC
FC
FC
FC
FC
ENDCHAR
STARTCHAR uni259A
ENCODING 9626
SWIDTH 600 0
DWIDTH 6 0
BBX 6 10 0 -2
BITMAP
E0
E0
E0
E0
E0
1C
1C
1C
1C
1C
ENDCHAR
STARTCHAR uni259B
ENCODING 9627
SWIDTH 600 0
DWIDTH 6 0
BBX 6 10 0 -2
BITMAP
FC
FC
FC
FC
FC
E0
E0
E0
E0
E0
ENDCHAR
STARTCHAR uni259C
ENCODING 9628
SWIDTH 600 0
DWIDTH 6 0
BBX 6 10 0 -2
BITMAP
FC
FC
FC
FC
FC
1C
1C
1C
1C
1C
ENDCHAR
STARTCHAR uni259D
ENCODING 9629
SWIDTH 600 0
DWIDTH 6 0
BBX 3 5 3 3
BITMAP
E0
E0
E0
E0
E0
ENDCHAR
STARTCHAR uni259E
ENCODING 9630
SWIDTH 600 0
DWIDTH 6 0
BBX 6 10 0 -2
BITMAP
1C
1C
1C
1C
1C
E0
E0
E0
E0
E0
ENDCHAR
STARTCHAR uni259F
ENCODING 9631
SWIDTH 600 0
DWIDTH 6 0
BBX 6 10 0 -2
BITMAP
1C
1C
1C
1C
1C
FC
FC
FC
FC
FC
ENDCHAR
STARTCHAR filledbox
ENCODING 9632
SWIDTH 600 0
DWIDTH 6 0
BBX 5 7 1 0
BITMAP
F8
F8
F8
F8
F8
F8
F8
ENDCHAR
STARTCHAR H22073
ENCODING 9633
SWIDTH 600 0
DWIDTH 6 0
BBX 5 7 1 0
BITMAP
F8
88
88
88
88
88
F8
ENDCHAR
STARTCHAR H18543
ENCODING 9642
SWIDTH 600 0
DWIDTH 6 0
BBX 3 3 2 2
BITMAP
E0
E0
E0
ENDCHAR
STARTCHAR H18551
ENCODING 9643
SWIDTH 600 0
DWIDTH 6 0
BBX 3 3 2 2
BITMAP
E0
A0
E0
ENDCHAR
STARTCHAR filledrect
ENCODING 9644
SWIDTH 600 0
DWIDTH 6 0
BBX 5 3 1 2
BITMAP
F8
F8
F8
ENDCHAR
STARTCHAR uni25AD
ENCODING 9645
SWIDTH 600 0
DWIDTH 6 0
BBX 5 3 1 2
BITMAP
F8
88
F8
ENDCHAR
STARTCHAR triagup
ENCODING 9650
SWIDTH 600 0
DWIDTH 6 0
BBX 5 7 1 0
BITMAP
20
20
70
70
F8
F8
F8
ENDCHAR
STARTCHAR uni25B6
ENCODING 9654
SWIDTH 600 0
DWIDTH 6 0
BBX 4 7 2 0
BITMAP
80
C0
E0
F0
E0
C0
80
ENDCHAR
STARTCHAR uni25B7
ENCODING 9655
SWIDTH 600 0
DWIDTH 6 0
BBX 5 7 1 0
BITMAP
C0
A0
90
88
90
A0
C0
ENDCHAR
STARTCHAR triagrt
ENCODING 9658
SWIDTH 600 0
DWIDTH 6 0
BBX 5 5 1 1
BITMAP
80
E0
F8
E0
80
ENDCHAR
STARTCHAR triagdn
ENCODING 9660
SWIDTH 600 0
DWIDTH 6 0
BBX 5 7 1 0
BITMAP
F8
F8
F8
70
70
20
20
ENDCHAR
STARTCHAR uni25C0
ENCODING 9664
SWIDTH 600 0
DWIDTH 6 0
BBX 4 7 2 0
BITMAP
10
30
70
F0
70
30
10
ENDCHAR
STARTCHAR uni25C1
ENCODING 9665
SWIDTH 600 0
DWIDTH 6 0
BBX 5 7 1 0
BITMAP
18
28
48
88
48
28
18
ENDCHAR
STARTCHAR triaglf
ENCODING 9668
SWIDTH 600 0
DWIDTH 6 0
BBX 5 5 1 1
BITMAP
08
38
F8
38
08
ENDCHAR
STARTCHAR uni25C6
ENCODING 9670
SWIDTH 600 0
DWIDTH 6 0
BBX 5 5 1 1
BITMAP
20
70
F8
70
20
ENDCHAR
STARTCHAR uni25C7
ENCODING 9671
SWIDTH 600 0
DWIDTH 6 0
BBX 5 5 1 1
BITMAP
20
50
88
50
20
ENDCHAR
STARTCHAR lozenge
ENCODING 9674
SWIDTH 600 0
DWIDTH 6 0
BBX 5 7 1 0
BITMAP
20
50
50
88
50
50
20
ENDCHAR
STARTCHAR circle
ENCODING 9675
SWIDTH 600 0
DWIDTH 6 0
BBX 5 5 1 1
BITMAP
70
88
88
88
70
ENDCHAR
STARTCHAR uni25CC
ENCODING 9676
SWIDTH 600 0
DWIDTH 6 0
BBX 5 5 1 1
BITMAP
20
88
00
88
20
ENDCHAR
STARTCHAR H18533
ENCODING 9679
SWIDTH 600 0
DWIDTH 6 0
BBX 5 5 1 1
BITMAP
70
F8
F8
F8
70
ENDCHAR
STARTCHAR invbullet
ENCODING 9688
SWIDTH 600 0
DWIDTH 6 0
BBX 5 7 1 0
BITMAP
F8
F8
88
88
88
F8
F8
ENDCHAR
STARTCHAR invcircle
ENCODING 9689
SWIDTH 600 0
DWIDTH 6 0
BBX 5 7 1 0
BITMAP
F8
88
20
70
20
88
F8
ENDCHAR
STARTCHAR uni25EB
ENCODING 9707
SWIDTH 600 0
DWIDTH 6 0
BBX 5 5 1 1
BITMAP
F8
A8
A8
A8
F8
ENDCHAR
STARTCHAR uni25F0
ENCODING 9712
SWIDTH 600 0
DWIDTH 6 0
BBX 5 5 1 1
BITMAP
F8
A8
E8
88
F8
ENDCHAR
STARTCHAR uni25F1
ENCODING 9713
SWIDTH 600 0
DWIDTH 6 0
BBX 5 5 1 1
BITMAP
F8
88
E8
A8
F8
ENDCHAR
STARTCHAR uni25F2
ENCODING 9714
SWIDTH 600 0
DWIDTH 6 0
BBX 5 5 1 1
BITMAP
F8
A8
B8
88
F8
ENDCHAR
STARTCHAR uni25F3
ENCODING 9715
SWIDTH 600 0
DWIDTH 6 0
BBX 5 5 1 1
BITMAP
F8
88
B8
A8
F8
ENDCHAR
STARTCHAR uni25F4
ENCODING 9716
SWIDTH 600 0
DWIDTH 6 0
BBX 5 5 1 1
BITMAP
70
A8
E8
88
70
ENDCHAR
STARTCHAR uni25F5
ENCODING 9717
SWIDTH 600 0
DWIDTH 6 0
BBX 5 5 1 1
BITMAP
70
88
E8
A8
70
ENDCHAR
STARTCHAR uni25F6
ENCODING 9718
SWIDTH 600 0
DWIDTH 6 0
BBX 5 5 1 1
BITMAP
70
A8
B8
88
70
ENDCHAR
STARTCHAR uni25F7
ENCODING 9719
SWIDTH 600 0
DWIDTH 6 0
BBX 5 5 1 1
BITMAP
70
88
B8
A8
70
ENDCHAR
STARTCHAR uni2607
ENCODING 9735
SWIDTH 600 0
DWIDTH 6 0
BBX 4 7 2 0
BITMAP
10
20
40
80
50
30
70
ENDCHAR
STARTCHAR uni2608
ENCODING 9736
SWIDTH 600 0
DWIDTH 6 0
BBX 5 7 1 0
BITMAP
F8
90
A0
C0
A8
98
B8
ENDCHAR
STARTCHAR uni2609
ENCODING 9737
SWIDTH 600 0
DWIDTH 6 0
BBX 5 5 1 1
BITMAP
70
88
A8
88
70
ENDCHAR
STARTCHAR uni2639
ENCODING 9785
SWIDTH 600 0
DWIDTH 6 0
BBX 5 5 1 1
BITMAP
50
00
00
70
88
ENDCHAR
STARTCHAR smileface
ENCODING 9786
SWIDTH 600 0
DWIDTH 6 0
BBX 5 5 1 1
BITMAP
50
00
00
88
70
ENDCHAR
STARTCHAR invsmileface
ENCODING 9787
SWIDTH 600 0
DWIDTH 6 0
BBX 5 7 1 0
BITMAP
70
F8
A8
F8
F8
88
70
ENDCHAR
STARTCHAR sun
ENCODING 9788
SWIDTH 600 0
DWIDTH 6 0
BBX 5 5 1 1
BITMAP
A8
70
D8
70
A8
ENDCHAR
STARTCHAR female
ENCODING 9792
SWIDTH 600 0
DWIDTH 6 0
BBX 5 7 1 0
BITMAP
70
88
88
70
20
70
20
ENDCHAR
STARTCHAR male
ENCODING 9794
SWIDTH 600 0
DWIDTH 6 0
BBX 5 7 1 0
BITMAP
38
18
28
60
90
90
60
ENDCHAR
STARTCHAR spade
ENCODING 9824
SWIDTH 600 0
DWIDTH 6 0
BBX 5 6 1 0
BITMAP
20
70
F8
F8
20
70
ENDCHAR
STARTCHAR club
ENCODING 9827
SWIDTH 600 0
DWIDTH 6 0
BBX 5 6 1 0
BITMAP
70
70
F8
F8
20
70
ENDCHAR
STARTCHAR heart
ENCODING 9829
SWIDTH 600 0
DWIDTH 6 0
BBX 5 5 1 1
BITMAP
50
F8
F8
70
20
ENDCHAR
STARTCHAR diamond
ENCODING 9830
SWIDTH 600 0
DWIDTH 6 0
BBX 5 5 1 1
BITMAP
20
70
F8
70
20
ENDCHAR
STARTCHAR uni2669
ENCODING 9833
SWIDTH 600 0
DWIDTH 6 0
BBX 3 7 2 0
BITMAP
20
20
20
20
60
E0
40
ENDCHAR
STARTCHAR musicalnote
ENCODING 9834
SWIDTH 600 0
DWIDTH 6 0
BBX 5 7 1 0
BITMAP
20
30
28
28
60
E0
40
ENDCHAR
STARTCHAR musicalnotedbl
ENCODING 9835
SWIDTH 600 0
DWIDTH 6 0
BBX 5 7 1 0
BITMAP
18
68
48
48
58
D8
C0
ENDCHAR
STARTCHAR uni266C
ENCODING 9836
SWIDTH 600 0
DWIDTH 6 0
BBX 5 7 1 0
BITMAP
78
48
78
48
48
D8
D8
ENDCHAR
STARTCHAR uni266D
ENCODING 9837
SWIDTH 600 0
DWIDTH 6 0
BBX 4 7 2 0
BITMAP
80
80
B0
D0
90
A0
C0
ENDCHAR
STARTCHAR uni266E
ENCODING 9838
SWIDTH 600 0
DWIDTH 6 0
BBX 4 7 2 0
BITMAP
80
B0
D0
90
B0
D0
10
ENDCHAR
STARTCHAR uni266F
ENCODING 9839
SWIDTH 600 0
DWIDTH 6 0
BBX 5 7 1 0
BITMAP
10
58
70
D8
70
D0
40
ENDCHAR
STARTCHAR uni2708
ENCODING 9992
SWIDTH 600 0
DWIDTH 6 0
BBX 5 5 1 1
BITMAP
20
90
78
90
20
ENDCHAR
STARTCHAR uni2713
ENCODING 10003
SWIDTH 600 0
DWIDTH 6 0
BBX 5 4 1 1
BITMAP
08
10
A0
40
ENDCHAR
STARTCHAR uni27CA
ENCODING 10186
SWIDTH 600 0
DWIDTH 6 0
BBX 3 7 2 0
BITMAP
40
40
40
E0
40
40
40
ENDCHAR
STARTCHAR uni27D2
ENCODING 10194
SWIDTH 600 0
DWIDTH 6 0
BBX 5 5 1 1
BITMAP
A8
A8
A8
A8
70
ENDCHAR
STARTCHAR uni2912
ENCODING 10514
SWIDTH 600 0
DWIDTH 6 0
BBX 5 5 1 1
BITMAP
F8
70
A8
20
20
ENDCHAR
STARTCHAR uni2913
ENCODING 10515
SWIDTH 600 0
DWIDTH 6 0
BBX 5 5 1 1
BITMAP
20
20
A8
70
F8
ENDCHAR
STARTCHAR uni2934
ENCODING 10548
SWIDTH 600 0
DWIDTH 6 0
BBX 5 5 1 1
BITMAP
20
70
A8
20
C0
ENDCHAR
STARTCHAR uni2935
ENCODING 10549
SWIDTH 600 0
DWIDTH 6 0
BBX 5 5 1 1
BITMAP
C0
20
A8
70
20
ENDCHAR
STARTCHAR uni2936
ENCODING 10550
SWIDTH 600 0
DWIDTH 6 0
BBX 5 6 1 1
BITMAP
08
28
48
F0
40
20
ENDCHAR
STARTCHAR uni2937
ENCODING 10551
SWIDTH 600 0
DWIDTH 6 0
BBX 5 6 1 1
BITMAP
80
A0
90
78
10
20
ENDCHAR
STARTCHAR uni2952
ENCODING 10578
SWIDTH 600 0
DWIDTH 6 0
BBX 5 5 1 1
BITMAP
A0
C0
F8
80
80
ENDCHAR
STARTCHAR uni2953
ENCODING 10579
SWIDTH 600 0
DWIDTH 6 0
BBX 5 5 1 1
BITMAP
28
18
F8
08
08
ENDCHAR
STARTCHAR uni2954
ENCODING 10580
SWIDTH 600 0
DWIDTH 6 0
BBX 5 5 1 1
BITMAP
F8
30
28
20
20
ENDCHAR
STARTCHAR uni2955
ENCODING 10581
SWIDTH 600 0
DWIDTH 6 0
BBX 5 5 1 1
BITMAP
20
20
28
30
F8
ENDCHAR
STARTCHAR uni2956
ENCODING 10582
SWIDTH 600 0
DWIDTH 6 0
BBX 5 5 1 1
BITMAP
80
80
F8
C0
A0
ENDCHAR
STARTCHAR uni2957
ENCODING 10583
SWIDTH 600 0
DWIDTH 6 0
BBX 5 5 1 1
BITMAP
08
08
F8
18
28
ENDCHAR
STARTCHAR uni2958
ENCODING 10584
SWIDTH 600 0
DWIDTH 6 0
BBX 5 5 1 1
BITMAP
F8
60
A0
20
20
ENDCHAR
STARTCHAR uni2959
ENCODING 10585
SWIDTH 600 0
DWIDTH 6 0
BBX 5 5 1 1
BITMAP
20
20
A0
60
F8
ENDCHAR
STARTCHAR uni295A
ENCODING 10586
SWIDTH 600 0
DWIDTH 6 0
BBX 5 5 1 1
BITMAP
28
48
F8
08
08
ENDCHAR
STARTCHAR uni295B
ENCODING 10587
SWIDTH 600 0
DWIDTH 6 0
BBX 5 5 1 1
BITMAP
A0
90
F8
80
80
ENDCHAR
STARTCHAR uni295C
ENCODING 10588
SWIDTH 600 0
DWIDTH 6 0
BBX 5 5 1 1
BITMAP
20
30
28
20
F8
ENDCHAR
STARTCHAR uni295D
ENCODING 10589
SWIDTH 600 0
DWIDTH 6 0
BBX 5 5 1 1
BITMAP
F8
20
28
30
20
ENDCHAR
STARTCHAR uni295E
ENCODING 10590
SWIDTH 600 0
DWIDTH 6 0
BBX 5 5 1 1
BITMAP
08
08
F8
48
28
ENDCHAR
STARTCHAR uni295F
ENCODING 10591
SWIDTH 600 0
DWIDTH 6 0
BBX 5 5 1 1
BITMAP
80
80
F8
90
A0
ENDCHAR
STARTCHAR uni2960
ENCODING 10592
SWIDTH 600 0
DWIDTH 6 0
BBX 5 5 1 1
BITMAP
20
60
A0
20
F8
ENDCHAR
STARTCHAR uni2961
ENCODING 10593
SWIDTH 600 0
DWIDTH 6 0
BBX 5 5 1 1
BITMAP
F8
20
A0
60
20
ENDCHAR
STARTCHAR uni2980
ENCODING 10624
SWIDTH 600 0
DWIDTH 6 0
BBX 5 7 1 0
BITMAP
A8
A8
A8
A8
A8
A8
A8
ENDCHAR
STARTCHAR uni29B6
ENCODING 10678
SWIDTH 600 0
DWIDTH 6 0
BBX 5 5 1 1
BITMAP
70
A8
A8
A8
70
ENDCHAR
STARTCHAR uni29BA
ENCODING 10682
SWIDTH 600 0
DWIDTH 6 0
BBX 5 5 1 1
BITMAP
70
A8
F8
88
70
ENDCHAR
STARTCHAR uni2A25
ENCODING 10789
SWIDTH 600 0
DWIDTH 6 0
BBX 5 7 1 0
BITMAP
20
20
F8
20
20
00
20
ENDCHAR
STARTCHAR uni2A2A
ENCODING 10794
SWIDTH 600 0
DWIDTH 6 0
BBX 5 3 1 1
BITMAP
F8
00
20
ENDCHAR
STARTCHAR uni2A2B
ENCODING 10795
SWIDTH 600 0
DWIDTH 6 0
BBX 5 5 1 1
BITMAP
80
00
F8
00
08
ENDCHAR
STARTCHAR uni2A2C
ENCODING 10796
SWIDTH 600 0
DWIDTH 6 0
BBX 5 5 1 1
BITMAP
08
00
F8
00
80
ENDCHAR
STARTCHAR uni2A30
ENCODING 10800
SWIDTH 600 0
DWIDTH 6 0
BBX 5 6 1 1
BITMAP
20
88
50
20
50
88
ENDCHAR
STARTCHAR uni2A40
ENCODING 10816
SWIDTH 600 0
DWIDTH 6 0
BBX 5 5 1 1
BITMAP
70
88
A8
88
88
ENDCHAR
STARTCHAR uni2A51
ENCODING 10833
SWIDTH 600 0
DWIDTH 6 0
BBX 5 5 1 2
BITMAP
20
00
20
50
88
ENDCHAR
STARTCHAR uni2A52
ENCODING 10834
SWIDTH 600 0
DWIDTH 6 0
BBX 5 5 1 2
BITMAP
20
00
88
50
20
ENDCHAR
STARTCHAR uni2A66
ENCODING 10854
SWIDTH 600 0
DWIDTH 6 0
BBX 5 5 1 0
BITMAP
F8
00
F8
00
20
ENDCHAR
STARTCHAR uni2A67
ENCODING 10855
SWIDTH 600 0
DWIDTH 6 0
BBX 5 7 1 0
BITMAP
20
00
F8
00
F8
00
F8
ENDCHAR
STARTCHAR uni2A6A
ENCODING 10858
SWIDTH 600 0
DWIDTH 6 0
BBX 5 5 1 2
BITMAP
20
00
40
A8
10
ENDCHAR
STARTCHAR uni2A6B
ENCODING 10859
SWIDTH 600 0
DWIDTH 6 0
BBX 5 5 1 1
BITMAP
08
40
A8
10
80
ENDCHAR
STARTCHAR uni2A73
ENCODING 10867
SWIDTH 600 0
DWIDTH 6 0
BBX 5 7 1 0
BITMAP
F8
00
F8
00
40
A8
10
ENDCHAR
STARTCHAR uni2A77
ENCODING 10871
SWIDTH 600 0
DWIDTH 6 0
BBX 5 7 1 0
BITMAP
50
00
F8
00
F8
00
50
ENDCHAR
STARTCHAR uni2AAE
ENCODING 10926
SWIDTH 600 0
DWIDTH 6 0
BBX 5 6 1 1
BITMAP
20
D8
00
F8
00
F8
ENDCHAR
STARTCHAR uni2ABD
ENCODING 10941
SWIDTH 600 0
DWIDTH 6 0
BBX 5 5 1 1
BITMAP
78
80
A0
80
78
ENDCHAR
STARTCHAR uni2ABE
ENCODING 10942
SWIDTH 600 0
DWIDTH 6 0
BBX 5 5 1 1
BITMAP
F0
08
28
08
F0
ENDCHAR
STARTCHAR uni2ABF
ENCODING 10943
SWIDTH 600 0
DWIDTH 6 0
BBX 5 7 1 0
BITMAP
78
80
78
00
20
70
20
ENDCHAR
STARTCHAR uni2AC0
ENCODING 10944
SWIDTH 600 0
DWIDTH 6 0
BBX 5 7 1 0
BITMAP
F0
08
F0
00
20
70
20
ENDCHAR
STARTCHAR uni2AC1
ENCODING 10945
SWIDTH 600 0
DWIDTH 6 0
BBX 5 7 1 0
BITMAP
78
80
78
00
50
20
50
ENDCHAR
STARTCHAR uni2AC2
ENCODING 10946
SWIDTH 600 0
DWIDTH 6 0
BBX 5 7 1 0
BITMAP
F0
08
F0
00
50
20
50
ENDCHAR
STARTCHAR uni2AC3
ENCODING 10947
SWIDTH 600 0
DWIDTH 6 0
BBX 5 7 1 0
BITMAP
20
00
78
80
78
00
F8
ENDCHAR
STARTCHAR uni2AC4
ENCODING 10948
SWIDTH 600 0
DWIDTH 6 0
BBX 5 7 1 0
BITMAP
20
00
F0
08
F0
00
F8
ENDCHAR
STARTCHAR uni2AC5
ENCODING 10949
SWIDTH 600 0
DWIDTH 6 0
BBX 5 7 1 0
BITMAP
78
80
78
00
F8
00
F8
ENDCHAR
STARTCHAR uni2AC6
ENCODING 10950
SWIDTH 600 0
DWIDTH 6 0
BBX 5 7 1 0
BITMAP
F0
08
F0
00
F8
00
F8
ENDCHAR
STARTCHAR uni2AC7
ENCODING 10951
SWIDTH 600 0
DWIDTH 6 0
BBX 5 7 1 0
BITMAP
78
80
78
00
40
A8
10
ENDCHAR
STARTCHAR uni2AC8
ENCODING 10952
SWIDTH 600 0
DWIDTH 6 0
BBX 5 7 1 0
BITMAP
F0
08
F0
00
40
A8
10
ENDCHAR
STARTCHAR uni2ACF
ENCODING 10959
SWIDTH 600 0
DWIDTH 6 0
BBX 5 5 1 1
BITMAP
78
88
88
88
78
ENDCHAR
STARTCHAR uni2AD0
ENCODING 10960
SWIDTH 600 0
DWIDTH 6 0
BBX 5 5 1 1
BITMAP
F0
88
88
88
F0
ENDCHAR
STARTCHAR uni2AD1
ENCODING 10961
SWIDTH 600 0
DWIDTH 6 0
BBX 5 7 1 0
BITMAP
78
88
88
88
78
00
F8
ENDCHAR
STARTCHAR uni2AD2
ENCODING 10962
SWIDTH 600 0
DWIDTH 6 0
BBX 5 7 1 0
BITMAP
F0
88
88
88
F0
00
F8
ENDCHAR
STARTCHAR uni2AD3
ENCODING 10963
SWIDTH 600 0
DWIDTH 6 0
BBX 5 7 1 0
BITMAP
78
80
78
00
F0
08
F0
ENDCHAR
STARTCHAR uni2AD4
ENCODING 10964
SWIDTH 600 0
DWIDTH 6 0
BBX 5 7 1 0
BITMAP
F0
08
F0
00
78
80
78
ENDCHAR
STARTCHAR uni2AD5
ENCODING 10965
SWIDTH 600 0
DWIDTH 6 0
BBX 5 7 1 0
BITMAP
78
80
78
00
78
80
78
ENDCHAR
STARTCHAR uni2AD6
ENCODING 10966
SWIDTH 600 0
DWIDTH 6 0
BBX 5 7 1 0
BITMAP
F0
08
F0
00
F0
08
F0
ENDCHAR
STARTCHAR uni2AD9
ENCODING 10969
SWIDTH 600 0
DWIDTH 6 0
BBX 5 5 1 1
BITMAP
70
A8
A8
A8
A8
ENDCHAR
STARTCHAR uni2ADA
ENCODING 10970
SWIDTH 600 0
DWIDTH 6 0
BBX 5 7 1 0
BITMAP
70
20
70
A8
A8
A8
A8
ENDCHAR
STARTCHAR uni2ADB
ENCODING 10971
SWIDTH 600 0
DWIDTH 6 0
BBX 5 7 1 0
BITMAP
20
70
A8
A8
A8
A8
20
ENDCHAR
STARTCHAR uni2ADE
ENCODING 10974
SWIDTH 600 0
DWIDTH 6 0
BBX 3 5 2 1
BITMAP
20
20
E0
20
20
ENDCHAR
STARTCHAR uni2ADF
ENCODING 10975
SWIDTH 600 0
DWIDTH 6 0
BBX 5 3 1 2
BITMAP
F8
20
20
ENDCHAR
STARTCHAR uni2AE0
ENCODING 10976
SWIDTH 600 0
DWIDTH 6 0
BBX 5 3 1 2
BITMAP
20
20
F8
ENDCHAR
STARTCHAR uni2AE2
ENCODING 10978
SWIDTH 600 0
DWIDTH 6 0
BBX 5 7 1 0
BITMAP
80
F8
80
F8
80
F8
80
ENDCHAR
STARTCHAR uni2AE3
ENCODING 10979
SWIDTH 600 0
DWIDTH 6 0
BBX 5 5 1 1
BITMAP
28
28
E8
28
28
ENDCHAR
STARTCHAR uni2AE4
ENCODING 10980
SWIDTH 600 0
DWIDTH 6 0
BBX 5 5 1 1
BITMAP
08
F8
08
F8
08
ENDCHAR
STARTCHAR uni2AE5
ENCODING 10981
SWIDTH 600 0
DWIDTH 6 0
BBX 5 5 1 1
BITMAP
28
E8
28
E8
28
ENDCHAR
STARTCHAR uni2AE6
ENCODING 10982
SWIDTH 600 0
DWIDTH 6 0
BBX 5 5 1 1
BITMAP
A0
A0
F8
A0
A0
ENDCHAR
STARTCHAR uni2AE7
ENCODING 10983
SWIDTH 600 0
DWIDTH 6 0
BBX 5 5 1 1
BITMAP
F8
00
F8
20
20
ENDCHAR
STARTCHAR uni2AE8
ENCODING 10984
SWIDTH 600 0
DWIDTH 6 0
BBX 5 5 1 1
BITMAP
20
20
F8
00
F8
ENDCHAR
STARTCHAR uni2AE9
ENCODING 10985
SWIDTH 600 0
DWIDTH 6 0
BBX 5 7 1 0
BITMAP
20
20
F8
00
F8
20
20
ENDCHAR
STARTCHAR uni2AEA
ENCODING 10986
SWIDTH 600 0
DWIDTH 6 0
BBX 5 5 1 1
BITMAP
F8
50
50
50
50
ENDCHAR
STARTCHAR uni2AEB
ENCODING 10987
SWIDTH 600 0
DWIDTH 6 0
BBX 5 5 1 1
BITMAP
50
50
50
50
F8
ENDCHAR
STARTCHAR uni2AEC
ENCODING 10988
SWIDTH 600 0
DWIDTH 6 0
BBX 5 5 1 1
BITMAP
F8
08
F8
08
08
ENDCHAR
STARTCHAR uni2AED
ENCODING 10989
SWIDTH 600 0
DWIDTH 6 0
BBX 5 5 1 1
BITMAP
F8
80
F8
80
80
ENDCHAR
STARTCHAR uni2AF2
ENCODING 10994
SWIDTH 600 0
DWIDTH 6 0
BBX 5 7 1 0
BITMAP
50
50
50
F8
50
50
50
ENDCHAR
STARTCHAR uni2AF4
ENCODING 10996
SWIDTH 600 0
DWIDTH 6 0
BBX 5 7 1 0
BITMAP
A8
A8
A8
A8
A8
A8
A8
ENDCHAR
STARTCHAR uni2AF5
ENCODING 10997
SWIDTH 600 0
DWIDTH 6 0
BBX 5 7 1 0
BITMAP
A8
A8
A8
F8
A8
A8
A8
ENDCHAR
STARTCHAR uni2AFC
ENCODING 11004
SWIDTH 600 0
DWIDTH 6 0
BBX 5 9 1 -2
BITMAP
A8
A8
A8
A8
A8
A8
A8
A8
A8
ENDCHAR
STARTCHAR uni2B1A
ENCODING 11034
SWIDTH 600 0
DWIDTH 6 0
BBX 5 5 1 1
BITMAP
A8
00
88
00
A8
ENDCHAR
STARTCHAR uni2C6F
ENCODING 11375
SWIDTH 600 0
DWIDTH 6 0
BBX 5 7 1 0
BITMAP
88
88
F8
88
88
50
20
ENDCHAR
STARTCHAR uni2C71
ENCODING 11377
SWIDTH 600 0
DWIDTH 6 0
BBX 5 5 1 0
BITMAP
90
A8
A0
A0
40
ENDCHAR
STARTCHAR uni2C7B
ENCODING 11387
SWIDTH 600 0
DWIDTH 6 0
BBX 5 5 1 0
BITMAP
F8
08
78
08
F8
ENDCHAR
STARTCHAR uni2C7E
ENCODING 11390
SWIDTH 600 0
DWIDTH 6 0
BBX 5 9 1 -2
BITMAP
70
88
80
70
08
88
70
20
18
ENDCHAR
STARTCHAR uni2C7F
ENCODING 11391
SWIDTH 600 0
DWIDTH 6 0
BBX 5 9 1 -2
BITMAP
F8
08
10
20
40
80
C0
20
18
ENDCHAR
STARTCHAR uni2E18
ENCODING 11800
SWIDTH 600 0
DWIDTH 6 0
BBX 5 7 1 -2
BITMAP
20
00
20
60
A0
A8
70
ENDCHAR
STARTCHAR uni2E28
ENCODING 11816
SWIDTH 600 0
DWIDTH 6 0
BBX 5 7 1 0
BITMAP
48
90
90
90
90
90
48
ENDCHAR
STARTCHAR uni2E29
ENCODING 11817
SWIDTH 600 0
DWIDTH 6 0
BBX 5 7 1 0
BITMAP
90
48
48
48
48
48
90
ENDCHAR
STARTCHAR uni2E2A
ENCODING 11818
SWIDTH 600 0
DWIDTH 6 0
BBX 5 5 1 0
BITMAP
88
00
00
00
20
ENDCHAR
STARTCHAR uni2E2B
ENCODING 11819
SWIDTH 600 0
DWIDTH 6 0
BBX 5 5 1 0
BITMAP
20
00
00
00
88
ENDCHAR
STARTCHAR uni2E2C
ENCODING 11820
SWIDTH 600 0
DWIDTH 6 0
BBX 5 5 1 0
BITMAP
88
00
00
00
88
ENDCHAR
STARTCHAR uni2E2D
ENCODING 11821
SWIDTH 600 0
DWIDTH 6 0
BBX 5 5 1 0
BITMAP
20
00
A8
00
20
ENDCHAR
STARTCHAR uni2E2E
ENCODING 11822
SWIDTH 600 0
DWIDTH 6 0
BBX 5 7 1 0
BITMAP
70
88
40
20
20
00
20
ENDCHAR
STARTCHAR uni2E36
ENCODING 11830
SWIDTH 600 0
DWIDTH 6 0
BBX 3 9 1 -2
BITMAP
20
20
E0
20
20
20
20
20
20
ENDCHAR
STARTCHAR uni2E37
ENCODING 11831
SWIDTH 600 0
DWIDTH 6 0
BBX 3 9 3 -2
BITMAP
80
80
E0
80
80
80
80
80
80
ENDCHAR
STARTCHAR uni2E38
ENCODING 11832
SWIDTH 600 0
DWIDTH 6 0
BBX 5 9 1 -2
BITMAP
20
20
20
20
20
20
F8
20
20
ENDCHAR
STARTCHAR uni2E40
ENCODING 11840
SWIDTH 600 0
DWIDTH 6 0
BBX 3 3 2 2
BITMAP
E0
00
E0
ENDCHAR
STARTCHAR uni2E41
ENCODING 11841
SWIDTH 600 0
DWIDTH 6 0
BBX 2 3 3 -1
BITMAP
80
80
40
ENDCHAR
STARTCHAR uni2E42
ENCODING 11842
SWIDTH 600 0
DWIDTH 6 0
BBX 5 3 1 -1
BITMAP
90
90
48
ENDCHAR
STARTCHAR uni2E4B
ENCODING 11851
SWIDTH 600 0
DWIDTH 6 0
BBX 5 9 1 -2
BITMAP
20
20
F8
20
F8
20
F8
20
20
ENDCHAR
STARTCHAR uniA730
ENCODING 42800
SWIDTH 600 0
DWIDTH 6 0
BBX 5 5 1 0
BITMAP
F8
80
F0
80
80
ENDCHAR
STARTCHAR uniA731
ENCODING 42801
SWIDTH 600 0
DWIDTH 6 0
BBX 5 5 1 0
BITMAP
78
80
70
08
F0
ENDCHAR
STARTCHAR uniA780
ENCODING 42880
SWIDTH 600 0
DWIDTH 6 0
BBX 5 7 1 0
BITMAP
F8
08
08
08
08
08
08
ENDCHAR
STARTCHAR uniA781
ENCODING 42881
SWIDTH 600 0
DWIDTH 6 0
BBX 3 7 2 0
BITMAP
E0
40
40
40
40
40
60
ENDCHAR
STARTCHAR uniA7AF
ENCODING 42927
SWIDTH 600 0
DWIDTH 6 0
BBX 5 5 1 0
BITMAP
70
88
A8
90
68
ENDCHAR
STARTCHAR uniA7B0
ENCODING 42928
SWIDTH 600 0
DWIDTH 6 0
BBX 5 7 1 0
BITMAP
88
48
28
18
28
48
88
ENDCHAR
STARTCHAR uniA7B1
ENCODING 42929
SWIDTH 600 0
DWIDTH 6 0
BBX 5 7 1 0
BITMAP
20
20
20
20
20
20
F8
ENDCHAR
STARTCHAR uniA7FB
ENCODING 43003
SWIDTH 600 0
DWIDTH 6 0
BBX 5 7 1 0
BITMAP
F8
08
08
78
08
08
08
ENDCHAR
STARTCHAR uniA7FC
ENCODING 43004
SWIDTH 600 0
DWIDTH 6 0
BBX 5 7 1 0
BITMAP
78
88
88
78
08
08
08
ENDCHAR
STARTCHAR uniA7FD
ENCODING 43005
SWIDTH 600 0
DWIDTH 6 0
BBX 5 7 1 0
BITMAP
88
88
88
A8
A8
D8
88
ENDCHAR
STARTCHAR uniEE00
ENCODING 60928
SWIDTH 600 0
DWIDTH 6 0
BBX 1 1 0 0
BITMAP
00
ENDCHAR
STARTCHAR uniEE01
ENCODING 60929
SWIDTH 600 0
DWIDTH 6 0
BBX 3 3 0 5
BITMAP
E0
E0
E0
ENDCHAR
STARTCHAR uniEE02
ENCODING 60930
SWIDTH 600 0
DWIDTH 6 0
BBX 3 3 3 5
BITMAP
E0
E0
E0
ENDCHAR
STARTCHAR uniEE03
ENCODING 60931
SWIDTH 600 0
DWIDTH 6 0
BBX 6 3 0 5
BITMAP
FC
FC
FC
ENDCHAR
STARTCHAR uniEE04
ENCODING 60932
SWIDTH 600 0
DWIDTH 6 0
BBX 3 4 0 1
BITMAP
E0
E0
E0
E0
ENDCHAR
STARTCHAR uniEE05
ENCODING 60933
SWIDTH 600 0
DWIDTH 6 0
BBX 3 7 0 1
BITMAP
E0
E0
E0
E0
E0
E0
E0
ENDCHAR
STARTCHAR uniEE06
ENCODING 60934
SWIDTH 600 0
DWIDTH 6 0
BBX 6 7 0 1
BITMAP
1C
1C
1C
E0
E0
E0
E0
ENDCHAR
STARTCHAR uniEE07
ENCODING 60935
SWIDTH 600 0
DWIDTH 6 0
BBX 6 7 0 1
BITMAP
FC
FC
FC
E0
E0
E0
E0
ENDCHAR
STARTCHAR uniEE08
ENCODING 60936
SWIDTH 600 0
DWIDTH 6 0
BBX 3 4 3 1
BITMAP
E0
E0
E0
E0
ENDCHAR
STARTCHAR uniEE09
ENCODING 60937
SWIDTH 600 0
DWIDTH 6 0
BBX 6 7 0 1
BITMAP
E0
E0
E0
1C
1C
1C
1C
ENDCHAR
STARTCHAR uniEE0A
ENCODING 60938
SWIDTH 600 0
DWIDTH 6 0
BBX 3 7 3 1
BITMAP
E0
E0
E0
E0
E0
E0
E0
ENDCHAR
STARTCHAR uniEE0B
ENCODING 60939
SWIDTH 600 0
DWIDTH 6 0
BBX 6 7 0 1
BITMAP
FC
FC
FC
1C
1C
1C
1C
ENDCHAR
STARTCHAR uniEE0C
ENCODING 60940
SWIDTH 600 0
DWIDTH 6 0
BBX 6 4 0 1
BITMAP
FC
FC
FC
FC
ENDCHAR
STARTCHAR uniEE0D
ENCODING 60941
SWIDTH 600 0
DWIDTH 6 0
BBX 6 7 0 1
BITMAP
E0
E0
E0
FC
FC
FC
FC
ENDCHAR
STARTCHAR uniEE0E
ENCODING 60942
SWIDTH 600 0
DWIDTH 6 0
BBX 6 7 0 1
BITMAP
1C
1C
1C
FC
FC
FC
FC
ENDCHAR
STARTCHAR uniEE0F
ENCODING 60943
SWIDTH 600 0
DWIDTH 6 0
BBX 6 7 0 1
BITMAP
FC
FC
FC
FC
FC
FC
FC
ENDCHAR
STARTCHAR uniEE10
ENCODING 60944
SWIDTH 600 0
DWIDTH 6 0
BBX 3 3 0 -2
BITMAP
E0
E0
E0
ENDCHAR
STARTCHAR uniEE11
ENCODING 60945
SWIDTH 600 0
DWIDTH 6 0
BBX 3 10 0 -2
BITMAP
E0
E0
E0
00
00
00
00
E0
E0
E0
ENDCHAR
STARTCHAR uniEE12
ENCODING 60946
SWIDTH 600 0
DWIDTH 6 0
BBX 6 10 0 -2
BITMAP
1C
1C
1C
00
00
00
00
E0
E0
E0
ENDCHAR
STARTCHAR uniEE13
ENCODING 60947
SWIDTH 600 0
DWIDTH 6 0
BBX 6 10 0 -2
BITMAP
FC
FC
FC
00
00
00
00
E0
E0
E0
ENDCHAR
STARTCHAR uniEE14
ENCODING 60948
SWIDTH 600 0
DWIDTH 6 0
BBX 3 7 0 -2
BITMAP
E0
E0
E0
E0
E0
E0
E0
ENDCHAR
STARTCHAR uniEE15
ENCODING 60949
SWIDTH 600 0
DWIDTH 6 0
BBX 3 10 0 -2
BITMAP
E0
E0
E0
E0
E0
E0
E0
E0
E0
E0
ENDCHAR
STARTCHAR uniEE16
ENCODING 60950
SWIDTH 600 0
DWIDTH 6 0
BBX 6 10 0 -2
BITMAP
1C
1C
1C
E0
E0
E0
E0
E0
E0
E0
ENDCHAR
STARTCHAR uniEE17
ENCODING 60951
SWIDTH 600 0
DWIDTH 6 0
BBX 6 10 0 -2
BITMAP
FC
FC
FC
E0
E0
E0
E0
E0
E0
E0
ENDCHAR
STARTCHAR uniEE18
ENCODING 60952
SWIDTH 600 0
DWIDTH 6 0
BBX 6 7 0 -2
BITMAP
1C
1C
1C
1C
E0
E0
E0
ENDCHAR
STARTCHAR uniEE19
ENCODING 60953
SWIDTH 600 0
DWIDTH 6 0
BBX 6 10 0 -2
BITMAP
E0
E0
E0
1C
1C
1C
1C
E0
E0
E0
ENDCHAR
STARTCHAR uniEE1A
ENCODING 60954
SWIDTH 600 0
DWIDTH 6 0
BBX 6 10 0 -2
BITMAP
1C
1C
1C
1C
1C
1C
1C
E0
E0
E0
ENDCHAR
STARTCHAR uniEE1B
ENCODING 60955
SWIDTH 600 0
DWIDTH 6 0
BBX 6 10 0 -2
BITMAP
FC
FC
FC
1C
1C
1C
1C
E0
E0
E0
ENDCHAR
STARTCHAR uniEE1C
ENCODING 60956
SWIDTH 600 0
DWIDTH 6 0
BBX 6 7 0 -2
BITMAP
FC
FC
FC
FC
E0
E0
E0
ENDCHAR
STARTCHAR uniEE1D
ENCODING 60957
SWIDTH 600 0
DWIDTH 6 0
BBX 6 10 0 -2
BITMAP
E0
E0
E0
FC
FC
FC
FC
E0
E0
E0
ENDCHAR
STARTCHAR uniEE1E
ENCODING 60958
SWIDTH 600 0
DWIDTH 6 0
BBX 6 10 0 -2
BITMAP
1C
1C
1C
FC
FC
FC
FC
E0
E0
E0
ENDCHAR
STARTCHAR uniEE1F
ENCODING 60959
SWIDTH 600 0
DWIDTH 6 0
BBX 6 10 0 -2
BITMAP
FC
FC
FC
FC
FC
FC
FC
E0
E0
E0
ENDCHAR
STARTCHAR uniEE20
ENCODING 60960
SWIDTH 600 0
DWIDTH 6 0
BBX 1 1 0 0
BITMAP
00
ENDCHAR
STARTCHAR uniEE21
ENCODING 60961
SWIDTH 600 0
DWIDTH 6 0
BBX 2 2 1 6
BITMAP
C0
C0
ENDCHAR
STARTCHAR uniEE22
ENCODING 60962
SWIDTH 600 0
DWIDTH 6 0
BBX 2 2 4 6
BITMAP
C0
C0
ENDCHAR
STARTCHAR uniEE23
ENCODING 60963
SWIDTH 600 0
DWIDTH 6 0
BBX 5 2 1 6
BITMAP
D8
D8
ENDCHAR
STARTCHAR uniEE24
ENCODING 60964
SWIDTH 600 0
DWIDTH 6 0
BBX 2 3 1 2
BITMAP
C0
C0
C0
ENDCHAR
STARTCHAR uniEE25
ENCODING 60965
SWIDTH 600 0
DWIDTH 6 0
BBX 2 6 1 2
BITMAP
C0
C0
00
C0
C0
C0
ENDCHAR
STARTCHAR uniEE26
ENCODING 60966
SWIDTH 600 0
DWIDTH 6 0
BBX 5 6 1 2
BITMAP
18
18
00
C0
C0
C0
ENDCHAR
STARTCHAR uniEE27
ENCODING 60967
SWIDTH 600 0
DWIDTH 6 0
BBX 5 6 1 2
BITMAP
D8
D8
00
C0
C0
C0
ENDCHAR
STARTCHAR uniEE28
ENCODING 60968
SWIDTH 600 0
DWIDTH 6 0
BBX 2 3 4 2
BITMAP
C0
C0
C0
ENDCHAR
STARTCHAR uniEE29
ENCODING 60969
SWIDTH 600 0
DWIDTH 6 0
BBX 5 6 1 2
BITMAP
C0
C0
00
18
18
18
ENDCHAR
STARTCHAR uniEE2A
ENCODING 60970
SWIDTH 600 0
DWIDTH 6 0
BBX 2 6 4 2
BITMAP
C0
C0
00
C0
C0
C0
ENDCHAR
STARTCHAR uniEE2B
ENCODING 60971
SWIDTH 600 0
DWIDTH 6 0
BBX 5 6 1 2
BITMAP
D8
D8
00
18
18
18
ENDCHAR
STARTCHAR uniEE2C
ENCODING 60972
SWIDTH 600 0
DWIDTH 6 0
BBX 5 3 1 2
BITMAP
D8
D8
D8
ENDCHAR
STARTCHAR uniEE2D
ENCODING 60973
SWIDTH 600 0
DWIDTH 6 0
BBX 5 6 1 2
BITMAP
C0
C0
00
D8
D8
D8
ENDCHAR
STARTCHAR uniEE2E
ENCODING 60974
SWIDTH 600 0
DWIDTH 6 0
BBX 5 6 1 2
BITMAP
18
18
00
D8
D8
D8
ENDCHAR
STARTCHAR uniEE2F
ENCODING 60975
SWIDTH 600 0
DWIDTH 6 0
BBX 5 6 1 2
BITMAP
D8
D8
00
D8
D8
D8
ENDCHAR
STARTCHAR uniEE30
ENCODING 60976
SWIDTH 600 0
DWIDTH 6 0
BBX 2 2 1 -1
BITMAP
C0
C0
ENDCHAR
STARTCHAR uniEE31
ENCODING 60977
SWIDTH 600 0
DWIDTH 6 0
BBX 2 9 1 -1
BITMAP
C0
C0
00
00
00
00
00
C0
C0
ENDCHAR
STARTCHAR uniEE32
ENCODING 60978
SWIDTH 600 0
DWIDTH 6 0
BBX 5 9 1 -1
BITMAP
18
18
00
00
00
00
00
C0
C0
ENDCHAR
STARTCHAR uniEE33
ENCODING 60979
SWIDTH 600 0
DWIDTH 6 0
BBX 5 9 1 -1
BITMAP
D8
D8
00
00
00
00
00
C0
C0
ENDCHAR
STARTCHAR uniEE34
ENCODING 60980
SWIDTH 600 0
DWIDTH 6 0
BBX 2 6 1 -1
BITMAP
C0
C0
C0
00
C0
C0
ENDCHAR
STARTCHAR uniEE35
ENCODING 60981
SWIDTH 600 0
DWIDTH 6 0
BBX 2 9 1 -1
BITMAP
C0
C0
00
C0
C0
C0
00
C0
C0
ENDCHAR
STARTCHAR uniEE36
ENCODING 60982
SWIDTH 600 0
DWIDTH 6 0
BBX 5 9 1 -1
BITMAP
18
18
00
C0
C0
C0
00
C0
C0
ENDCHAR
STARTCHAR uniEE37
ENCODING 60983
SWIDTH 600 0
DWIDTH 6 0
BBX 5 9 1 -1
BITMAP
D8
D8
00
C0
C0
C0
00
C0
C0
ENDCHAR
STARTCHAR uniEE38
ENCODING 60984
SWIDTH 600 0
DWIDTH 6 0
BBX 5 6 1 -1
BITMAP
18
18
18
00
C0
C0
ENDCHAR
STARTCHAR uniEE39
ENCODING 60985
SWIDTH 600 0
DWIDTH 6 0
BBX 5 9 1 -1
BITMAP
C0
C0
00
18
18
18
00
C0
C0
ENDCHAR
STARTCHAR uniEE3A
ENCODING 60986
SWIDTH 600 0
DWIDTH 6 0
BBX 5 9 1 -1
BITMAP
18
18
00
18
18
18
00
C0
C0
ENDCHAR
STARTCHAR uniEE3B
ENCODING 60987
SWIDTH 600 0
DWIDTH 6 0
BBX 5 9 1 -1
BITMAP
D8
D8
00
18
18
18
00
C0
C0
ENDCHAR
STARTCHAR uniEE3C
ENCODING 60988
SWIDTH 600 0
DWIDTH 6 0
BBX 5 6 1 -1
BITMAP
D8
D8
D8
00
C0
C0
ENDCHAR
STARTCHAR uniEE3D
ENCODING 60989
SWIDTH 600 0
DWIDTH 6 0
BBX 5 9 1 -1
BITMAP
C0
C0
00
D8
D8
D8
00
C0
C0
ENDCHAR
STARTCHAR uniEE3E
ENCODING 60990
SWIDTH 600 0
DWIDTH 6 0
BBX 5 9 1 -1
BITMAP
18
18
00
D8
D8
D8
00
C0
C0
ENDCHAR
STARTCHAR uniEE3F
ENCODING 60991
SWIDTH 600 0
DWIDTH 6 0
BBX 5 9 1 -1
BITMAP
D8
D8
00
D8
D8
D8
00
C0
C0
ENDCHAR
STARTCHAR uniEE40
ENCODING 60992
SWIDTH 600 0
DWIDTH 6 0
BBX 3 3 3 -2
BITMAP
E0
E0
E0
ENDCHAR
STARTCHAR uniEE41
ENCODING 60993
SWIDTH 600 0
DWIDTH 6 0
BBX 6 10 0 -2
BITMAP
E0
E0
E0
00
00
00
00
1C
1C
1C
ENDCHAR
STARTCHAR uniEE42
ENCODING 60994
SWIDTH 600 0
DWIDTH 6 0
BBX 3 10 3 -2
BITMAP
E0
E0
E0
00
00
00
00
E0
E0
E0
ENDCHAR
STARTCHAR uniEE43
ENCODING 60995
SWIDTH 600 0
DWIDTH 6 0
BBX 6 10 0 -2
BITMAP
FC
FC
FC
00
00
00
00
1C
1C
1C
ENDCHAR
STARTCHAR uniEE44
ENCODING 60996
SWIDTH 600 0
DWIDTH 6 0
BBX 6 7 0 -2
BITMAP
E0
E0
E0
E0
1C
1C
1C
ENDCHAR
STARTCHAR uniEE45
ENCODING 60997
SWIDTH 600 0
DWIDTH 6 0
BBX 6 10 0 -2
BITMAP
E0
E0
E0
E0
E0
E0
E0
1C
1C
1C
ENDCHAR
STARTCHAR uniEE46
ENCODING 60998
SWIDTH 600 0
DWIDTH 6 0
BBX 6 10 0 -2
BITMAP
1C
1C
1C
E0
E0
E0
E0
1C
1C
1C
ENDCHAR
STARTCHAR uniEE47
ENCODING 60999
SWIDTH 600 0
DWIDTH 6 0
BBX 6 10 0 -2
BITMAP
FC
FC
FC
E0
E0
E0
E0
1C
1C
1C
ENDCHAR
STARTCHAR uniEE48
ENCODING 61000
SWIDTH 600 0
DWIDTH 6 0
BBX 3 7 3 -2
BITMAP
E0
E0
E0
E0
E0
E0
E0
ENDCHAR
STARTCHAR uniEE49
ENCODING 61001
SWIDTH 600 0
DWIDTH 6 0
BBX 6 10 0 -2
BITMAP
E0
E0
E0
1C
1C
1C
1C
1C
1C
1C
ENDCHAR
STARTCHAR uniEE4A
ENCODING 61002
SWIDTH 600 0
DWIDTH 6 0
BBX 3 10 3 -2
BITMAP
E0
E0
E0
E0
E0
E0
E0
E0
E0
E0
ENDCHAR
STARTCHAR uniEE4B
ENCODING 61003
SWIDTH 600 0
DWIDTH 6 0
BBX 6 10 0 -2
BITMAP
FC
FC
FC
1C
1C
1C
1C
1C
1C
1C
ENDCHAR
STARTCHAR uniEE4C
ENCODING 61004
SWIDTH 600 0
DWIDTH 6 0
BBX 6 7 0 -2
BITMAP
FC
FC
FC
FC
1C
1C
1C
ENDCHAR
STARTCHAR uniEE4D
ENCODING 61005
SWIDTH 600 0
DWIDTH 6 0
BBX 6 10 0 -2
BITMAP
E0
E0
E0
FC
FC
FC
FC
1C
1C
1C
ENDCHAR
STARTCHAR uniEE4E
ENCODING 61006
SWIDTH 600 0
DWIDTH 6 0
BBX 6 10 0 -2
BITMAP
1C
1C
1C
FC
FC
FC
FC
1C
1C
1C
ENDCHAR
STARTCHAR uniEE4F
ENCODING 61007
SWIDTH 600 0
DWIDTH 6 0
BBX 6 10 0 -2
BITMAP
FC
FC
FC
FC
FC
FC
FC
1C
1C
1C
ENDCHAR
STARTCHAR uniEE50
ENCODING 61008
SWIDTH 600 0
DWIDTH 6 0
BBX 6 3 0 -2
BITMAP
FC
FC
FC
ENDCHAR
STARTCHAR uniEE51
ENCODING 61009
SWIDTH 600 0
DWIDTH 6 0
BBX 6 10 0 -2
BITMAP
E0
E0
E0
00
00
00
00
FC
FC
FC
ENDCHAR
STARTCHAR uniEE52
ENCODING 61010
SWIDTH 600 0
DWIDTH 6 0
BBX 6 10 0 -2
BITMAP
1C
1C
1C
00
00
00
00
FC
FC
FC
ENDCHAR
STARTCHAR uniEE53
ENCODING 61011
SWIDTH 600 0
DWIDTH 6 0
BBX 6 10 0 -2
BITMAP
FC
FC
FC
00
00
00
00
FC
FC
FC
ENDCHAR
STARTCHAR uniEE54
ENCODING 61012
SWIDTH 600 0
DWIDTH 6 0
BBX 6 7 0 -2
BITMAP
E0
E0
E0
E0
FC
FC
FC
ENDCHAR
STARTCHAR uniEE55
ENCODING 61013
SWIDTH 600 0
DWIDTH 6 0
BBX 6 10 0 -2
BITMAP
E0
E0
E0
E0
E0
E0
E0
FC
FC
FC
ENDCHAR
STARTCHAR uniEE56
ENCODING 61014
SWIDTH 600 0
DWIDTH 6 0
BBX 6 10 0 -2
BITMAP
1C
1C
1C
E0
E0
E0
E0
FC
FC
FC
ENDCHAR
STARTCHAR uniEE57
ENCODING 61015
SWIDTH 600 0
DWIDTH 6 0
BBX 6 10 0 -2
BITMAP
FC
FC
FC
E0
E0
E0
E0
FC
FC
FC
ENDCHAR
STARTCHAR uniEE58
ENCODING 61016
SWIDTH 600 0
DWIDTH 6 0
BBX 6 7 0 -2
BITMAP
1C
1C
1C
1C
FC
FC
FC
ENDCHAR
STARTCHAR uniEE59
ENCODING 61017
SWIDTH 600 0
DWIDTH 6 0
BBX 6 10 0 -2
BITMAP
E0
E0
E0
1C
1C
1C
1C
FC
FC
FC
ENDCHAR
STARTCHAR uniEE5A
ENCODING 61018
SWIDTH 600 0
DWIDTH 6 0
BBX 6 10 0 -2
BITMAP
1C
1C
1C
1C
1C
1C
1C
FC
FC
FC
ENDCHAR
STARTCHAR uniEE5B
ENCODING 61019
SWIDTH 600 0
DWIDTH 6 0
BBX 6 10 0 -2
BITMAP
FC
FC
FC
1C
1C
1C
1C
FC
FC
FC
ENDCHAR
STARTCHAR uniEE5C
ENCODING 61020
SWIDTH 600 0
DWIDTH 6 0
BBX 6 7 0 -2
BITMAP
FC
FC
FC
FC
FC
FC
FC
ENDCHAR
STARTCHAR uniEE5D
ENCODING 61021
SWIDTH 600 0
DWIDTH 6 0
BBX 6 10 0 -2
BITMAP
E0
E0
E0
FC
FC
FC
FC
FC
FC
FC
ENDCHAR
STARTCHAR uniEE5E
ENCODING 61022
SWIDTH 600 0
DWIDTH 6 0
BBX 6 10 0 -2
BITMAP
1C
1C
1C
FC
FC
FC
FC
FC
FC
FC
ENDCHAR
STARTCHAR uniEE5F
ENCODING 61023
SWIDTH 600 0
DWIDTH 6 0
BBX 6 10 0 -2
BITMAP
FC
FC
FC
FC
FC
FC
FC
FC
FC
FC
ENDCHAR
STARTCHAR uniEE60
ENCODING 61024
SWIDTH 600 0
DWIDTH 6 0
BBX 2 2 4 -1
BITMAP
C0
C0
ENDCHAR
STARTCHAR uniEE61
ENCODING 61025
SWIDTH 600 0
DWIDTH 6 0
BBX 5 9 1 -1
BITMAP
C0
C0
00
00
00
00
00
18
18
ENDCHAR
STARTCHAR uniEE62
ENCODING 61026
SWIDTH 600 0
DWIDTH 6 0
BBX 2 9 4 -1
BITMAP
C0
C0
00
00
00
00
00
C0
C0
ENDCHAR
STARTCHAR uniEE63
ENCODING 61027
SWIDTH 600 0
DWIDTH 6 0
BBX 5 9 1 -1
BITMAP
D8
D8
00
00
00
00
00
18
18
ENDCHAR
STARTCHAR uniEE64
ENCODING 61028
SWIDTH 600 0
DWIDTH 6 0
BBX 5 6 1 -1
BITMAP
C0
C0
C0
00
18
18
ENDCHAR
STARTCHAR uniEE65
ENCODING 61029
SWIDTH 600 0
DWIDTH 6 0
BBX 5 9 1 -1
BITMAP
C0
C0
00
C0
C0
C0
00
18
18
ENDCHAR
STARTCHAR uniEE66
ENCODING 61030
SWIDTH 600 0
DWIDTH 6 0
BBX 5 9 1 -1
BITMAP
18
18
00
C0
C0
C0
00
18
18
ENDCHAR
STARTCHAR uniEE67
ENCODING 61031
SWIDTH 600 0
DWIDTH 6 0
BBX 5 9 1 -1
BITMAP
D8
D8
00
C0
C0
C0
00
18
18
ENDCHAR
STARTCHAR uniEE68
ENCODING 61032
SWIDTH 600 0
DWIDTH 6 0
BBX 2 6 4 -1
BITMAP
C0
C0
C0
00
C0
C0
ENDCHAR
STARTCHAR uniEE69
ENCODING 61033
SWIDTH 600 0
DWIDTH 6 0
BBX 5 9 1 -1
BITMAP
C0
C0
00
18
18
18
00
18
18
ENDCHAR
STARTCHAR uniEE6A
ENCODING 61034
SWIDTH 600 0
DWIDTH 6 0
BBX 2 9 4 -1
BITMAP
C0
C0
00
C0
C0
C0
00
C0
C0
ENDCHAR
STARTCHAR uniEE6B
ENCODING 61035
SWIDTH 600 0
DWIDTH 6 0
BBX 5 9 1 -1
BITMAP
D8
D8
00
18
18
18
00
18
18
ENDCHAR
STARTCHAR uniEE6C
ENCODING 61036
SWIDTH 600 0
DWIDTH 6 0
BBX 5 6 1 -1
BITMAP
D8
D8
D8
00
18
18
ENDCHAR
STARTCHAR uniEE6D
ENCODING 61037
SWIDTH 600 0
DWIDTH 6 0
BBX 5 9 1 -1
BITMAP
C0
C0
00
D8
D8
D8
00
18
18
ENDCHAR
STARTCHAR uniEE6E
ENCODING 61038
SWIDTH 600 0
DWIDTH 6 0
BBX 5 9 1 -1
BITMAP
18
18
00
D8
D8
D8
00
18
18
ENDCHAR
STARTCHAR uniEE6F
ENCODING 61039
SWIDTH 600 0
DWIDTH 6 0
BBX 5 9 1 -1
BITMAP
D8
D8
00
D8
D8
D8
00
18
18
ENDCHAR
STARTCHAR uniEE70
ENCODING 61040
SWIDTH 600 0
DWIDTH 6 0
BBX 5 2 1 -1
BITMAP
D8
D8
ENDCHAR
STARTCHAR uniEE71
ENCODING 61041
SWIDTH 600 0
DWIDTH 6 0
BBX 5 9 1 -1
BITMAP
C0
C0
00
00
00
00
00
D8
D8
ENDCHAR
STARTCHAR uniEE72
ENCODING 61042
SWIDTH 600 0
DWIDTH 6 0
BBX 5 9 1 -1
BITMAP
18
18
00
00
00
00
00
D8
D8
ENDCHAR
STARTCHAR uniEE73
ENCODING 61043
SWIDTH 600 0
DWIDTH 6 0
BBX 5 9 1 -1
BITMAP
D8
D8
00
00
00
00
00
D8
D8
ENDCHAR
STARTCHAR uniEE74
ENCODING 61044
SWIDTH 600 0
DWIDTH 6 0
BBX 5 6 1 -1
BITMAP
C0
C0
C0
00
D8
D8
ENDCHAR
STARTCHAR uniEE75
ENCODING 61045
SWIDTH 600 0
DWIDTH 6 0
BBX 5 9 1 -1
BITMAP
C0
C0
00
C0
C0
C0
00
D8
D8
ENDCHAR
STARTCHAR uniEE76
ENCODING 61046
SWIDTH 600 0
DWIDTH 6 0
BBX 5 9 1 -1
BITMAP
18
18
00
C0
C0
C0
00
D8
D8
ENDCHAR
STARTCHAR uniEE77
ENCODING 61047
SWIDTH 600 0
DWIDTH 6 0
BBX 5 9 1 -1
BITMAP
D8
D8
00
C0
C0
C0
00
D8
D8
ENDCHAR
STARTCHAR uniEE78
ENCODING 61048
SWIDTH 600 0
DWIDTH 6 0
BBX 5 6 1 -1
BITMAP
18
18
18
00
D8
D8
ENDCHAR
STARTCHAR uniEE79
ENCODING 61049
SWIDTH 600 0
DWIDTH 6 0
BBX 5 9 1 -1
BITMAP
C0
C0
00
18
18
18
00
D8
D8
ENDCHAR
STARTCHAR uniEE7A
ENCODING 61050
SWIDTH 600 0
DWIDTH 6 0
BBX 5 9 1 -1
BITMAP
18
18
00
18
18
18
00
D8
D8
ENDCHAR
STARTCHAR uniEE7B
ENCODING 61051
SWIDTH 600 0
DWIDTH 6 0
BBX 5 9 1 -1
BITMAP
D8
D8
00
18
18
18
00
D8
D8
ENDCHAR
STARTCHAR uniEE7C
ENCODING 61052
SWIDTH 600 0
DWIDTH 6 0
BBX 5 6 1 -1
BITMAP
D8
D8
D8
00
D8
D8
ENDCHAR
STARTCHAR uniEE7D
ENCODING 61053
SWIDTH 600 0
DWIDTH 6 0
BBX 5 9 1 -1
BITMAP
C0
C0
00
D8
D8
D8
00
D8
D8
ENDCHAR
STARTCHAR uniEE7E
ENCODING 61054
SWIDTH 600 0
DWIDTH 6 0
BBX 5 9 1 -1
BITMAP
18
18
00
D8
D8
D8
00
D8
D8
ENDCHAR
STARTCHAR uniEE7F
ENCODING 61055
SWIDTH 600 0
DWIDTH 6 0
BBX 5 9 1 -1
BITMAP
D8
D8
00
D8
D8
D8
00
D8
D8
ENDCHAR
STARTCHAR fi
ENCODING 64257
SWIDTH 600 0
DWIDTH 6 0
BBX 5 7 1 0
BITMAP
30
40
F0
50
50
50
78
ENDCHAR
STARTCHAR fl
ENCODING 64258
SWIDTH 600 0
DWIDTH 6 0
BBX 5 7 1 0
BITMAP
30
50
50
F0
50
50
78
ENDCHAR
STARTCHAR uniFFFD
ENCODING 65533
SWIDTH 600 0
DWIDTH 6 0
BBX 5 7 1 0
BITMAP
70
88
A8
48
70
50
70
ENDCHAR
STARTCHAR u10450
ENCODING 66640
SWIDTH 600 0
DWIDTH 6 0
BBX 3 7 1 0
BITMAP
C0
20
20
20
20
20
20
ENDCHAR
STARTCHAR u10451
ENCODING 66641
SWIDTH 600 0
DWIDTH 6 0
BBX 3 7 1 0
BITMAP
60
A0
20
20
20
20
20
ENDCHAR
STARTCHAR u10452
ENCODING 66642
SWIDTH 600 0
DWIDTH 6 0
BBX 3 7 1 0
BITMAP
20
20
20
60
80
80
60
ENDCHAR
STARTCHAR u10453
ENCODING 66643
SWIDTH 600 0
DWIDTH 6 0
BBX 3 7 1 0
BITMAP
20
20
20
20
20
20
C0
ENDCHAR
STARTCHAR u10454
ENCODING 66644
SWIDTH 600 0
DWIDTH 6 0
BBX 5 7 1 0
BITMAP
60
10
08
78
88
88
70
ENDCHAR
STARTCHAR u10455
ENCODING 66645
SWIDTH 600 0
DWIDTH 6 0
BBX 5 7 1 0
BITMAP
78
80
70
08
08
08
F0
ENDCHAR
STARTCHAR u10456
ENCODING 66646
SWIDTH 600 0
DWIDTH 6 0
BBX 5 7 1 0
BITMAP
08
10
20
40
80
80
70
ENDCHAR
STARTCHAR u10457
ENCODING 66647
SWIDTH 600 0
DWIDTH 6 0
BBX 5 7 1 0
BITMAP
68
90
20
40
80
80
70
ENDCHAR
STARTCHAR u10458
ENCODING 66648
SWIDTH 600 0
DWIDTH 6 0
BBX 5 7 1 0
BITMAP
80
80
40
20
10
08
08
ENDCHAR
STARTCHAR u10459
ENCODING 66649
SWIDTH 600 0
DWIDTH 6 0
BBX 5 7 1 0
BITMAP
20
50
88
50
20
50
88
ENDCHAR
STARTCHAR u1045A
ENCODING 66650
SWIDTH 600 0
DWIDTH 6 0
BBX 3 7 3 -2
BITMAP
80
80
80
80
80
80
60
ENDCHAR
STARTCHAR u1045B
ENCODING 66651
SWIDTH 600 0
DWIDTH 6 0
BBX 3 7 3 -2
BITMAP
80
80
80
80
80
A0
C0
ENDCHAR
STARTCHAR u1045C
ENCODING 66652
SWIDTH 600 0
DWIDTH 6 0
BBX 3 7 3 -2
BITMAP
C0
20
20
C0
80
80
80
ENDCHAR
STARTCHAR u1045D
ENCODING 66653
SWIDTH 600 0
DWIDTH 6 0
BBX 3 7 3 -2
BITMAP
60
80
80
80
80
80
80
ENDCHAR
STARTCHAR u1045E
ENCODING 66654
SWIDTH 600 0
DWIDTH 6 0
BBX 5 7 1 -2
BITMAP
70
88
88
F0
80
40
30
ENDCHAR
STARTCHAR u1045F
ENCODING 66655
SWIDTH 600 0
DWIDTH 6 0
BBX 5 7 1 -2
BITMAP
F0
08
08
08
70
80
78
ENDCHAR
STARTCHAR u10460
ENCODING 66656
SWIDTH 600 0
DWIDTH 6 0
BBX 5 7 1 -2
BITMAP
70
08
08
10
20
40
80
ENDCHAR
STARTCHAR u10461
ENCODING 66657
SWIDTH 600 0
DWIDTH 6 0
BBX 5 7 1 -2
BITMAP
70
08
08
10
20
48
B0
ENDCHAR
STARTCHAR u10462
ENCODING 66658
SWIDTH 600 0
DWIDTH 6 0
BBX 5 7 1 -2
BITMAP
08
08
10
20
40
80
80
ENDCHAR
STARTCHAR u10463
ENCODING 66659
SWIDTH 600 0
DWIDTH 6 0
BBX 5 7 1 -2
BITMAP
88
50
20
50
88
50
20
ENDCHAR
STARTCHAR u10464
ENCODING 66660
SWIDTH 600 0
DWIDTH 6 0
BBX 5 5 1 0
BITMAP
78
80
80
80
78
ENDCHAR
STARTCHAR u10465
ENCODING 66661
SWIDTH 600 0
DWIDTH 6 0
BBX 5 5 1 0
BITMAP
18
10
20
40
C0
ENDCHAR
STARTCHAR u10466
ENCODING 66662
SWIDTH 600 0
DWIDTH 6 0
BBX 1 5 3 0
BITMAP
80
80
80
80
80
ENDCHAR
STARTCHAR u10467
ENCODING 66663
SWIDTH 600 0
DWIDTH 6 0
BBX 3 5 3 0
BITMAP
80
80
80
80
60
ENDCHAR
STARTCHAR u10468
ENCODING 66664
SWIDTH 600 0
DWIDTH 6 0
BBX 3 5 1 0
BITMAP
20
20
20
20
C0
ENDCHAR
STARTCHAR u10469
ENCODING 66665
SWIDTH 600 0
DWIDTH 6 0
BBX 3 5 3 0
BITMAP
60
80
80
80
80
ENDCHAR
STARTCHAR u1046A
ENCODING 66666
SWIDTH 600 0
DWIDTH 6 0
BBX 3 5 1 0
BITMAP
C0
20
20
20
20
ENDCHAR
STARTCHAR u1046B
ENCODING 66667
SWIDTH 600 0
DWIDTH 6 0
BBX 5 5 1 0
BITMAP
88
88
50
50
20
ENDCHAR
STARTCHAR u1046C
ENCODING 66668
SWIDTH 600 0
DWIDTH 6 0
BBX 4 5 1 0
BITMAP
20
40
E0
20
10
ENDCHAR
STARTCHAR u1046D
ENCODING 66669
SWIDTH 600 0
DWIDTH 6 0
BBX 5 5 1 0
BITMAP
30
40
38
10
E0
ENDCHAR
STARTCHAR u1046E
ENCODING 66670
SWIDTH 600 0
DWIDTH 6 0
BBX 5 5 1 0
BITMAP
F0
08
08
08
F0
ENDCHAR
STARTCHAR u1046F
ENCODING 66671
SWIDTH 600 0
DWIDTH 6 0
BBX 5 5 1 0
BITMAP
C0
40
20
10
18
ENDCHAR
STARTCHAR u10470
ENCODING 66672
SWIDTH 600 0
DWIDTH 6 0
BBX 5 5 1 0
BITMAP
80
98
A8
C8
08
ENDCHAR
STARTCHAR u10471
ENCODING 66673
SWIDTH 600 0
DWIDTH 6 0
BBX 5 5 1 0
BITMAP
F8
80
40
20
18
ENDCHAR
STARTCHAR u10472
ENCODING 66674
SWIDTH 600 0
DWIDTH 6 0
BBX 5 5 1 0
BITMAP
F8
08
10
20
C0
ENDCHAR
STARTCHAR u10473
ENCODING 66675
SWIDTH 600 0
DWIDTH 6 0
BBX 5 5 1 0
BITMAP
F8
08
70
80
80
ENDCHAR
STARTCHAR u10474
ENCODING 66676
SWIDTH 600 0
DWIDTH 6 0
BBX 5 5 1 0
BITMAP
70
88
88
88
70
ENDCHAR
STARTCHAR u10475
ENCODING 66677
SWIDTH 600 0
DWIDTH 6 0
BBX 5 5 1 0
BITMAP
20
50
50
88
88
ENDCHAR
STARTCHAR u10476
ENCODING 66678
SWIDTH 600 0
DWIDTH 6 0
BBX 5 5 1 0
BITMAP
C0
38
10
20
40
ENDCHAR
STARTCHAR u10477
ENCODING 66679
SWIDTH 600 0
DWIDTH 6 0
BBX 5 5 1 0
BITMAP
E0
18
08
10
08
ENDCHAR
STARTCHAR u10478
ENCODING 66680
SWIDTH 600 0
DWIDTH 6 0
BBX 5 5 1 0
BITMAP
70
90
88
48
D0
ENDCHAR
STARTCHAR u10479
ENCODING 66681
SWIDTH 600 0
DWIDTH 6 0
BBX 5 5 1 0
BITMAP
58
90
88
48
70
ENDCHAR
STARTCHAR u1047A
ENCODING 66682
SWIDTH 600 0
DWIDTH 6 0
BBX 5 5 1 0
BITMAP
70
88
48
88
90
ENDCHAR
STARTCHAR u1047B
ENCODING 66683
SWIDTH 600 0
DWIDTH 6 0
BBX 5 5 1 0
BITMAP
48
88
90
88
70
ENDCHAR
STARTCHAR u1047C
ENCODING 66684
SWIDTH 600 0
DWIDTH 6 0
BBX 5 5 1 0
BITMAP
30
48
88
88
B0
ENDCHAR
STARTCHAR u1047D
ENCODING 66685
SWIDTH 600 0
DWIDTH 6 0
BBX 5 5 1 0
BITMAP
B0
C8
88
88
B0
ENDCHAR
STARTCHAR u1047E
ENCODING 66686
SWIDTH 600 0
DWIDTH 6 0
BBX 5 5 1 0
BITMAP
B8
C0
80
80
80
ENDCHAR
STARTCHAR u1047F
ENCODING 66687
SWIDTH 600 0
DWIDTH 6 0
BBX 5 5 1 0
BITMAP
80
80
90
A8
68
ENDCHAR
STARTCHAR u1D100
ENCODING 119040
SWIDTH 600 0
DWIDTH 6 0
BBX 1 9 3 -2
BITMAP
80
80
80
80
80
80
80
80
80
ENDCHAR
STARTCHAR u1D101
ENCODING 119041
SWIDTH 600 0
DWIDTH 6 0
BBX 3 9 2 -2
BITMAP
A0
A0
A0
A0
A0
A0
A0
A0
A0
ENDCHAR
STARTCHAR u1D102
ENCODING 119042
SWIDTH 600 0
DWIDTH 6 0
BBX 4 9 2 -2
BITMAP
B0
B0
B0
B0
B0
B0
B0
B0
B0
ENDCHAR
STARTCHAR u1D103
ENCODING 119043
SWIDTH 600 0
DWIDTH 6 0
BBX 4 9 1 -2
BITMAP
D0
D0
D0
D0
D0
D0
D0
D0
D0
ENDCHAR
STARTCHAR u1D104
ENCODING 119044
SWIDTH 600 0
DWIDTH 6 0
BBX 1 9 3 -2
BITMAP
80
80
00
80
80
80
00
80
80
ENDCHAR
STARTCHAR u1D105
ENCODING 119045
SWIDTH 600 0
DWIDTH 6 0
BBX 1 5 3 0
BITMAP
80
80
80
80
80
ENDCHAR
STARTCHAR u1D106
ENCODING 119046
SWIDTH 600 0
DWIDTH 6 0
BBX 5 9 1 -2
BITMAP
A0
A0
A0
A8
A0
A8
A0
A0
A0
ENDCHAR
STARTCHAR u1D107
ENCODING 119047
SWIDTH 600 0
DWIDTH 6 0
BBX 5 9 1 -2
BITMAP
28
28
28
A8
28
A8
28
28
28
ENDCHAR
STARTCHAR u1D108
ENCODING 119048
SWIDTH 600 0
DWIDTH 6 0
BBX 1 3 3 1
BITMAP
80
00
80
ENDCHAR
STARTCHAR u1D10B
ENCODING 119051
SWIDTH 600 0
DWIDTH 6 0
BBX 5 9 1 -2
BITMAP
40
A0
88
50
20
50
88
28
10
ENDCHAR
STARTCHAR u1D110
ENCODING 119056
SWIDTH 600 0
DWIDTH 6 0
BBX 5 3 1 4
BITMAP
70
88
A8
ENDCHAR
STARTCHAR u1D111
ENCODING 119057
SWIDTH 600 0
DWIDTH 6 0
BBX 5 3 1 -2
BITMAP
A8
88
70
ENDCHAR
STARTCHAR u1D116
ENCODING 119062
SWIDTH 600 0
DWIDTH 6 0
BBX 5 1 1 2
BITMAP
F8
ENDCHAR
STARTCHAR u1D117
ENCODING 119063
SWIDTH 600 0
DWIDTH 6 0
BBX 5 3 1 1
BITMAP
F8
00
F8
ENDCHAR
STARTCHAR u1D118
ENCODING 119064
SWIDTH 600 0
DWIDTH 6 0
BBX 5 5 1 0
BITMAP
F8
00
F8
00
F8
ENDCHAR
STARTCHAR u1D119
ENCODING 119065
SWIDTH 600 0
DWIDTH 6 0
BBX 5 7 1 -1
BITMAP
F8
00
F8
00
F8
00
F8
ENDCHAR
STARTCHAR u1D11A
ENCODING 119066
SWIDTH 600 0
DWIDTH 6 0
BBX 5 9 1 -2
BITMAP
F8
00
F8
00
F8
00
F8
00
F8
ENDCHAR
STARTCHAR u1D11E
ENCODING 119070
SWIDTH 600 0
DWIDTH 6 0
BBX 5 9 1 -2
BITMAP
20
50
50
50
60
B0
A8
70
20
ENDCHAR
STARTCHAR u1D121
ENCODING 119073
SWIDTH 600 0
DWIDTH 6 0
BBX 5 9 1 -2
BITMAP
A8
A8
A8
B0
A0
B0
A8
A8
A8
ENDCHAR
STARTCHAR u1D122
ENCODING 119074
SWIDTH 600 0
DWIDTH 6 0
BBX 5 6 1 1
BITMAP
40
A8
20
28
40
80
ENDCHAR
STARTCHAR u1D12A
ENCODING 119082
SWIDTH 600 0
DWIDTH 6 0
BBX 5 5 1 1
BITMAP
D8
D8
20
D8
D8
ENDCHAR
STARTCHAR u1D12B
ENCODING 119083
SWIDTH 600 0
DWIDTH 6 0
BBX 5 7 1 0
BITMAP
20
A0
B8
E8
A8
B0
C0
ENDCHAR
STARTCHAR u1D13A
ENCODING 119098
SWIDTH 600 0
DWIDTH 6 0
BBX 5 3 1 2
BITMAP
F8
70
F8
ENDCHAR
STARTCHAR u1D13B
ENCODING 119099
SWIDTH 600 0
DWIDTH 6 0
BBX 5 2 1 3
BITMAP
F8
70
ENDCHAR
STARTCHAR u1D13C
ENCODING 119100
SWIDTH 600 0
DWIDTH 6 0
BBX 5 2 1 2
BITMAP
70
F8
ENDCHAR
STARTCHAR u1F680
ENCODING 128640
SWIDTH 600 0
DWIDTH 6 0
BBX 5 7 1 0
BITMAP
20
50
50
50
D8
D8
A8
ENDCHAR
STARTCHAR u1F681
ENCODING 128641
SWIDTH 600 0
DWIDTH 6 0
BBX 5 5 1 1
BITMAP
E0
40
48
B8
40
ENDCHAR
STARTCHAR u1F682
ENCODING 128642
SWIDTH 600 0
DWIDTH 6 0
BBX 5 4 1 1
BITMAP
58
F0
F8
A8
ENDCHAR
STARTCHAR u1F69A
ENCODING 128666
SWIDTH 600 0
DWIDTH 6 0
BBX 5 5 1 1
BITMAP
38
78
B8
F8
48
ENDCHAR
STARTCHAR u1FB00
ENCODING 129792
SWIDTH 600 0
DWIDTH 6 0
BBX 3 3 0 5
BITMAP
E0
E0
E0
ENDCHAR
STARTCHAR u1FB01
ENCODING 129793
SWIDTH 600 0
DWIDTH 6 0
BBX 3 3 3 5
BITMAP
E0
E0
E0
ENDCHAR
STARTCHAR u1FB02
ENCODING 129794
SWIDTH 600 0
DWIDTH 6 0
BBX 6 3 0 5
BITMAP
FC
FC
FC
ENDCHAR
STARTCHAR u1FB03
ENCODING 129795
SWIDTH 600 0
DWIDTH 6 0
BBX 3 4 0 1
BITMAP
E0
E0
E0
E0
ENDCHAR
STARTCHAR u1FB04
ENCODING 129796
SWIDTH 600 0
DWIDTH 6 0
BBX 3 7 0 1
BITMAP
E0
E0
E0
E0
E0
E0
E0
ENDCHAR
STARTCHAR u1FB05
ENCODING 129797
SWIDTH 600 0
DWIDTH 6 0
BBX 6 7 0 1
BITMAP
1C
1C
1C
E0
E0
E0
E0
ENDCHAR
STARTCHAR u1FB06
ENCODING 129798
SWIDTH 600 0
DWIDTH 6 0
BBX 6 7 0 1
BITMAP
FC
FC
FC
E0
E0
E0
E0
ENDCHAR
STARTCHAR u1FB07
ENCODING 129799
SWIDTH 600 0
DWIDTH 6 0
BBX 3 4 3 1
BITMAP
E0
E0
E0
E0
ENDCHAR
STARTCHAR u1FB08
ENCODING 129800
SWIDTH 600 0
DWIDTH 6 0
BBX 6 7 0 1
BITMAP
E0
E0
E0
1C
1C
1C
1C
ENDCHAR
STARTCHAR u1FB09
ENCODING 129801
SWIDTH 600 0
DWIDTH 6 0
BBX 3 7 3 1
BITMAP
E0
E0
E0
E0
E0
E0
E0
ENDCHAR
STARTCHAR u1FB0A
ENCODING 129802
SWIDTH 600 0
DWIDTH 6 0
BBX 6 7 0 1
BITMAP
FC
FC
FC
1C
1C
1C
1C
ENDCHAR
STARTCHAR u1FB0B
ENCODING 129803
SWIDTH 600 0
DWIDTH 6 0
BBX 6 4 0 1
BITMAP
FC
FC
FC
FC
ENDCHAR
STARTCHAR u1FB0C
ENCODING 129804
SWIDTH 600 0
DWIDTH 6 0
BBX 6 7 0 1
BITMAP
E0
E0
E0
FC
FC
FC
FC
ENDCHAR
STARTCHAR u1FB0D
ENCODING 129805
SWIDTH 600 0
DWIDTH 6 0
BBX 6 7 0 1
BITMAP
1C
1C
1C
FC
FC
FC
FC
ENDCHAR
STARTCHAR u1FB0E
ENCODING 129806
SWIDTH 600 0
DWIDTH 6 0
BBX 6 7 0 1
BITMAP
FC
FC
FC
FC
FC
FC
FC
ENDCHAR
STARTCHAR u1FB0F
ENCODING 129807
SWIDTH 600 0
DWIDTH 6 0
BBX 3 3 0 -2
BITMAP
E0
E0
E0
ENDCHAR
STARTCHAR u1FB10
ENCODING 129808
SWIDTH 600 0
DWIDTH 6 0
BBX 3 10 0 -2
BITMAP
E0
E0
E0
00
00
00
00
E0
E0
E0
ENDCHAR
STARTCHAR u1FB11
ENCODING 129809
SWIDTH 600 0
DWIDTH 6 0
BBX 6 10 0 -2
BITMAP
1C
1C
1C
00
00
00
00
E0
E0
E0
ENDCHAR
STARTCHAR u1FB12
ENCODING 129810
SWIDTH 600 0
DWIDTH 6 0
BBX 6 10 0 -2
BITMAP
FC
FC
FC
00
00
00
00
E0
E0
E0
ENDCHAR
STARTCHAR u1FB13
ENCODING 129811
SWIDTH 600 0
DWIDTH 6 0
BBX 3 7 0 -2
BITMAP
E0
E0
E0
E0
E0
E0
E0
ENDCHAR
STARTCHAR u1FB14
ENCODING 129812
SWIDTH 600 0
DWIDTH 6 0
BBX 6 10 0 -2
BITMAP
1C
1C
1C
E0
E0
E0
E0
E0
E0
E0
ENDCHAR
STARTCHAR u1FB15
ENCODING 129813
SWIDTH 600 0
DWIDTH 6 0
BBX 6 10 0 -2
BITMAP
FC
FC
FC
E0
E0
E0
E0
E0
E0
E0
ENDCHAR
STARTCHAR u1FB16
ENCODING 129814
SWIDTH 600 0
DWIDTH 6 0
BBX 6 7 0 -2
BITMAP
1C
1C
1C
1C
E0
E0
E0
ENDCHAR
STARTCHAR u1FB17
ENCODING 129815
SWIDTH 600 0
DWIDTH 6 0
BBX 6 10 0 -2
BITMAP
E0
E0
E0
1C
1C
1C
1C
E0
E0
E0
ENDCHAR
STARTCHAR u1FB18
ENCODING 129816
SWIDTH 600 0
DWIDTH 6 0
BBX 6 10 0 -2
BITMAP
1C
1C
1C
1C
1C
1C
1C
E0
E0
E0
ENDCHAR
STARTCHAR u1FB19
ENCODING 129817
SWIDTH 600 0
DWIDTH 6 0
BBX 6 10 0 -2
BITMAP
FC
FC
FC
1C
1C
1C
1C
E0
E0
E0
ENDCHAR
STARTCHAR u1FB1A
ENCODING 129818
SWIDTH 600 0
DWIDTH 6 0
BBX 6 7 0 -2
BITMAP
FC
FC
FC
FC
E0
E0
E0
ENDCHAR
STARTCHAR u1FB1B
ENCODING 129819
SWIDTH 600 0
DWIDTH 6 0
BBX 6 10 0 -2
BITMAP
E0
E0
E0
FC
FC
FC
FC
E0
E0
E0
ENDCHAR
STARTCHAR u1FB1C
ENCODING 129820
SWIDTH 600 0
DWIDTH 6 0
BBX 6 10 0 -2
BITMAP
1C
1C
1C
FC
FC
FC
FC
E0
E0
E0
ENDCHAR
STARTCHAR u1FB1D
ENCODING 129821
SWIDTH 600 0
DWIDTH 6 0
BBX 6 10 0 -2
BITMAP
FC
FC
FC
FC
FC
FC
FC
E0
E0
E0
ENDCHAR
STARTCHAR u1FB1E
ENCODING 129822
SWIDTH 600 0
DWIDTH 6 0
BBX 3 3 3 -2
BITMAP
E0
E0
E0
ENDCHAR
STARTCHAR u1FB1F
ENCODING 129823
SWIDTH 600 0
DWIDTH 6 0
BBX 6 10 0 -2
BITMAP
E0
E0
E0
00
00
00
00
1C
1C
1C
ENDCHAR
STARTCHAR u1FB20
ENCODING 129824
SWIDTH 600 0
DWIDTH 6 0
BBX 3 10 3 -2
BITMAP
E0
E0
E0
00
00
00
00
E0
E0
E0
ENDCHAR
STARTCHAR u1FB21
ENCODING 129825
SWIDTH 600 0
DWIDTH 6 0
BBX 6 10 0 -2
BITMAP
FC
FC
FC
00
00
00
00
1C
1C
1C
ENDCHAR
STARTCHAR u1FB22
ENCODING 129826
SWIDTH 600 0
DWIDTH 6 0
BBX 6 7 0 -2
BITMAP
E0
E0
E0
E0
1C
1C
1C
ENDCHAR
STARTCHAR u1FB23
ENCODING 129827
SWIDTH 600 0
DWIDTH 6 0
BBX 6 10 0 -2
BITMAP
E0
E0
E0
E0
E0
E0
E0
1C
1C
1C
ENDCHAR
STARTCHAR u1FB24
ENCODING 129828
SWIDTH 600 0
DWIDTH 6 0
BBX 6 10 0 -2
BITMAP
1C
1C
1C
E0
E0
E0
E0
1C
1C
1C
ENDCHAR
STARTCHAR u1FB25
ENCODING 129829
SWIDTH 600 0
DWIDTH 6 0
BBX 6 10 0 -2
BITMAP
FC
FC
FC
E0
E0
E0
E0
1C
1C
1C
ENDCHAR
STARTCHAR u1FB26
ENCODING 129830
SWIDTH 600 0
DWIDTH 6 0
BBX 3 7 3 -2
BITMAP
E0
E0
E0
E0
E0
E0
E0
ENDCHAR
STARTCHAR u1FB27
ENCODING 129831
SWIDTH 600 0
DWIDTH 6 0
BBX 6 10 0 -2
BITMAP
E0
E0
E0
1C
1C
1C
1C
1C
1C
1C
ENDCHAR
STARTCHAR u1FB28
ENCODING 129832
SWIDTH 600 0
DWIDTH 6 0
BBX 6 10 0 -2
BITMAP
FC
FC
FC
1C
1C
1C
1C
1C
1C
1C
ENDCHAR
STARTCHAR u1FB29
ENCODING 129833
SWIDTH 600 0
DWIDTH 6 0
BBX 6 7 0 -2
BITMAP
FC
FC
FC
FC
1C
1C
1C
ENDCHAR
STARTCHAR u1FB2A
ENCODING 129834
SWIDTH 600 0
DWIDTH 6 0
BBX 6 10 0 -2
BITMAP
E0
E0
E0
FC
FC
FC
FC
1C
1C
1C
ENDCHAR
STARTCHAR u1FB2B
ENCODING 129835
SWIDTH 600 0
DWIDTH 6 0
BBX 6 10 0 -2
BITMAP
1C
1C
1C
FC
FC
FC
FC
1C
1C
1C
ENDCHAR
STARTCHAR u1FB2C
ENCODING 129836
SWIDTH 600 0
DWIDTH 6 0
BBX 6 10 0 -2
BITMAP
FC
FC
FC
FC
FC
FC
FC
1C
1C
1C
ENDCHAR
STARTCHAR u1FB2D
ENCODING 129837
SWIDTH 600 0
DWIDTH 6 0
BBX 6 3 0 -2
BITMAP
FC
FC
FC
ENDCHAR
STARTCHAR u1FB2E
ENCODING 129838
SWIDTH 600 0
DWIDTH 6 0
BBX 6 10 0 -2
BITMAP
E0
E0
E0
00
00
00
00
FC
FC
FC
ENDCHAR
STARTCHAR u1FB2F
ENCODING 129839
SWIDTH 600 0
DWIDTH 6 0
BBX 6 10 0 -2
BITMAP
1C
1C
1C
00
00
00
00
FC
FC
FC
ENDCHAR
STARTCHAR u1FB30
ENCODING 129840
SWIDTH 600 0
DWIDTH 6 0
BBX 6 10 0 -2
BITMAP
FC
FC
FC
00
00
00
00
FC
FC
FC
ENDCHAR
STARTCHAR u1FB31
ENCODING 129841
SWIDTH 600 0
DWIDTH 6 0
BBX 6 7 0 -2
BITMAP
E0
E0
E0
E0
FC
FC
FC
ENDCHAR
STARTCHAR u1FB32
ENCODING 129842
SWIDTH 600 0
DWIDTH 6 0
BBX 6 10 0 -2
BITMAP
E0
E0
E0
E0
E0
E0
E0
FC
FC
FC
ENDCHAR
STARTCHAR u1FB33
ENCODING 129843
SWIDTH 600 0
DWIDTH 6 0
BBX 6 10 0 -2
BITMAP
1C
1C
1C
E0
E0
E0
E0
FC
FC
FC
ENDCHAR
STARTCHAR u1FB34
ENCODING 129844
SWIDTH 600 0
DWIDTH 6 0
BBX 6 10 0 -2
BITMAP
FC
FC
FC
E0
E0
E0
E0
FC
FC
FC
ENDCHAR
STARTCHAR u1FB35
ENCODING 129845
SWIDTH 600 0
DWIDTH 6 0
BBX 6 7 0 -2
BITMAP
1C
1C
1C
1C
FC
FC
FC
ENDCHAR
STARTCHAR u1FB36
ENCODING 129846
SWIDTH 600 0
DWIDTH 6 0
BBX 6 10 0 -2
BITMAP
E0
E0
E0
1C
1C
1C
1C
FC
FC
FC
ENDCHAR
STARTCHAR u1FB37
ENCODING 129847
SWIDTH 600 0
DWIDTH 6 0
BBX 6 10 0 -2
BITMAP
1C
1C
1C
1C
1C
1C
1C
FC
FC
FC
ENDCHAR
STARTCHAR u1FB38
ENCODING 129848
SWIDTH 600 0
DWIDTH 6 0
BBX 6 10 0 -2
BITMAP
FC
FC
FC
1C
1C
1C
1C
FC
FC
FC
ENDCHAR
STARTCHAR u1FB39
ENCODING 129849
SWIDTH 600 0
DWIDTH 6 0
BBX 6 7 0 -2
BITMAP
FC
FC
FC
FC
FC
FC
FC
ENDCHAR
STARTCHAR u1FB3A
ENCODING 129850
SWIDTH 600 0
DWIDTH 6 0
BBX 6 10 0 -2
BITMAP
E0
E0
E0
FC
FC
FC
FC
FC
FC
FC
ENDCHAR
STARTCHAR u1FB3B
ENCODING 129851
SWIDTH 600 0
DWIDTH 6 0
BBX 6 10 0 -2
BITMAP
1C
1C
1C
FC
FC
FC
FC
FC
FC
FC
ENDCHAR
STARTCHAR u1FBB0
ENCODING 129968
SWIDTH 600 0
DWIDTH 6 0
BBX 5 6 1 1
BITMAP
C0
A0
90
88
B8
C0
ENDCHAR
STARTCHAR u1FBBB
ENCODING 129979
SWIDTH 600 0
DWIDTH 6 0
BBX 5 5 1 1
BITMAP
50
D8
00
D8
50
ENDCHAR
STARTCHAR u1FBBC
ENCODING 129980
SWIDTH 600 0
DWIDTH 6 0
BBX 5 5 1 1
BITMAP
F8
08
28
08
F8
ENDCHAR
STARTCHAR u1FBC0
ENCODING 129984
SWIDTH 600 0
DWIDTH 6 0
BBX 5 7 1 0
BITMAP
50
A8
88
50
88
A8
50
ENDCHAR
STARTCHAR u1FBC4
ENCODING 129988
SWIDTH 600 0
DWIDTH 6 0
BBX 5 7 1 0
BITMAP
F8
88
E8
C8
F8
D8
F8
ENDCHAR
STARTCHAR u1FBC5
ENCODING 129989
SWIDTH 600 0
DWIDTH 6 0
BBX 5 9 1 -2
BITMAP
20
50
50
20
F8
20
20
50
88
ENDCHAR
STARTCHAR u1FBC6
ENCODING 129990
SWIDTH 600 0
DWIDTH 6 0
BBX 5 9 1 -2
BITMAP
20
50
50
20
A8
70
20
50
88
ENDCHAR
STARTCHAR u1FBC7
ENCODING 129991
SWIDTH 600 0
DWIDTH 6 0
BBX 5 9 1 -2
BITMAP
20
50
50
20
68
B0
20
50
48
ENDCHAR
STARTCHAR u1FBC8
ENCODING 129992
SWIDTH 600 0
DWIDTH 6 0
BBX 5 9 1 -2
BITMAP
20
50
50
20
B0
68
20
50
90
ENDCHAR
STARTCHAR u1FBC9
ENCODING 129993
SWIDTH 600 0
DWIDTH 6 0
BBX 5 9 1 -2
BITMAP
20
50
50
20
F8
50
88
F8
50
ENDCHAR
STARTCHAR u1FBCA
ENCODING 129994
SWIDTH 600 0
DWIDTH 6 0
BBX 5 7 1 0
BITMAP
20
50
88
88
A8
D8
88
ENDCHAR
STARTCHAR comma.saa5051
ENCODING -1
SWIDTH 600 0
DWIDTH 6 0
BBX 2 3 1 -1
BITMAP
40
40
80
ENDCHAR
STARTCHAR period.saa5051
ENCODING -1
SWIDTH 600 0
DWIDTH 6 0
BBX 2 2 2 0
BITMAP
C0
C0
ENDCHAR
STARTCHAR colon.saa5051
ENCODING -1
SWIDTH 600 0
DWIDTH 6 0
BBX 1 4 2 0
BITMAP
80
00
00
80
ENDCHAR
STARTCHAR semicolon.saa5051
ENCODING -1
SWIDTH 600 0
DWIDTH 6 0
BBX 2 6 1 -1
BITMAP
40
00
00
40
40
80
ENDCHAR
STARTCHAR D.saa5052
ENCODING -1
SWIDTH 600 0
DWIDTH 6 0
BBX 4 7 2 0
BITMAP
E0
90
90
90
90
90
E0
ENDCHAR
STARTCHAR L.saa5052
ENCODING -1
SWIDTH 600 0
DWIDTH 6 0
BBX 4 7 2 0
BITMAP
80
80
80
80
80
80
F0
ENDCHAR
STARTCHAR ugrave.saa5054
ENCODING -1
SWIDTH 600 0
DWIDTH 6 0
BBX 5 7 1 0
BITMAP
20
10
88
88
88
88
78
ENDCHAR
STARTCHAR ocircumflex.saa5054
ENCODING -1
SWIDTH 600 0
DWIDTH 6 0
BBX 5 7 1 0
BITMAP
20
50
70
88
88
88
70
ENDCHAR
STARTCHAR ccedilla.saa5054
ENCODING -1
SWIDTH 600 0
DWIDTH 6 0
BBX 5 7 1 -2
BITMAP
78
80
80
80
78
10
30
ENDCHAR
STARTCHAR oldsheqel
ENCODING -1
SWIDTH 600 0
DWIDTH 6 0
BBX 5 3 1 2
BITMAP
A8
A8
70
ENDCHAR
STARTCHAR upblock.sep4
ENCODING -1
SWIDTH 600 0
DWIDTH 6 0
BBX 5 4 1 4
BITMAP
D8
D8
D8
D8
ENDCHAR
STARTCHAR dnblock.sep4
ENCODING -1
SWIDTH 600 0
DWIDTH 6 0
BBX 5 4 1 -1
BITMAP
D8
D8
D8
D8
ENDCHAR
STARTCHAR block.sep4
ENCODING -1
SWIDTH 600 0
DWIDTH 6 0
BBX 5 9 1 -1
BITMAP
D8
D8
D8
D8
00
D8
D8
D8
D8
ENDCHAR
STARTCHAR block.sep6
ENCODING -1
SWIDTH 600 0
DWIDTH 6 0
BBX 5 9 1 -1
BITMAP
D8
D8
00
D8
D8
D8
00
D8
D8
ENDCHAR
STARTCHAR lfblock.sep4
ENCODING -1
SWIDTH 600 0
DWIDTH 6 0
BBX 2 9 1 -1
BITMAP
C0
C0
C0
C0
00
C0
C0
C0
C0
ENDCHAR
STARTCHAR lfblock.sep6
ENCODING -1
SWIDTH 600 0
DWIDTH 6 0
BBX 2 9 1 -1
BITMAP
C0
C0
00
C0
C0
C0
00
C0
C0
ENDCHAR
STARTCHAR rtblock.sep4
ENCODING -1
SWIDTH 600 0
DWIDTH 6 0
BBX 2 9 4 -1
BITMAP
C0
C0
C0
C0
00
C0
C0
C0
C0
ENDCHAR
STARTCHAR rtblock.sep6
ENCODING -1
SWIDTH 600 0
DWIDTH 6 0
BBX 2 9 4 -1
BITMAP
C0
C0
00
C0
C0
C0
00
C0
C0
ENDCHAR
STARTCHAR uni2596.sep4
ENCODING -1
SWIDTH 600 0
DWIDTH 6 0
BBX 2 4 1 -1
BITMAP
C0
C0
C0
C0
ENDCHAR
STARTCHAR uni2597.sep4
ENCODING -1
SWIDTH 600 0
DWIDTH 6 0
BBX 2 4 4 -1
BITMAP
C0
C0
C0
C0
ENDCHAR
STARTCHAR uni2598.sep4
ENCODING -1
SWIDTH 600 0
DWIDTH 6 0
BBX 2 4 1 4
BITMAP
C0
C0
C0
C0
ENDCHAR
STARTCHAR uni2599.sep4
ENCODING -1
SWIDTH 600 0
DWIDTH 6 0
BBX 5 9 1 -1
BITMAP
C0
C0
C0
C0
00
D8
D8
D8
D8
ENDCHAR
STARTCHAR uni259A.sep4
ENCODING -1
SWIDTH 600 0
DWIDTH 6 0
BBX 5 9 1 -1
BITMAP
C0
C0
C0
C0
00
18
18
18
18
ENDCHAR
STARTCHAR uni259B.sep4
ENCODING -1
SWIDTH 600 0
DWIDTH 6 0
BBX 5 9 1 -1
BITMAP
D8
D8
D8
D8
00
C0
C0
C0
C0
ENDCHAR
STARTCHAR uni259C.sep4
ENCODING -1
SWIDTH 600 0
DWIDTH 6 0
BBX 5 9 1 -1
BITMAP
D8
D8
D8
D8
00
18
18
18
18
ENDCHAR
STARTCHAR uni259D.sep4
ENCODING -1
SWIDTH 600 0
DWIDTH 6 0
BBX 2 4 4 4
BITMAP
C0
C0
C0
C0
ENDCHAR
STARTCHAR uni259E.sep4
ENCODING -1
SWIDTH 600 0
DWIDTH 6 0
BBX 5 9 1 -1
BITMAP
18
18
18
18
00
C0
C0
C0
C0
ENDCHAR
STARTCHAR uni259F.sep4
ENCODING -1
SWIDTH 600 0
DWIDTH 6 0
BBX 5 9 1 -1
BITMAP
18
18
18
18
00
D8
D8
D8
D8
ENDCHAR
STARTCHAR u1FB00.sep6
ENCODING -1
SWIDTH 600 0
DWIDTH 6 0
BBX 2 2 1 6
BITMAP
C0
C0
ENDCHAR
STARTCHAR u1FB01.sep6
ENCODING -1
SWIDTH 600 0
DWIDTH 6 0
BBX 2 2 4 6
BITMAP
C0
C0
ENDCHAR
STARTCHAR u1FB02.sep6
ENCODING -1
SWIDTH 600 0
DWIDTH 6 0
BBX 5 2 1 6
BITMAP
D8
D8
ENDCHAR
STARTCHAR u1FB03.sep6
ENCODING -1
SWIDTH 600 0
DWIDTH 6 0
BBX 2 3 1 2
BITMAP
C0
C0
C0
ENDCHAR
STARTCHAR u1FB04.sep6
ENCODING -1
SWIDTH 600 0
DWIDTH 6 0
BBX 2 6 1 2
BITMAP
C0
C0
00
C0
C0
C0
ENDCHAR
STARTCHAR u1FB05.sep6
ENCODING -1
SWIDTH 600 0
DWIDTH 6 0
BBX 5 6 1 2
BITMAP
18
18
00
C0
C0
C0
ENDCHAR
STARTCHAR u1FB06.sep6
ENCODING -1
SWIDTH 600 0
DWIDTH 6 0
BBX 5 6 1 2
BITMAP
D8
D8
00
C0
C0
C0
ENDCHAR
STARTCHAR u1FB07.sep6
ENCODING -1
SWIDTH 600 0
DWIDTH 6 0
BBX 2 3 4 2
BITMAP
C0
C0
C0
ENDCHAR
STARTCHAR u1FB08.sep6
ENCODING -1
SWIDTH 600 0
DWIDTH 6 0
BBX 5 6 1 2
BITMAP
C0
C0
00
18
18
18
ENDCHAR
STARTCHAR u1FB09.sep6
ENCODING -1
SWIDTH 600 0
DWIDTH 6 0
BBX 2 6 4 2
BITMAP
C0
C0
00
C0
C0
C0
ENDCHAR
STARTCHAR u1FB0A.sep6
ENCODING -1
SWIDTH 600 0
DWIDTH 6 0
BBX 5 6 1 2
BITMAP
D8
D8
00
18
18
18
ENDCHAR
STARTCHAR u1FB0B.sep6
ENCODING -1
SWIDTH 600 0
DWIDTH 6 0
BBX 5 3 1 2
BITMAP
D8
D8
D8
ENDCHAR
STARTCHAR u1FB0C.sep6
ENCODING -1
SWIDTH 600 0
DWIDTH 6 0
BBX 5 6 1 2
BITMAP
C0
C0
00
D8
D8
D8
ENDCHAR
STARTCHAR u1FB0D.sep6
ENCODING -1
SWIDTH 600 0
DWIDTH 6 0
BBX 5 6 1 2
BITMAP
18
18
00
D8
D8
D8
ENDCHAR
STARTCHAR u1FB0E.sep6
ENCODING -1
SWIDTH 600 0
DWIDTH 6 0
BBX 5 6 1 2
BITMAP
D8
D8
00
D8
D8
D8
ENDCHAR
STARTCHAR u1FB0F.sep6
ENCODING -1
SWIDTH 600 0
DWIDTH 6 0
BBX 2 2 1 -1
BITMAP
C0
C0
ENDCHAR
STARTCHAR u1FB10.sep6
ENCODING -1
SWIDTH 600 0
DWIDTH 6 0
BBX 2 9 1 -1
BITMAP
C0
C0
00
00
00
00
00
C0
C0
ENDCHAR
STARTCHAR u1FB11.sep6
ENCODING -1
SWIDTH 600 0
DWIDTH 6 0
BBX 5 9 1 -1
BITMAP
18
18
00
00
00
00
00
C0
C0
ENDCHAR
STARTCHAR u1FB12.sep6
ENCODING -1
SWIDTH 600 0
DWIDTH 6 0
BBX 5 9 1 -1
BITMAP
D8
D8
00
00
00
00
00
C0
C0
ENDCHAR
STARTCHAR u1FB13.sep6
ENCODING -1
SWIDTH 600 0
DWIDTH 6 0
BBX 2 6 1 -1
BITMAP
C0
C0
C0
00
C0
C0
ENDCHAR
STARTCHAR u1FB14.sep6
ENCODING -1
SWIDTH 600 0
DWIDTH 6 0
BBX 5 9 1 -1
BITMAP
18
18
00
C0
C0
C0
00
C0
C0
ENDCHAR
STARTCHAR u1FB15.sep6
ENCODING -1
SWIDTH 600 0
DWIDTH 6 0
BBX 5 9 1 -1
BITMAP
D8
D8
00
C0
C0
C0
00
C0
C0
ENDCHAR
STARTCHAR u1FB16.sep6
ENCODING -1
SWIDTH 600 0
DWIDTH 6 0
BBX 5 6 1 -1
BITMAP
18
18
18
00
C0
C0
ENDCHAR
STARTCHAR u1FB17.sep6
ENCODING -1
SWIDTH 600 0
DWIDTH 6 0
BBX 5 9 1 -1
BITMAP
C0
C0
00
18
18
18
00
C0
C0
ENDCHAR
STARTCHAR u1FB18.sep6
ENCODING -1
SWIDTH 600 0
DWIDTH 6 0
BBX 5 9 1 -1
BITMAP
18
18
00
18
18
18
00
C0
C0
ENDCHAR
STARTCHAR u1FB19.sep6
ENCODING -1
SWIDTH 600 0
DWIDTH 6 0
BBX 5 9 1 -1
BITMAP
D8
D8
00
18
18
18
00
C0
C0
ENDCHAR
STARTCHAR u1FB1A.sep6
ENCODING -1
SWIDTH 600 0
DWIDTH 6 0
BBX 5 6 1 -1
BITMAP
D8
D8
D8
00
C0
C0
ENDCHAR
STARTCHAR u1FB1B.sep6
ENCODING -1
SWIDTH 600 0
DWIDTH 6 0
BBX 5 9 1 -1
BITMAP
C0
C0
00
D8
D8
D8
00
C0
C0
ENDCHAR
STARTCHAR u1FB1C.sep6
ENCODING -1
SWIDTH 600 0
DWIDTH 6 0
BBX 5 9 1 -1
BITMAP
18
18
00
D8
D8
D8
00
C0
C0
ENDCHAR
STARTCHAR u1FB1D.sep6
ENCODING -1
SWIDTH 600 0
DWIDTH 6 0
BBX 5 9 1 -1
BITMAP
D8
D8
00
D8
D8
D8
00
C0
C0
ENDCHAR
STARTCHAR u1FB1E.sep6
ENCODING -1
SWIDTH 600 0
DWIDTH 6 0
BBX 2 2 4 -1
BITMAP
C0
C0
ENDCHAR
STARTCHAR u1FB1F.sep6
ENCODING -1
SWIDTH 600 0
DWIDTH 6 0
BBX 5 9 1 -1
BITMAP
C0
C0
00
00
00
00
00
18
18
ENDCHAR
STARTCHAR u1FB20.sep6
ENCODING -1
SWIDTH 600 0
DWIDTH 6 0
BBX 2 9 4 -1
BITMAP
C0
C0
00
00
00
00
00
C0
C0
ENDCHAR
STARTCHAR u1FB21.sep6
ENCODING -1
SWIDTH 600 0
DWIDTH 6 0
BBX 5 9 1 -1
BITMAP
D8
D8
00
00
00
00
00
18
18
ENDCHAR
STARTCHAR u1FB22.sep6
ENCODING -1
SWIDTH 600 0
DWIDTH 6 0
BBX 5 6 1 -1
BITMAP
C0
C0
C0
00
18
18
ENDCHAR
STARTCHAR u1FB23.sep6
ENCODING -1
SWIDTH 600 0
DWIDTH 6 0
BBX 5 9 1 -1
BITMAP
C0
C0
00
C0
C0
C0
00
18
18
ENDCHAR
STARTCHAR u1FB24.sep6
ENCODING -1
SWIDTH 600 0
DWIDTH 6 0
BBX 5 9 1 -1
BITMAP
18
18
00
C0
C0
C0
00
18
18
ENDCHAR
STARTCHAR u1FB25.sep6
ENCODING -1
SWIDTH 600 0
DWIDTH 6 0
BBX 5 9 1 -1
BITMAP
D8
D8
00
C0
C0
C0
00
18
18
ENDCHAR
STARTCHAR u1FB26.sep6
ENCODING -1
SWIDTH 600 0
DWIDTH 6 0
BBX 2 6 4 -1
BITMAP
C0
C0
C0
00
C0
C0
ENDCHAR
STARTCHAR u1FB27.sep6
ENCODING -1
SWIDTH 600 0
DWIDTH 6 0
BBX 5 9 1 -1
BITMAP
C0
C0
00
18
18
18
00
18
18
ENDCHAR
STARTCHAR u1FB28.sep6
ENCODING -1
SWIDTH 600 0
DWIDTH 6 0
BBX 5 9 1 -1
BITMAP
D8
D8
00
18
18
18
00
18
18
ENDCHAR
STARTCHAR u1FB29.sep6
ENCODING -1
SWIDTH 600 0
DWIDTH 6 0
BBX 5 6 1 -1
BITMAP
D8
D8
D8
00
18
18
ENDCHAR
STARTCHAR u1FB2A.sep6
ENCODING -1
SWIDTH 600 0
DWIDTH 6 0
BBX 5 9 1 -1
BITMAP
C0
C0
00
D8
D8
D8
00
18
18
ENDCHAR
STARTCHAR u1FB2B.sep6
ENCODING -1
SWIDTH 600 0
DWIDTH 6 0
BBX 5 9 1 -1
BITMAP
18
18
00
D8
D8
D8
00
18
18
ENDCHAR
STARTCHAR u1FB2C.sep6
ENCODING -1
SWIDTH 600 0
DWIDTH 6 0
BBX 5 9 1 -1
BITMAP
D8
D8
00
D8
D8
D8
00
18
18
ENDCHAR
STARTCHAR u1FB2D.sep6
ENCODING -1
SWIDTH 600 0
DWIDTH 6 0
BBX 5 2 1 -1
BITMAP
D8
D8
ENDCHAR
STARTCHAR u1FB2E.sep6
ENCODING -1
SWIDTH 600 0
DWIDTH 6 0
BBX 5 9 1 -1
BITMAP
C0
C0
00
00
00
00
00
D8
D8
ENDCHAR
STARTCHAR u1FB2F.sep6
ENCODING -1
SWIDTH 600 0
DWIDTH 6 0
BBX 5 9 1 -1
BITMAP
18
18
00
00
00
00
00
D8
D8
ENDCHAR
STARTCHAR u1FB30.sep6
ENCODING -1
SWIDTH 600 0
DWIDTH 6 0
BBX 5 9 1 -1
BITMAP
D8
D8
00
00
00
00
00
D8
D8
ENDCHAR
STARTCHAR u1FB31.sep6
ENCODING -1
SWIDTH 600 0
DWIDTH 6 0
BBX 5 6 1 -1
BITMAP
C0
C0
C0
00
D8
D8
ENDCHAR
STARTCHAR u1FB32.sep6
ENCODING -1
SWIDTH 600 0
DWIDTH 6 0
BBX 5 9 1 -1
BITMAP
C0
C0
00
C0
C0
C0
00
D8
D8
ENDCHAR
STARTCHAR u1FB33.sep6
ENCODING -1
SWIDTH 600 0
DWIDTH 6 0
BBX 5 9 1 -1
BITMAP
18
18
00
C0
C0
C0
00
D8
D8
ENDCHAR
STARTCHAR u1FB34.sep6
ENCODING -1
SWIDTH 600 0
DWIDTH 6 0
BBX 5 9 1 -1
BITMAP
D8
D8
00
C0
C0
C0
00
D8
D8
ENDCHAR
STARTCHAR u1FB35.sep6
ENCODING -1
SWIDTH 600 0
DWIDTH 6 0
BBX 5 6 1 -1
BITMAP
18
18
18
00
D8
D8
ENDCHAR
STARTCHAR u1FB36.sep6
ENCODING -1
SWIDTH 600 0
DWIDTH 6 0
BBX 5 9 1 -1
BITMAP
C0
C0
00
18
18
18
00
D8
D8
ENDCHAR
STARTCHAR u1FB37.sep6
ENCODING -1
SWIDTH 600 0
DWIDTH 6 0
BBX 5 9 1 -1
BITMAP
18
18
00
18
18
18
00
D8
D8
ENDCHAR
STARTCHAR u1FB38.sep6
ENCODING -1
SWIDTH 600 0
DWIDTH 6 0
BBX 5 9 1 -1
BITMAP
D8
D8
00
18
18
18
00
D8
D8
ENDCHAR
STARTCHAR u1FB39.sep6
ENCODING -1
SWIDTH 600 0
DWIDTH 6 0
BBX 5 6 1 -1
BITMAP
D8
D8
D8
00
D8
D8
ENDCHAR
STARTCHAR u1FB3A.sep6
ENCODING -1
SWIDTH 600 0
DWIDTH 6 0
BBX 5 9 1 -1
BITMAP
C0
C0
00
D8
D8
D8
00
D8
D8
ENDCHAR
STARTCHAR u1FB3B.sep6
ENCODING -1
SWIDTH 600 0
DWIDTH 6 0
BBX 5 9 1 -1
BITMAP
18
18
00
D8
D8
D8
00
D8
D8
ENDCHAR
STARTCHAR a.sc
ENCODING -1
SWIDTH 600 0
DWIDTH 6 0
BBX 5 5 1 0
BITMAP
70
88
F8
88
88
ENDCHAR
STARTCHAR A.c2sc
ENCODING -1
SWIDTH 600 0
DWIDTH 6 0
BBX 5 5 1 0
BITMAP
70
88
F8
88
88
ENDCHAR
STARTCHAR b.sc
ENCODING -1
SWIDTH 600 0
DWIDTH 6 0
BBX 5 5 1 0
BITMAP
F0
88
F0
88
F0
ENDCHAR
STARTCHAR B.c2sc
ENCODING -1
SWIDTH 600 0
DWIDTH 6 0
BBX 5 5 1 0
BITMAP
F0
88
F0
88
F0
ENDCHAR
STARTCHAR c.sc
ENCODING -1
SWIDTH 600 0
DWIDTH 6 0
BBX 5 5 1 0
BITMAP
70
88
80
88
70
ENDCHAR
STARTCHAR C.c2sc
ENCODING -1
SWIDTH 600 0
DWIDTH 6 0
BBX 5 5 1 0
BITMAP
70
88
80
88
70
ENDCHAR
STARTCHAR d.sc
ENCODING -1
SWIDTH 600 0
DWIDTH 6 0
BBX 5 5 1 0
BITMAP
F0
88
88
88
F0
ENDCHAR
STARTCHAR D.c2sc
ENCODING -1
SWIDTH 600 0
DWIDTH 6 0
BBX 5 5 1 0
BITMAP
F0
88
88
88
F0
ENDCHAR
STARTCHAR e.sc
ENCODING -1
SWIDTH 600 0
DWIDTH 6 0
BBX 5 5 1 0
BITMAP
F8
80
F0
80
F8
ENDCHAR
STARTCHAR E.c2sc
ENCODING -1
SWIDTH 600 0
DWIDTH 6 0
BBX 5 5 1 0
BITMAP
F8
80
F0
80
F8
ENDCHAR
STARTCHAR f.sc
ENCODING -1
SWIDTH 600 0
DWIDTH 6 0
BBX 5 5 1 0
BITMAP
F8
80
F0
80
80
ENDCHAR
STARTCHAR F.c2sc
ENCODING -1
SWIDTH 600 0
DWIDTH 6 0
BBX 5 5 1 0
BITMAP
F8
80
F0
80
80
ENDCHAR
STARTCHAR g.sc
ENCODING -1
SWIDTH 600 0
DWIDTH 6 0
BBX 5 5 1 0
BITMAP
78
80
98
88
78
ENDCHAR
STARTCHAR G.c2sc
ENCODING -1
SWIDTH 600 0
DWIDTH 6 0
BBX 5 5 1 0
BITMAP
78
80
98
88
78
ENDCHAR
STARTCHAR h.sc
ENCODING -1
SWIDTH 600 0
DWIDTH 6 0
BBX 5 5 1 0
BITMAP
88
88
F8
88
88
ENDCHAR
STARTCHAR H.c2sc
ENCODING -1
SWIDTH 600 0
DWIDTH 6 0
BBX 5 5 1 0
BITMAP
88
88
F8
88
88
ENDCHAR
STARTCHAR i.sc
ENCODING -1
SWIDTH 600 0
DWIDTH 6 0
BBX 3 5 2 0
BITMAP
E0
40
40
40
E0
ENDCHAR
STARTCHAR I.c2sc
ENCODING -1
SWIDTH 600 0
DWIDTH 6 0
BBX 3 5 2 0
BITMAP
E0
40
40
40
E0
ENDCHAR
STARTCHAR j.sc
ENCODING -1
SWIDTH 600 0
DWIDTH 6 0
BBX 5 5 1 0
BITMAP
08
08
08
88
70
ENDCHAR
STARTCHAR J.c2sc
ENCODING -1
SWIDTH 600 0
DWIDTH 6 0
BBX 5 5 1 0
BITMAP
08
08
08
88
70
ENDCHAR
STARTCHAR k.sc
ENCODING -1
SWIDTH 600 0
DWIDTH 6 0
BBX 5 5 1 0
BITMAP
88
90
E0
90
88
ENDCHAR
STARTCHAR K.c2sc
ENCODING -1
SWIDTH 600 0
DWIDTH 6 0
BBX 5 5 1 0
BITMAP
88
90
E0
90
88
ENDCHAR
STARTCHAR l.sc
ENCODING -1
SWIDTH 600 0
DWIDTH 6 0
BBX 5 5 1 0
BITMAP
80
80
80
80
F8
ENDCHAR
STARTCHAR L.c2sc
ENCODING -1
SWIDTH 600 0
DWIDTH 6 0
BBX 5 5 1 0
BITMAP
80
80
80
80
F8
ENDCHAR
STARTCHAR m.sc
ENCODING -1
SWIDTH 600 0
DWIDTH 6 0
BBX 5 5 1 0
BITMAP
88
D8
A8
88
88
ENDCHAR
STARTCHAR M.c2sc
ENCODING -1
SWIDTH 600 0
DWIDTH 6 0
BBX 5 5 1 0
BITMAP
88
D8
A8
88
88
ENDCHAR
STARTCHAR n.sc
ENCODING -1
SWIDTH 600 0
DWIDTH 6 0
BBX 5 5 1 0
BITMAP
88
C8
A8
98
88
ENDCHAR
STARTCHAR N.c2sc
ENCODING -1
SWIDTH 600 0
DWIDTH 6 0
BBX 5 5 1 0
BITMAP
88
C8
A8
98
88
ENDCHAR
STARTCHAR o.sc
ENCODING -1
SWIDTH 600 0
DWIDTH 6 0
BBX 5 5 1 0
BITMAP
70
88
88
88
70
ENDCHAR
STARTCHAR O.c2sc
ENCODING -1
SWIDTH 600 0
DWIDTH 6 0
BBX 5 5 1 0
BITMAP
70
88
88
88
70
ENDCHAR
STARTCHAR p.sc
ENCODING -1
SWIDTH 600 0
DWIDTH 6 0
BBX 5 5 1 0
BITMAP
F0
88
F0
80
80
ENDCHAR
STARTCHAR P.c2sc
ENCODING -1
SWIDTH 600 0
DWIDTH 6 0
BBX 5 5 1 0
BITMAP
F0
88
F0
80
80
ENDCHAR
STARTCHAR q.sc
ENCODING -1
SWIDTH 600 0
DWIDTH 6 0
BBX 5 5 1 0
BITMAP
70
88
A8
90
68
ENDCHAR
STARTCHAR Q.c2sc
ENCODING -1
SWIDTH 600 0
DWIDTH 6 0
BBX 5 5 1 0
BITMAP
70
88
A8
90
68
ENDCHAR
STARTCHAR r.sc
ENCODING -1
SWIDTH 600 0
DWIDTH 6 0
BBX 5 5 1 0
BITMAP
F0
88
F0
90
88
ENDCHAR
STARTCHAR R.c2sc
ENCODING -1
SWIDTH 600 0
DWIDTH 6 0
BBX 5 5 1 0
BITMAP
F0
88
F0
90
88
ENDCHAR
STARTCHAR s.sc
ENCODING -1
SWIDTH 600 0
DWIDTH 6 0
BBX 5 5 1 0
BITMAP
78
80
70
08
F0
ENDCHAR
STARTCHAR S.c2sc
ENCODING -1
SWIDTH 600 0
DWIDTH 6 0
BBX 5 5 1 0
BITMAP
78
80
70
08
F0
ENDCHAR
STARTCHAR t.sc
ENCODING -1
SWIDTH 600 0
DWIDTH 6 0
BBX 5 5 1 0
BITMAP
F8
20
20
20
20
ENDCHAR
STARTCHAR T.c2sc
ENCODING -1
SWIDTH 600 0
DWIDTH 6 0
BBX 5 5 1 0
BITMAP
F8
20
20
20
20
ENDCHAR
STARTCHAR u.sc
ENCODING -1
SWIDTH 600 0
DWIDTH 6 0
BBX 5 5 1 0
BITMAP
88
88
88
88
70
ENDCHAR
STARTCHAR U.c2sc
ENCODING -1
SWIDTH 600 0
DWIDTH 6 0
BBX 5 5 1 0
BITMAP
88
88
88
88
70
ENDCHAR
STARTCHAR v.sc
ENCODING -1
SWIDTH 600 0
DWIDTH 6 0
BBX 5 5 1 0
BITMAP
88
88
50
50
20
ENDCHAR
STARTCHAR V.c2sc
ENCODING -1
SWIDTH 600 0
DWIDTH 6 0
BBX 5 5 1 0
BITMAP
88
88
50
50
20
ENDCHAR
STARTCHAR w.sc
ENCODING -1
SWIDTH 600 0
DWIDTH 6 0
BBX 5 5 1 0
BITMAP
88
88
A8
A8
50
ENDCHAR
STARTCHAR W.c2sc
ENCODING -1
SWIDTH 600 0
DWIDTH 6 0
BBX 5 5 1 0
BITMAP
88
88
A8
A8
50
ENDCHAR
STARTCHAR x.sc
ENCODING -1
SWIDTH 600 0
DWIDTH 6 0
BBX 5 5 1 0
BITMAP
88
50
20
50
88
ENDCHAR
STARTCHAR X.c2sc
ENCODING -1
SWIDTH 600 0
DWIDTH 6 0
BBX 5 5 1 0
BITMAP
88
50
20
50
88
ENDCHAR
STARTCHAR y.sc
ENCODING -1
SWIDTH 600 0
DWIDTH 6 0
BBX 5 5 1 0
BITMAP
88
50
20
20
20
ENDCHAR
STARTCHAR Y.c2sc
ENCODING -1
SWIDTH 600 0
DWIDTH 6 0
BBX 5 5 1 0
BITMAP
88
50
20
20
20
ENDCHAR
STARTCHAR z.sc
ENCODING -1
SWIDTH 600 0
DWIDTH 6 0
BBX 5 5 1 0
BITMAP
F8
08
70
80
F8
ENDCHAR
STARTCHAR Z.c2sc
ENCODING -1
SWIDTH 600 0
DWIDTH 6 0
BBX 5 5 1 0
BITMAP
F8
08
70
80
F8
ENDCHAR
STARTCHAR germandbls.sc
ENCODING -1
SWIDTH 600 0
DWIDTH 6 0
BBX 5 5 1 0
BITMAP
70
88
90
88
B0
ENDCHAR
STARTCHAR uni1E9E.c2sc
ENCODING -1
SWIDTH 600 0
DWIDTH 6 0
BBX 5 5 1 0
BITMAP
70
88
90
88
B0
ENDCHAR
STARTCHAR ae.sc
ENCODING -1
SWIDTH 600 0
DWIDTH 6 0
BBX 5 5 1 0
BITMAP
78
A0
B0
E0
B8
ENDCHAR
STARTCHAR AE.c2sc
ENCODING -1
SWIDTH 600 0
DWIDTH 6 0
BBX 5 5 1 0
BITMAP
78
A0
B0
E0
B8
ENDCHAR
STARTCHAR eth.sc
ENCODING -1
SWIDTH 600 0
DWIDTH 6 0
BBX 5 5 1 0
BITMAP
70
48
E8
48
70
ENDCHAR
STARTCHAR Eth.c2sc
ENCODING -1
SWIDTH 600 0
DWIDTH 6 0
BBX 5 5 1 0
BITMAP
70
48
E8
48
70
ENDCHAR
STARTCHAR oe.sc
ENCODING -1
SWIDTH 600 0
DWIDTH 6 0
BBX 5 5 1 0
BITMAP
78
A0
B8
A0
78
ENDCHAR
STARTCHAR OE.c2sc
ENCODING -1
SWIDTH 600 0
DWIDTH 6 0
BBX 5 5 1 0
BITMAP
78
A0
B8
A0
78
ENDCHAR
STARTCHAR thorn.sc
ENCODING -1
SWIDTH 600 0
DWIDTH 6 0
BBX 5 5 1 0
BITMAP
80
F0
88
F0
80
ENDCHAR
STARTCHAR Thorn.c2sc
ENCODING -1
SWIDTH 600 0
DWIDTH 6 0
BBX 5 5 1 0
BITMAP
80
F0
88
F0
80
ENDCHAR
STARTCHAR uni2126
ENCODING -1
SWIDTH 600 0
DWIDTH 6 0
BBX 5 7 1 0
BITMAP
70
88
88
88
88
50
D8
ENDCHAR
STARTCHAR uni2295
ENCODING -1
SWIDTH 600 0
DWIDTH 6 0
BBX 5 5 1 1
BITMAP
70
A8
F8
A8
70
ENDCHAR
STARTCHAR uni10450
ENCODING -1
SWIDTH 600 0
DWIDTH 6 0
BBX 3 7 1 0
BITMAP
C0
20
20
20
20
20
20
ENDCHAR
STARTCHAR uni10451
ENCODING -1
SWIDTH 600 0
DWIDTH 6 0
BBX 3 7 1 0
BITMAP
60
A0
20
20
20
20
20
ENDCHAR
STARTCHAR uni10452
ENCODING -1
SWIDTH 600 0
DWIDTH 6 0
BBX 3 7 1 0
BITMAP
20
20
20
60
80
80
60
ENDCHAR
STARTCHAR uni10453
ENCODING -1
SWIDTH 600 0
DWIDTH 6 0
BBX 3 7 1 0
BITMAP
20
20
20
20
20
20
C0
ENDCHAR
STARTCHAR uni10454
ENCODING -1
SWIDTH 600 0
DWIDTH 6 0
BBX 5 7 1 0
BITMAP
60
10
08
78
88
88
70
ENDCHAR
STARTCHAR uni10455
ENCODING -1
SWIDTH 600 0
DWIDTH 6 0
BBX 5 7 1 0
BITMAP
78
80
70
08
08
08
F0
ENDCHAR
STARTCHAR uni10456
ENCODING -1
SWIDTH 600 0
DWIDTH 6 0
BBX 5 7 1 0
BITMAP
08
10
20
40
80
80
70
ENDCHAR
STARTCHAR uni10457
ENCODING -1
SWIDTH 600 0
DWIDTH 6 0
BBX 5 7 1 0
BITMAP
68
90
20
40
80
80
70
ENDCHAR
STARTCHAR uni10458
ENCODING -1
SWIDTH 600 0
DWIDTH 6 0
BBX 5 7 1 0
BITMAP
80
80
40
20
10
08
08
ENDCHAR
STARTCHAR uni10459
ENCODING -1
SWIDTH 600 0
DWIDTH 6 0
BBX 5 7 1 0
BITMAP
20
50
88
50
20
50
88
ENDCHAR
STARTCHAR uni1045A
ENCODING -1
SWIDTH 600 0
DWIDTH 6 0
BBX 3 7 3 -2
BITMAP
80
80
80
80
80
80
60
ENDCHAR
STARTCHAR uni1045B
ENCODING -1
SWIDTH 600 0
DWIDTH 6 0
BBX 3 7 3 -2
BITMAP
80
80
80
80
80
A0
C0
ENDCHAR
STARTCHAR uni1045C
ENCODING -1
SWIDTH 600 0
DWIDTH 6 0
BBX 3 7 3 -2
BITMAP
C0
20
20
C0
80
80
80
ENDCHAR
STARTCHAR uni1045D
ENCODING -1
SWIDTH 600 0
DWIDTH 6 0
BBX 3 7 3 -2
BITMAP
60
80
80
80
80
80
80
ENDCHAR
STARTCHAR uni1045E
ENCODING -1
SWIDTH 600 0
DWIDTH 6 0
BBX 5 7 1 -2
BITMAP
70
88
88
F0
80
40
30
ENDCHAR
STARTCHAR uni1045F
ENCODING -1
SWIDTH 600 0
DWIDTH 6 0
BBX 5 7 1 -2
BITMAP
F0
08
08
08
70
80
78
ENDCHAR
STARTCHAR uni10460
ENCODING -1
SWIDTH 600 0
DWIDTH 6 0
BBX 5 7 1 -2
BITMAP
70
08
08
10
20
40
80
ENDCHAR
STARTCHAR uni10461
ENCODING -1
SWIDTH 600 0
DWIDTH 6 0
BBX 5 7 1 -2
BITMAP
70
08
08
10
20
48
B0
ENDCHAR
STARTCHAR uni10462
ENCODING -1
SWIDTH 600 0
DWIDTH 6 0
BBX 5 7 1 -2
BITMAP
08
08
10
20
40
80
80
ENDCHAR
STARTCHAR uni10463
ENCODING -1
SWIDTH 600 0
DWIDTH 6 0
BBX 5 7 1 -2
BITMAP
88
50
20
50
88
50
20
ENDCHAR
STARTCHAR uni10464
ENCODING -1
SWIDTH 600 0
DWIDTH 6 0
BBX 5 5 1 0
BITMAP
78
80
80
80
78
ENDCHAR
STARTCHAR uni10465
ENCODING -1
SWIDTH 600 0
DWIDTH 6 0
BBX 5 5 1 0
BITMAP
18
10
20
40
C0
ENDCHAR
STARTCHAR uni10466
ENCODING -1
SWIDTH 600 0
DWIDTH 6 0
BBX 1 5 3 0
BITMAP
80
80
80
80
80
ENDCHAR
STARTCHAR uni10467
ENCODING -1
SWIDTH 600 0
DWIDTH 6 0
BBX 3 5 3 0
BITMAP
80
80
80
80
60
ENDCHAR
STARTCHAR uni10468
ENCODING -1
SWIDTH 600 0
DWIDTH 6 0
BBX 3 5 1 0
BITMAP
20
20
20
20
C0
ENDCHAR
STARTCHAR uni10469
ENCODING -1
SWIDTH 600 0
DWIDTH 6 0
BBX 3 5 3 0
BITMAP
60
80
80
80
80
ENDCHAR
STARTCHAR uni1046A
ENCODING -1
SWIDTH 600 0
DWIDTH 6 0
BBX 3 5 1 0
BITMAP
C0
20
20
20
20
ENDCHAR
STARTCHAR uni1046B
ENCODING -1
SWIDTH 600 0
DWIDTH 6 0
BBX 5 5 1 0
BITMAP
88
88
50
50
20
ENDCHAR
STARTCHAR uni1046C
ENCODING -1
SWIDTH 600 0
DWIDTH 6 0
BBX 4 5 1 0
BITMAP
20
40
E0
20
10
ENDCHAR
STARTCHAR uni1046D
ENCODING -1
SWIDTH 600 0
DWIDTH 6 0
BBX 5 5 1 0
BITMAP
30
40
38
10
E0
ENDCHAR
STARTCHAR uni1046E
ENCODING -1
SWIDTH 600 0
DWIDTH 6 0
BBX 5 5 1 0
BITMAP
F0
08
08
08
F0
ENDCHAR
STARTCHAR uni1046F
ENCODING -1
SWIDTH 600 0
DWIDTH 6 0
BBX 5 5 1 0
BITMAP
C0
40
20
10
18
ENDCHAR
STARTCHAR uni10470
ENCODING -1
SWIDTH 600 0
DWIDTH 6 0
BBX 5 5 1 0
BITMAP
80
98
A8
C8
08
ENDCHAR
STARTCHAR uni10471
ENCODING -1
SWIDTH 600 0
DWIDTH 6 0
BBX 5 5 1 0
BITMAP
F8
80
40
20
18
ENDCHAR
STARTCHAR uni10472
ENCODING -1
SWIDTH 600 0
DWIDTH 6 0
BBX 5 5 1 0
BITMAP
F8
08
10
20
C0
ENDCHAR
STARTCHAR uni10473
ENCODING -1
SWIDTH 600 0
DWIDTH 6 0
BBX 5 5 1 0
BITMAP
F8
08
70
80
80
ENDCHAR
STARTCHAR uni10474
ENCODING -1
SWIDTH 600 0
DWIDTH 6 0
BBX 5 5 1 0
BITMAP
70
88
88
88
70
ENDCHAR
STARTCHAR uni10475
ENCODING -1
SWIDTH 600 0
DWIDTH 6 0
BBX 5 5 1 0
BITMAP
20
50
50
88
88
ENDCHAR
STARTCHAR uni10476
ENCODING -1
SWIDTH 600 0
DWIDTH 6 0
BBX 5 5 1 0
BITMAP
C0
38
10
20
40
ENDCHAR
STARTCHAR uni10477
ENCODING -1
SWIDTH 600 0
DWIDTH 6 0
BBX 5 5 1 0
BITMAP
E0
18
08
10
08
ENDCHAR
STARTCHAR uni10478
ENCODING -1
SWIDTH 600 0
DWIDTH 6 0
BBX 5 5 1 0
BITMAP
70
90
88
48
D0
ENDCHAR
STARTCHAR uni10479
ENCODING -1
SWIDTH 600 0
DWIDTH 6 0
BBX 5 5 1 0
BITMAP
58
90
88
48
70
ENDCHAR
STARTCHAR uni1047A
ENCODING -1
SWIDTH 600 0
DWIDTH 6 0
BBX 5 5 1 0
BITMAP
70
88
48
88
90
ENDCHAR
STARTCHAR uni1047B
ENCODING -1
SWIDTH 600 0
DWIDTH 6 0
BBX 5 5 1 0
BITMAP
48
88
90
88
70
ENDCHAR
STARTCHAR uni1047C
ENCODING -1
SWIDTH 600 0
DWIDTH 6 0
BBX 5 5 1 0
BITMAP
30
48
88
88
B0
ENDCHAR
STARTCHAR uni1047D
ENCODING -1
SWIDTH 600 0
DWIDTH 6 0
BBX 5 5 1 0
BITMAP
B0
C8
88
88
B0
ENDCHAR
STARTCHAR uni1047E
ENCODING -1
SWIDTH 600 0
DWIDTH 6 0
BBX 5 5 1 0
BITMAP
B8
C0
80
80
80
ENDCHAR
STARTCHAR uni1047F
ENCODING -1
SWIDTH 600 0
DWIDTH 6 0
BBX 5 5 1 0
BITMAP
80
80
90
A8
68
ENDCHAR
STARTCHAR uni1F680
ENCODING -1
SWIDTH 600 0
DWIDTH 6 0
BBX 5 7 1 0
BITMAP
20
50
50
50
D8
D8
A8
ENDCHAR
STARTCHAR uni1F681
ENCODING -1
SWIDTH 600 0
DWIDTH 6 0
BBX 5 5 1 1
BITMAP
E0
40
48
B8
40
ENDCHAR
STARTCHAR uni1F682
ENCODING -1
SWIDTH 600 0
DWIDTH 6 0
BBX 5 4 1 1
BITMAP
58
F0
F8
A8
ENDCHAR
STARTCHAR uni1F69A
ENCODING -1
SWIDTH 600 0
DWIDTH 6 0
BBX 5 5 1 1
BITMAP
38
78
B8
F8
48
ENDCHAR
STARTCHAR uni1FBB0
ENCODING -1
SWIDTH 600 0
DWIDTH 6 0
BBX 5 6 1 1
BITMAP
C0
A0
90
88
B8
C0
ENDCHAR
STARTCHAR uni1FBBB
ENCODING -1
SWIDTH 600 0
DWIDTH 6 0
BBX 5 5 1 1
BITMAP
50
D8
00
D8
50
ENDCHAR
STARTCHAR uni1FBBC
ENCODING -1
SWIDTH 600 0
DWIDTH 6 0
BBX 5 5 1 1
BITMAP
F8
08
28
08
F8
ENDCHAR
STARTCHAR uni1FBC0
ENCODING -1
SWIDTH 600 0
DWIDTH 6 0
BBX 5 7 1 0
BITMAP
50
A8
88
50
88
A8
50
ENDCHAR
STARTCHAR uni1FBC4
ENCODING -1
SWIDTH 600 0
DWIDTH 6 0
BBX 5 7 1 0
BITMAP
F8
88
E8
C8
F8
D8
F8
ENDCHAR
STARTCHAR uni1FBC5
ENCODING -1
SWIDTH 600 0
DWIDTH 6 0
BBX 5 9 1 -2
BITMAP
20
50
50
20
F8
20
20
50
88
ENDCHAR
STARTCHAR uni1FBC6
ENCODING -1
SWIDTH 600 0
DWIDTH 6 0
BBX 5 9 1 -2
BITMAP
20
50
50
20
A8
70
20
50
88
ENDCHAR
STARTCHAR uni1FBC7
ENCODING -1
SWIDTH 600 0
DWIDTH 6 0
BBX 5 9 1 -2
BITMAP
20
50
50
20
68
B0
20
50
48
ENDCHAR
STARTCHAR uni1FBC8
ENCODING -1
SWIDTH 600 0
DWIDTH 6 0
BBX 5 9 1 -2
BITMAP
20
50
50
20
B0
68
20
50
90
ENDCHAR
STARTCHAR uni1FBC9
ENCODING -1
SWIDTH 600 0
DWIDTH 6 0
BBX 5 9 1 -2
BITMAP
20
50
50
20
F8
50
88
F8
50
ENDCHAR
STARTCHAR uni1FBCA
ENCODING -1
SWIDTH 600 0
DWIDTH 6 0
BBX 5 7 1 0
BITMAP
20
50
88
88
A8
D8
88
ENDCHAR
STARTCHAR uni1FB00
ENCODING -1
SWIDTH 600 0
DWIDTH 6 0
BBX 3 3 0 5
BITMAP
E0
E0
E0
ENDCHAR
STARTCHAR uni1FB00.sep6
ENCODING -1
SWIDTH 600 0
DWIDTH 6 0
BBX 2 2 1 6
BITMAP
C0
C0
ENDCHAR
STARTCHAR uni1FB01
ENCODING -1
SWIDTH 600 0
DWIDTH 6 0
BBX 3 3 3 5
BITMAP
E0
E0
E0
ENDCHAR
STARTCHAR uni1FB01.sep6
ENCODING -1
SWIDTH 600 0
DWIDTH 6 0
BBX 2 2 4 6
BITMAP
C0
C0
ENDCHAR
STARTCHAR uni1FB02
ENCODING -1
SWIDTH 600 0
DWIDTH 6 0
BBX 6 3 0 5
BITMAP
FC
FC
FC
ENDCHAR
STARTCHAR uni1FB02.sep6
ENCODING -1
SWIDTH 600 0
DWIDTH 6 0
BBX 5 2 1 6
BITMAP
D8
D8
ENDCHAR
STARTCHAR uni1FB03
ENCODING -1
SWIDTH 600 0
DWIDTH 6 0
BBX 3 4 0 1
BITMAP
E0
E0
E0
E0
ENDCHAR
STARTCHAR uni1FB03.sep6
ENCODING -1
SWIDTH 600 0
DWIDTH 6 0
BBX 2 3 1 2
BITMAP
C0
C0
C0
ENDCHAR
STARTCHAR uni1FB04
ENCODING -1
SWIDTH 600 0
DWIDTH 6 0
BBX 3 7 0 1
BITMAP
E0
E0
E0
E0
E0
E0
E0
ENDCHAR
STARTCHAR uni1FB04.sep6
ENCODING -1
SWIDTH 600 0
DWIDTH 6 0
BBX 2 6 1 2
BITMAP
C0
C0
00
C0
C0
C0
ENDCHAR
STARTCHAR uni1FB05
ENCODING -1
SWIDTH 600 0
DWIDTH 6 0
BBX 6 7 0 1
BITMAP
1C
1C
1C
E0
E0
E0
E0
ENDCHAR
STARTCHAR uni1FB05.sep6
ENCODING -1
SWIDTH 600 0
DWIDTH 6 0
BBX 5 6 1 2
BITMAP
18
18
00
C0
C0
C0
ENDCHAR
STARTCHAR uni1FB06
ENCODING -1
SWIDTH 600 0
DWIDTH 6 0
BBX 6 7 0 1
BITMAP
FC
FC
FC
E0
E0
E0
E0
ENDCHAR
STARTCHAR uni1FB06.sep6
ENCODING -1
SWIDTH 600 0
DWIDTH 6 0
BBX 5 6 1 2
BITMAP
D8
D8
00
C0
C0
C0
ENDCHAR
STARTCHAR uni1FB07
ENCODING -1
SWIDTH 600 0
DWIDTH 6 0
BBX 3 4 3 1
BITMAP
E0
E0
E0
E0
ENDCHAR
STARTCHAR uni1FB07.sep6
ENCODING -1
SWIDTH 600 0
DWIDTH 6 0
BBX 2 3 4 2
BITMAP
C0
C0
C0
ENDCHAR
STARTCHAR uni1FB08
ENCODING -1
SWIDTH 600 0
DWIDTH 6 0
BBX 6 7 0 1
BITMAP
E0
E0
E0
1C
1C
1C
1C
ENDCHAR
STARTCHAR uni1FB08.sep6
ENCODING -1
SWIDTH 600 0
DWIDTH 6 0
BBX 5 6 1 2
BITMAP
C0
C0
00
18
18
18
ENDCHAR
STARTCHAR uni1FB09
ENCODING -1
SWIDTH 600 0
DWIDTH 6 0
BBX 3 7 3 1
BITMAP
E0
E0
E0
E0
E0
E0
E0
ENDCHAR
STARTCHAR uni1FB09.sep6
ENCODING -1
SWIDTH 600 0
DWIDTH 6 0
BBX 2 6 4 2
BITMAP
C0
C0
00
C0
C0
C0
ENDCHAR
STARTCHAR uni1FB0A
ENCODING -1
SWIDTH 600 0
DWIDTH 6 0
BBX 6 7 0 1
BITMAP
FC
FC
FC
1C
1C
1C
1C
ENDCHAR
STARTCHAR uni1FB0A.sep6
ENCODING -1
SWIDTH 600 0
DWIDTH 6 0
BBX 5 6 1 2
BITMAP
D8
D8
00
18
18
18
ENDCHAR
STARTCHAR uni1FB0B
ENCODING -1
SWIDTH 600 0
DWIDTH 6 0
BBX 6 4 0 1
BITMAP
FC
FC
FC
FC
ENDCHAR
STARTCHAR uni1FB0B.sep6
ENCODING -1
SWIDTH 600 0
DWIDTH 6 0
BBX 5 3 1 2
BITMAP
D8
D8
D8
ENDCHAR
STARTCHAR uni1FB0C
ENCODING -1
SWIDTH 600 0
DWIDTH 6 0
BBX 6 7 0 1
BITMAP
E0
E0
E0
FC
FC
FC
FC
ENDCHAR
STARTCHAR uni1FB0C.sep6
ENCODING -1
SWIDTH 600 0
DWIDTH 6 0
BBX 5 6 1 2
BITMAP
C0
C0
00
D8
D8
D8
ENDCHAR
STARTCHAR uni1FB0D
ENCODING -1
SWIDTH 600 0
DWIDTH 6 0
BBX 6 7 0 1
BITMAP
1C
1C
1C
FC
FC
FC
FC
ENDCHAR
STARTCHAR uni1FB0D.sep6
ENCODING -1
SWIDTH 600 0
DWIDTH 6 0
BBX 5 6 1 2
BITMAP
18
18
00
D8
D8
D8
ENDCHAR
STARTCHAR uni1FB0E
ENCODING -1
SWIDTH 600 0
DWIDTH 6 0
BBX 6 7 0 1
BITMAP
FC
FC
FC
FC
FC
FC
FC
ENDCHAR
STARTCHAR uni1FB0E.sep6
ENCODING -1
SWIDTH 600 0
DWIDTH 6 0
BBX 5 6 1 2
BITMAP
D8
D8
00
D8
D8
D8
ENDCHAR
STARTCHAR uni1FB0F
ENCODING -1
SWIDTH 600 0
DWIDTH 6 0
BBX 3 3 0 -2
BITMAP
E0
E0
E0
ENDCHAR
STARTCHAR uni1FB0F.sep6
ENCODING -1
SWIDTH 600 0
DWIDTH 6 0
BBX 2 2 1 -1
BITMAP
C0
C0
ENDCHAR
STARTCHAR uni1FB10
ENCODING -1
SWIDTH 600 0
DWIDTH 6 0
BBX 3 10 0 -2
BITMAP
E0
E0
E0
00
00
00
00
E0
E0
E0
ENDCHAR
STARTCHAR uni1FB10.sep6
ENCODING -1
SWIDTH 600 0
DWIDTH 6 0
BBX 2 9 1 -1
BITMAP
C0
C0
00
00
00
00
00
C0
C0
ENDCHAR
STARTCHAR uni1FB11
ENCODING -1
SWIDTH 600 0
DWIDTH 6 0
BBX 6 10 0 -2
BITMAP
1C
1C
1C
00
00
00
00
E0
E0
E0
ENDCHAR
STARTCHAR uni1FB11.sep6
ENCODING -1
SWIDTH 600 0
DWIDTH 6 0
BBX 5 9 1 -1
BITMAP
18
18
00
00
00
00
00
C0
C0
ENDCHAR
STARTCHAR uni1FB12
ENCODING -1
SWIDTH 600 0
DWIDTH 6 0
BBX 6 10 0 -2
BITMAP
FC
FC
FC
00
00
00
00
E0
E0
E0
ENDCHAR
STARTCHAR uni1FB12.sep6
ENCODING -1
SWIDTH 600 0
DWIDTH 6 0
BBX 5 9 1 -1
BITMAP
D8
D8
00
00
00
00
00
C0
C0
ENDCHAR
STARTCHAR uni1FB13
ENCODING -1
SWIDTH 600 0
DWIDTH 6 0
BBX 3 7 0 -2
BITMAP
E0
E0
E0
E0
E0
E0
E0
ENDCHAR
STARTCHAR uni1FB13.sep6
ENCODING -1
SWIDTH 600 0
DWIDTH 6 0
BBX 2 6 1 -1
BITMAP
C0
C0
C0
00
C0
C0
ENDCHAR
STARTCHAR uni1FB14
ENCODING -1
SWIDTH 600 0
DWIDTH 6 0
BBX 6 10 0 -2
BITMAP
1C
1C
1C
E0
E0
E0
E0
E0
E0
E0
ENDCHAR
STARTCHAR uni1FB14.sep6
ENCODING -1
SWIDTH 600 0
DWIDTH 6 0
BBX 5 9 1 -1
BITMAP
18
18
00
C0
C0
C0
00
C0
C0
ENDCHAR
STARTCHAR uni1FB15
ENCODING -1
SWIDTH 600 0
DWIDTH 6 0
BBX 6 10 0 -2
BITMAP
FC
FC
FC
E0
E0
E0
E0
E0
E0
E0
ENDCHAR
STARTCHAR uni1FB15.sep6
ENCODING -1
SWIDTH 600 0
DWIDTH 6 0
BBX 5 9 1 -1
BITMAP
D8
D8
00
C0
C0
C0
00
C0
C0
ENDCHAR
STARTCHAR uni1FB16
ENCODING -1
SWIDTH 600 0
DWIDTH 6 0
BBX 6 7 0 -2
BITMAP
1C
1C
1C
1C
E0
E0
E0
ENDCHAR
STARTCHAR uni1FB16.sep6
ENCODING -1
SWIDTH 600 0
DWIDTH 6 0
BBX 5 6 1 -1
BITMAP
18
18
18
00
C0
C0
ENDCHAR
STARTCHAR uni1FB17
ENCODING -1
SWIDTH 600 0
DWIDTH 6 0
BBX 6 10 0 -2
BITMAP
E0
E0
E0
1C
1C
1C
1C
E0
E0
E0
ENDCHAR
STARTCHAR uni1FB17.sep6
ENCODING -1
SWIDTH 600 0
DWIDTH 6 0
BBX 5 9 1 -1
BITMAP
C0
C0
00
18
18
18
00
C0
C0
ENDCHAR
STARTCHAR uni1FB18
ENCODING -1
SWIDTH 600 0
DWIDTH 6 0
BBX 6 10 0 -2
BITMAP
1C
1C
1C
1C
1C
1C
1C
E0
E0
E0
ENDCHAR
STARTCHAR uni1FB18.sep6
ENCODING -1
SWIDTH 600 0
DWIDTH 6 0
BBX 5 9 1 -1
BITMAP
18
18
00
18
18
18
00
C0
C0
ENDCHAR
ENDFONT
